<?xml version="1.0" standalone="no"?>
<!DOCTYPE svg PUBLIC "-//W3C//DTD SVG 1.1//EN" "http://www.w3.org/Graphics/SVG/1.1/DTD/svg11.dtd" >
<svg>
<metadata>
Created by FontForge 20120731 at Thu Jul 20 20:08:35 2023
 By www
Created by P22 type foundry for The Solomon R. Guggenheim Foundation and The Josef and Anni Albers Foundation. 0997
</metadata>
<defs>
<font id="P22AlbersTwo" horiz-adv-x="480" >
  <font-face 
    font-family="P22 Albers"
    font-weight="400"
    font-stretch="normal"
    units-per-em="1000"
    panose-1="0 0 4 0 0 0 0 0 0 0"
    ascent="800"
    descent="-200"
    x-height="320"
    cap-height="480"
    bbox="0 -171 860 800"
    underline-thickness="20"
    underline-position="-123"
    unicode-range="U+0020-F002"
  />
<missing-glyph horiz-adv-x="500" 
d="M63 0v800h375v-800h-375zM125 63h250v675h-250v-675z" />
    <glyph glyph-name=".notdef" horiz-adv-x="500" 
d="M63 0v800h375v-800h-375zM125 63h250v675h-250v-675z" />
    <glyph glyph-name=".null" horiz-adv-x="0" 
 />
    <glyph glyph-name="nonmarkingreturn" horiz-adv-x="227" 
 />
    <glyph glyph-name="space" unicode=" " horiz-adv-x="227" 
 />
    <glyph glyph-name="exclam" unicode="!" horiz-adv-x="280" 
d="M220 320q0 -66 -47 -113t-113 -47v320h160v-160zM220 80q0 -33 -23.5 -56.5t-56.5 -23.5t-56.5 23.5t-23.5 56.5t23.5 56.5t56.5 23.5t56.5 -23.5t23.5 -56.5z" />
    <glyph glyph-name="quotedbl" unicode="&#x22;" horiz-adv-x="441" 
d="M381 480q0 -66 -47 -113t-113 -47v160q163 1 160 0zM220 480q0 -66 -47 -113t-113 -47v160q163 1 160 0z" />
    <glyph glyph-name="numbersign" unicode="#" horiz-adv-x="683" 
d="M623 244h-161v160q67 0 114 -46.5t47 -113.5zM623 83h-161v160q67 0 114 -46.5t47 -113.5zM422 -1q-67 0 -114 47.5t-47 113.5v160q0 66 47 113.5t114 47.5v-482zM221 239q-67 0 -114 47.5t-47 113.5q44 1 161 0v-161zM221 79q-67 0 -114 47t-47 113q44 1 161 0v-160z
" />
    <glyph glyph-name="dollar" unicode="$" horiz-adv-x="681" 
d="M621 80h-161v161q67 0 114 -47.5t47 -113.5zM420 0h-160l-1 480h161v-480zM220 242q-67 0 -113.5 46.5t-46.5 113.5h160v-160z" />
    <glyph glyph-name="percent" unicode="%" horiz-adv-x="600" 
d="M540 79q0 -32 -23.5 -55.5t-57.5 -23.5q-33 0 -56 23.5t-23 55.5q0 34 23 57.5t56 23.5q34 0 57.5 -23.5t23.5 -57.5zM220 400q0 -34 -23.5 -57.5t-56.5 -23.5t-56.5 23.5t-23.5 57.5q0 33 23.5 56.5t56.5 23.5t56.5 -23.5t23.5 -56.5zM379 156q0 -65 -46.5 -110.5
t-113.5 -45.5v318q0 66 47 114t113 48v-324z" />
    <glyph glyph-name="ampersand" unicode="&#x26;" 
d="M260 400q0 -33 -23 -56.5t-57 -23.5t-57 23.5t-23 56.5t23 56.5t57 23.5t57 -23.5t23 -56.5zM420 320q0 -66 -47 -113t-113 -47v160h160zM420 160q0 -66 -46.5 -113t-113.5 -47v160h160zM220 0q-66 0 -113 47t-47 113v1q0 66 47 112.5t113 46.5v-320z" />
    <glyph glyph-name="quotesingle" unicode="'" horiz-adv-x="280" 
d="M220 480q0 -66 -47 -113t-113 -47v160q163 1 160 0z" />
    <glyph glyph-name="parenleft" unicode="(" horiz-adv-x="280" 
d="M220 0q-66 0 -113 46.5t-47 112.5v161q0 66 47 112.5t113 46.5v-479z" />
    <glyph glyph-name="parenright" unicode=")" horiz-adv-x="280" 
d="M220 159q0 -66 -47 -112.5t-113 -46.5v479q66 0 113 -46.5t47 -112.5v-161z" />
    <glyph glyph-name="asterisk" unicode="*" horiz-adv-x="440" 
d="M380 320q-163 -1 -160 0q0 67 46.5 113t113.5 46v-159zM220 320q-67 0 -113.5 47t-46.5 113h160v-160zM380 160h-160v159q66 0 113 -46t47 -113zM220 320q0 -66 -47 -113t-113 -47v160h160z" />
    <glyph glyph-name="plus" unicode="+" horiz-adv-x="680" 
d="M620 161h-160v160h160v-160zM420 1h-159v479h159v-479zM220 161h-160v160h160v-160z" />
    <glyph glyph-name="comma" unicode="," horiz-adv-x="280" 
d="M220 0q0 -66 -46.5 -113t-113.5 -47v160h160z" />
    <glyph glyph-name="hyphen" unicode="-" horiz-adv-x="280" 
d="M220 160h-160v160q66 0 113 -46.5t47 -113.5z" />
    <glyph glyph-name="hyphen" unicode="&#x2010;" horiz-adv-x="280" 
d="M220 160h-160v160q66 0 113 -46.5t47 -113.5z" />
    <glyph glyph-name="period" unicode="." horiz-adv-x="281" 
d="M221 82q0 -33 -23.5 -56.5t-56.5 -23.5t-57 23.5t-24 56.5t24 56.5t57 23.5t56.5 -23.5t23.5 -56.5z" />
    <glyph glyph-name="slash" unicode="/" horiz-adv-x="280" 
d="M220 800q-66 0 -113 -47t-47 -113v-640q66 0 113 47t47 113v640z" />
    <glyph glyph-name="zero" unicode="0" 
d="M420 159q0 -66 -47 -112.5t-113 -46.5v319q66 0 113 -46.5t47 -112.5v-1zM220 0q-67 0 -113.5 47t-46.5 113v1q0 66 46.5 112t112.5 46z" />
    <glyph glyph-name="one" unicode="1" 
d="M420 0h-160v320h160v-320zM220 160h-160q0 66 46.5 113t113.5 47v-160z" />
    <glyph glyph-name="two" unicode="2" horiz-adv-x="479" 
d="M417 320q0 -66 -46.5 -113t-113.5 -47v160q163 1 160 0zM221 240q0 -33 -23.5 -56.5t-56.5 -23.5t-57 24t-24 56q0 33 24 56.5t57 23.5t56.5 -23.5t23.5 -56.5zM419 160l-1 -160h-321q0 67 47.5 113.5t113.5 46.5h161z" />
    <glyph glyph-name="three" unicode="3" 
d="M420 320q0 -66 -46.5 -113t-113.5 -47v160h160zM420 160q0 -66 -46.5 -113t-113.5 -47v160h160zM220 240q0 -33 -23 -56.5t-57 -23.5q-33 0 -56.5 23.5t-23.5 56.5t23.5 56.5t56.5 23.5q34 0 57 -23t23 -57zM220 80q0 -33 -23 -56.5t-57 -23.5q-33 0 -56.5 23.5
t-23.5 56.5t23.5 56.5t56.5 23.5q34 0 57 -23t23 -57z" />
    <glyph glyph-name="four" unicode="4" 
d="M420 0h-160v160h160v-160zM220 160q0 -66 -47 -113t-113 -47v320h160v-160z" />
    <glyph glyph-name="five" unicode="5" horiz-adv-x="481" 
d="M421 320q0 -66 -46.5 -113t-112.5 -47h-162v160h321zM420 160q0 -66 -46.5 -113t-113.5 -47v160h160zM220 80q0 -33 -23.5 -56.5t-56.5 -23.5q-34 0 -57 23.5t-23 56.5q0 34 23 57t57 23q33 0 56.5 -23.5t23.5 -56.5z" />
    <glyph glyph-name="six" unicode="6" 
d="M420 240q0 -34 -23.5 -57t-56.5 -23t-56.5 23t-23.5 57q0 33 23.5 56.5t56.5 23.5t56.5 -23.5t23.5 -56.5zM420 160q0 -67 -47 -113.5t-113 -46.5v160h160zM220 0q-66 0 -113 47t-47 113v1q0 66 47 112.5t113 46.5v-320z" />
    <glyph glyph-name="seven" unicode="7" horiz-adv-x="441" 
d="M381 320q0 -67 -46.5 -113.5t-112.5 -46.5h-162v160h321zM380 0q-160 0 -160 1q0 65 47 112t113 47v-160z" />
    <glyph glyph-name="eight" unicode="8" 
d="M420 320q0 -66 -47 -113t-113 -47v160h160zM420 160q0 -66 -47 -113t-113 -47v160h160zM220 160q-66 0 -113 47t-47 113h160q1 -163 0 -160zM220 0q-66 0 -113 47t-47 113h160q1 -163 0 -160z" />
    <glyph glyph-name="nine" unicode="9" 
d="M420 159q0 -65 -47 -111.5t-113 -46.5v319q66 0 113 -46.5t47 -113.5v-1zM220 160h-160q0 66 47 113t113 47q1 -43 0 -160zM220 75q0 -33 -23.5 -56.5t-56.5 -23.5t-56.5 23.5t-23.5 56.5q0 34 23.5 57.5t56.5 23.5t56.5 -23.5t23.5 -57.5z" />
    <glyph glyph-name="colon" unicode=":" horiz-adv-x="281" 
d="M221 250q0 -33 -23.5 -56.5t-57.5 -23.5q-33 0 -56.5 23.5t-23.5 56.5t23.5 56.5t56.5 23.5q34 0 57.5 -23t23.5 -57zM221 80q0 -33 -23.5 -56.5t-57.5 -23.5q-33 0 -56.5 23.5t-23.5 56.5t23.5 56.5t56.5 23.5q34 0 57.5 -23t23.5 -57z" />
    <glyph glyph-name="semicolon" unicode=";" horiz-adv-x="281" 
d="M221 160q0 -33 -23.5 -56.5t-57.5 -23.5q-33 0 -56.5 23.5t-23.5 56.5t23.5 56.5t56.5 23.5q34 0 57.5 -23.5t23.5 -56.5zM220 0q0 -66 -46.5 -113t-113.5 -47v160h160z" />
    <glyph glyph-name="less" unicode="&#x3c;" horiz-adv-x="279" 
d="M219 77q-65 0 -112 46.5t-47 112.5v1q0 66 46.5 113t112.5 47v-320z" />
    <glyph glyph-name="equal" unicode="=" horiz-adv-x="440" 
d="M380 366q0 -66 -46.5 -113t-113.5 -47h-160q0 66 47 113t113 47h160zM380 160q0 -66 -46.5 -112.5t-113.5 -46.5q-163 -1 -160 0q0 66 47 113t113 47q160 0 160 -1z" />
    <glyph glyph-name="greater" unicode="&#x3e;" horiz-adv-x="280" 
d="M220 236q0 -66 -47 -112.5t-112 -46.5l-1 320q67 0 113.5 -47t46.5 -113v-1z" />
    <glyph glyph-name="question" unicode="?" 
d="M420 320q0 -66 -47 -112.5t-113 -46.5v319q67 0 113.5 -46.5t46.5 -112.5v-1zM220 320q-163 -1 -160 0q0 66 47 113t113 47v-160zM341 77q0 -33 -23.5 -56.5t-57.5 -23.5q-33 0 -56.5 23.5t-23.5 56.5q0 34 23.5 57t56.5 23q34 0 57.5 -23t23.5 -57z" />
    <glyph glyph-name="at" unicode="@" horiz-adv-x="632" 
d="M572 254q0 -105 -75 -180.5t-181 -75.5q-105 0 -180.5 75.5t-75.5 180.5q0 106 75.5 181t180.5 75q107 0 181.5 -74.5t74.5 -181.5zM468 137v129q0 53 -37.5 90.5t-90.5 37.5l-1 -257h129zM308 394h-128v-128q53 0 90.5 37.5t37.5 90.5zM308 138v128q-53 0 -90.5 -37.5
t-37.5 -90.5h128z" />
    <glyph glyph-name="A" unicode="A" horiz-adv-x="481" 
d="M421 0q-67 0 -113.5 46.5t-46.5 112.5v321h160v-480zM220 0q-66 0 -113 47t-47 113l1 160q0 67 47 113.5t112 46.5v-480z" />
    <glyph glyph-name="B" unicode="B" horiz-adv-x="479" 
d="M419 320h-160v160q66 0 113 -47t47 -113zM419 159q0 -66 -46.5 -112t-112.5 -46l-1 318q66 0 113 -47t47 -113zM220 0h-160v480h160v-480z" />
    <glyph glyph-name="C" unicode="C" horiz-adv-x="481" 
d="M421 159q-67 0 -113.5 47t-46.5 113v161h159zM220 0q-66 0 -113 47t-47 113v161q1 66 48 112.5t112 46.5v-480z" />
    <glyph glyph-name="D" unicode="D" 
d="M420 160q0 -66 -47 -113t-113 -47v480q66 0 112.5 -47t46.5 -113zM220 0h-160v480h160v-480z" />
    <glyph glyph-name="E" unicode="E" horiz-adv-x="481" 
d="M421 320q-67 0 -113.5 47t-46.5 113q43 1 160 0v-160zM421 160q-67 0 -113.5 47t-46.5 113q43 1 160 0v-160zM420 0h-159q0 66 46.5 113t112.5 47q1 -43 0 -160zM220 0h-160v480h160v-480z" />
    <glyph glyph-name="F" unicode="F" 
d="M420 320q-67 0 -113.5 47t-46.5 113q43 1 160 0v-160zM420 80q-67 0 -113.5 47t-46.5 113q43 1 160 0v-160zM220 0h-160v480h160v-480z" />
    <glyph glyph-name="G" unicode="G" horiz-adv-x="481" 
d="M420 320q-66 0 -113 47t-47 113h160v-160zM421 0q-67 0 -113.5 47t-46.5 113q43 1 160 0v-160zM220 1q-66 0 -113 47t-47 113l1 160q0 66 47 112.5t112 46.5v-479z" />
    <glyph glyph-name="H" unicode="H" horiz-adv-x="680" 
d="M620 0h-160v480h160v-480zM420 160q-66 0 -113 47t-47 113h160v-160zM220 0h-160v480h160v-480z" />
    <glyph glyph-name="I" unicode="I" horiz-adv-x="280" 
d="M220 160q0 -66 -47 -113t-113 -47v480h160v-320z" />
    <glyph glyph-name="J" unicode="J" horiz-adv-x="479" 
d="M419 160q0 -66 -46.5 -113t-113.5 -47v480h160v-320zM220 0h-160v160q66 0 113 -46.5t47 -113.5z" />
    <glyph glyph-name="K" unicode="K" horiz-adv-x="460" 
d="M419 480q0 -67 -46 -113.5t-113 -46.5q-1 43 0 160h159zM420 0h-160v160q67 0 113.5 -46.5t46.5 -113.5zM220 0h-160v480h160v-480z" />
    <glyph glyph-name="L" unicode="L" 
d="M420 0h-160q0 66 46.5 113t113.5 47v-160zM220 0h-160v480h160v-480z" />
    <glyph glyph-name="M" unicode="M" horiz-adv-x="680" 
d="M620 0h-160v480q66 0 113 -46.5t47 -112.5v-321zM420 161q0 -66 -47 -113t-113 -47v479h160v-319zM220 161q0 -66 -46.5 -113t-113.5 -47v479h160v-319z" />
    <glyph glyph-name="N" unicode="N" 
d="M420 0h-160v480q66 0 113 -46.5t47 -112.5v-321zM220 161q0 -66 -47 -113t-113 -47v479h160v-319z" />
    <glyph glyph-name="O" unicode="O" 
d="M420 159q0 -66 -47 -112.5t-113 -46.5v479q66 0 113 -46.5t47 -112.5v-161zM220 0q-66 0 -113 46.5t-47 112.5v161q0 66 47 112.5t113 46.5v-479z" />
    <glyph glyph-name="P" unicode="P" 
d="M420 320q0 -66 -46.5 -112.5t-113.5 -46.5v319q67 0 113.5 -47t46.5 -113zM220 0h-160v480h160v-480z" />
    <glyph glyph-name="Q" unicode="Q" horiz-adv-x="479" 
d="M419 161q0 -66 -47 -113t-113 -47v479q65 0 112 -46t48 -112v-161zM219 1q-66 0 -112.5 47t-46.5 113v161q1 66 47.5 112t111.5 46v-479zM378 -160h-159q-1 163 0 160q66 0 112.5 -46.5t46.5 -113.5z" />
    <glyph glyph-name="R" unicode="R" 
d="M420 320q0 -66 -46.5 -112.5t-113.5 -46.5v319q67 0 113.5 -47t46.5 -113zM420 0h-160v160q67 0 113.5 -47t46.5 -113zM220 0h-160v480h160v-480z" />
    <glyph glyph-name="S" unicode="S" 
d="M420 320q-66 0 -113 47t-47 113h160v-160zM420 159q0 -66 -47 -112.5t-113 -46.5v319q66 0 113 -46.5t47 -112.5v-1zM220 160q-66 0 -113 47t-47 113v1q0 66 47 112.5t113 46.5v-320zM220 0h-160v160q66 0 113 -47t47 -113z" />
    <glyph glyph-name="T" unicode="T" horiz-adv-x="680" 
d="M620 159q-67 0 -113.5 46.5t-46.5 113.5v161h159zM420 0h-160v480h160v-480zM220 319q0 -67 -47 -113.5t-113 -46.5v321h160v-161z" />
    <glyph glyph-name="U" unicode="U" 
d="M420 160q0 -66 -47 -113t-113 -47v480h160v-320zM221 0q-67 0 -114 47t-47 113v320h160v-480h1z" />
    <glyph glyph-name="V" unicode="V" 
d="M420 160q0 -66 -47 -113t-113 -47v480h160v-320zM220 0h-160v480q66 0 113 -46.5t47 -113.5v-320z" />
    <glyph glyph-name="W" unicode="W" horiz-adv-x="680" 
d="M620 160q0 -66 -47 -113t-113 -47v480h160v-320zM420 0h-160v480q66 0 113 -46.5t47 -113.5v-320zM220 0h-160v480q67 0 113.5 -46.5t46.5 -113.5v-320z" />
    <glyph glyph-name="X" unicode="X" 
d="M420 480q0 -65 -47 -112t-113 -47v159q163 1 160 0zM220 321q-66 0 -113 47t-47 112q43 1 160 0v-159zM420 0h-160v321q66 0 113 -47t47 -113v-161zM220 0h-160v161q0 66 47 113t113 47v-321z" />
    <glyph glyph-name="Y" unicode="Y" 
d="M420 160q0 -66 -46.5 -113t-113.5 -47v480h160v-320zM220 160q-66 0 -113 47t-47 113v160h160v-320z" />
    <glyph glyph-name="Z" unicode="Z" 
d="M420 320q0 -66 -47 -113t-113 -47v320h160v-160zM220 480q0 -66 -47 -113t-113 -47v160q163 1 160 0zM420 0q-163 -1 -160 0q0 66 47 113t113 47v-160zM220 0h-160v161q0 66 47 113t113 47v-321z" />
    <glyph glyph-name="bracketleft" unicode="[" horiz-adv-x="479" 
d="M219 -162h-159v802h159v-802zM419 480h-160v160h160v-160zM419 -159h-160v160h160v-160z" />
    <glyph glyph-name="backslash" unicode="\" horiz-adv-x="280" 
d="M60 800q66 0 113 -47t47 -113v-640q-66 0 -113 47t-47 113v640z" />
    <glyph glyph-name="bracketright" unicode="]" horiz-adv-x="479" 
d="M220 480h-160v160h160v-160zM419 -162h-159v802h159v-802zM220 -159h-160v160h160v-160z" />
    <glyph glyph-name="asciicircum" unicode="^" horiz-adv-x="440" 
d="M380 319l-320 1q0 66 46.5 112.5t112.5 46.5q67 0 114 -46.5t47 -113.5z" />
    <glyph glyph-name="underscore" unicode="_" horiz-adv-x="479" 
d="M479 -159h-479v159h479v-159z" />
    <glyph glyph-name="grave" unicode="`" horiz-adv-x="280" 
d="M220 481q-66 0 -113 46.5t-47 112.5q43 1 160 0v-159z" />
    <glyph glyph-name="a" unicode="a" 
d="M420 0h-160v320q66 0 113 -46.5t47 -113.5v-160zM220 320q0 -66 -47 -113t-113 -47v160h160zM220 0h-160q0 67 46.5 113.5t113.5 46.5v-160z" />
    <glyph glyph-name="b" unicode="b" horiz-adv-x="461" 
d="M421 160q0 -66 -47 -113t-113 -47v320q66 0 113 -46.5t47 -112.5v-1zM220 0h-160v480h160v-480z" />
    <glyph glyph-name="c" unicode="c" horiz-adv-x="440" 
d="M400 160q-67 0 -113.5 47t-46.5 113h160v-160zM200 0q-67 0 -113.5 47t-46.5 113v1q0 67 46.5 113t113.5 46v-320z" />
    <glyph glyph-name="d" unicode="d" horiz-adv-x="461" 
d="M401 0h-160v480h160v-480zM200 0q-66 0 -113 47t-47 113t47 113t113 47v-320z" />
    <glyph glyph-name="e" unicode="e" horiz-adv-x="440" 
d="M400 160h-160v160q67 0 113.5 -46.5t46.5 -113.5zM200 0q-66 0 -113 47t-47 113v1q0 66 47 112.5t113 46.5v-320z" />
    <glyph glyph-name="f" unicode="f" 
d="M420 320q-67 0 -113.5 47t-46.5 113h160v-160zM420 160q-67 0 -113.5 47t-46.5 113h160v-160zM220 0h-160v320q0 67 47 113.5t113 46.5v-480z" />
    <glyph glyph-name="g" unicode="g" horiz-adv-x="460" 
d="M400 0q0 -67 -46.5 -113.5t-113.5 -46.5v480h160v-320zM200 0q-66 0 -113 46.5t-47 112.5v1q0 66 47 113t113 47v-320z" />
    <glyph glyph-name="h" unicode="h" 
d="M420 0h-160v322q66 0 113 -47t47 -113v-162zM220 0h-160v481h160v-481z" />
    <glyph glyph-name="i" unicode="i" horiz-adv-x="280" 
d="M220 411q0 -33 -23.5 -57t-56.5 -24t-56.5 24t-23.5 57t23.5 56.5t56.5 23.5t56.5 -23.5t23.5 -56.5zM220 0h-160v320h160v-320z" />
    <glyph glyph-name="j" unicode="j" horiz-adv-x="281" 
d="M221 411q0 -34 -23.5 -57.5t-56.5 -23.5q-34 0 -57.5 23.5t-23.5 57.5q0 33 23.5 56.5t57.5 23.5q33 0 56.5 -23.5t23.5 -56.5zM221 0q0 -66 -47 -113t-113 -47v480h160v-320z" />
    <glyph glyph-name="k" unicode="k" 
d="M420 320q0 -66 -47 -113t-113 -47v160h160zM420 0h-160v160q66 0 113 -47t47 -113zM220 0h-160v480h160v-480z" />
    <glyph glyph-name="l" unicode="l" horiz-adv-x="280" 
d="M220 0q-66 0 -113 47t-47 113v320h160v-480z" />
    <glyph glyph-name="m" unicode="m" horiz-adv-x="679" 
d="M619 0h-160v320q67 0 113.5 -47t46.5 -113v-160zM419 159q0 -66 -47 -113t-113 -47l1 321h159v-161zM220 159q0 -66 -46.5 -113t-113.5 -47v321h160v-161z" />
    <glyph glyph-name="n" unicode="n" 
d="M420 0h-160v320q66 0 113 -47t47 -113v-160zM220 159q0 -66 -47 -113t-113 -47v321h160v-161z" />
    <glyph glyph-name="o" unicode="o" horiz-adv-x="440" 
d="M400 159q0 -66 -47 -112.5t-113 -46.5v320q66 0 113 -46.5t47 -113.5v-1zM200 0q-66 0 -113 47t-47 113v1q0 66 47 112.5t113 46.5v-320z" />
    <glyph glyph-name="p" unicode="p" horiz-adv-x="461" 
d="M421 160q0 -66 -47.5 -113t-112.5 -47v320q66 0 113 -47t47 -113zM220 -160h-160v480h160v-480z" />
    <glyph glyph-name="q" unicode="q" horiz-adv-x="461" 
d="M401 -160h-160v480h160v-480zM200 0q-66 0 -113 46.5t-47 112.5v1q0 66 47 113t113 47v-320z" />
    <glyph glyph-name="r" unicode="r" horiz-adv-x="460" 
d="M420 160q-67 0 -113.5 47t-46.5 113q43 1 160 0v-160zM220 0h-160v320h160v-320z" />
    <glyph glyph-name="s" unicode="s" horiz-adv-x="441" 
d="M401 250q0 -33 -23.5 -56.5t-56.5 -23.5t-56.5 23.5t-23.5 56.5q0 34 23.5 57.5t56.5 23.5t56.5 -23.5t23.5 -57.5zM400 160q0 -66 -47 -113t-113 -47v160h160zM200 160h-160q0 67 46.5 113.5t113.5 46.5v-160zM200 70q0 -33 -23.5 -56.5t-56.5 -23.5t-56.5 23.5
t-23.5 56.5q0 34 23.5 57t56.5 23t56.5 -23t23.5 -57z" />
    <glyph glyph-name="t" unicode="t" horiz-adv-x="460" 
d="M420 160q-67 0 -113.5 46.5t-46.5 113.5h160v-160zM220 0h-160v320q0 67 46.5 113.5t113.5 46.5v-480z" />
    <glyph glyph-name="u" unicode="u" 
d="M420 160q0 -66 -47 -113t-113 -47v320h160v-160zM220 0q-67 0 -113.5 46.5t-46.5 113.5v160h160v-320z" />
    <glyph glyph-name="v" unicode="v" 
d="M420 160q0 -66 -47 -113t-113 -47v320h160v-160zM220 0h-160v320q67 0 113.5 -47t46.5 -113v-160z" />
    <glyph glyph-name="w" unicode="w" horiz-adv-x="680" 
d="M620 160q0 -66 -46.5 -113t-113.5 -47v320h160v-160zM420 160q0 -66 -47 -113t-113 -47v320h160v-160zM220 0h-160v320q67 0 113.5 -47t46.5 -113v-160z" />
    <glyph glyph-name="x" unicode="x" 
d="M420 320q0 -67 -47 -113.5t-113 -46.5v160h160zM420 0h-160v160q66 0 113 -47t47 -113zM220 160q-67 0 -113.5 46.5t-46.5 113.5h160v-160zM220 0h-160q0 66 46.5 113t113.5 47v-160z" />
    <glyph glyph-name="y" unicode="y" 
d="M420 0q0 -66 -46.5 -113t-113.5 -47v480h160v-320zM220 0q-66 0 -113 47t-47 113v160h160v-320z" />
    <glyph glyph-name="z" unicode="z" horiz-adv-x="640" 
d="M600 0h-160q0 67 47 113.5t113 46.5v-160zM400 0h-160v320h160v-320zM200 320q0 -66 -46.5 -113t-113.5 -47v160h160z" />
    <glyph glyph-name="braceleft" unicode="{" 
d="M420 -76q-66 0 -113 45t-47 111v322q0 66 47 114t113 48v-640zM220 160h-160q0 67 47 113.5t113 46.5v-160z" />
    <glyph glyph-name="bar" unicode="|" horiz-adv-x="280" 
d="M220 -160h-160v800h160v-800z" />
    <glyph glyph-name="braceright" unicode="}" 
d="M420 160h-160v160q66 0 113 -46.5t47 -113.5zM220 80q0 -66 -47 -111t-113 -45v640q66 0 113 -48t47 -114v-322z" />
    <glyph glyph-name="asciitilde" unicode="~" horiz-adv-x="435" 
d="M375 480q0 -66 -44.5 -113t-110.5 -47h-160q0 67 46.5 113.5t113.5 46.5h155z" />
    <glyph glyph-name="Adieresis" unicode="&#xc4;" 
d="M420 570q0 -33 -23.5 -56.5t-56.5 -23.5t-56.5 23.5t-23.5 56.5q0 34 23 57.5t57 23.5q33 0 56.5 -23.5t23.5 -57.5zM220 570q0 -33 -23.5 -56.5t-56.5 -23.5t-56.5 23.5t-23.5 56.5q0 34 23.5 57.5t56.5 23.5t56.5 -23.5t23.5 -57.5zM420 0q-67 0 -113.5 46.5
t-46.5 112.5v321h160v-480zM220 0q-66 0 -113 47t-47 113l1 160q0 67 47 113.5t112 46.5v-480z" />
    <glyph glyph-name="Aring" unicode="&#xc5;" horiz-adv-x="481" 
d="M320 570q0 -33 -23.5 -56.5t-56.5 -23.5q-34 0 -57.5 23.5t-23.5 56.5q0 34 23.5 57.5t57.5 23.5q33 0 56.5 -23.5t23.5 -57.5zM421 0q-67 0 -113.5 46.5t-46.5 112.5v321h160v-480zM220 0q-66 0 -113 47t-47 113l1 160q0 67 47 113.5t112 46.5v-480z" />
    <glyph glyph-name="Ccedilla" unicode="&#xc7;" 
d="M420 159q-67 0 -113.5 47t-46.5 113v161h159zM220 0q-66 0 -113 47t-47 113v161q1 66 48 112.5t112 46.5v-480zM420 0q0 -67 -47 -113.5t-113 -46.5v160h160z" />
    <glyph glyph-name="Eacute" unicode="&#xc9;" horiz-adv-x="481" 
d="M380 650q0 -66 -47 -113t-113 -47v160h160zM421 320q-67 0 -113.5 47t-46.5 113q43 1 160 0v-160zM421 160q-67 0 -113.5 47t-46.5 113q43 1 160 0v-160zM420 0h-159q0 66 46.5 113t112.5 47q1 -43 0 -160zM220 0h-160v480h160v-480z" />
    <glyph glyph-name="Ntilde" unicode="&#xd1;" 
d="M416 650q0 -66 -45 -113t-111 -47h-160q0 67 47 113.5t113 46.5h156zM420 0h-160v480q66 0 113 -46.5t47 -113.5v-320zM220 160q0 -66 -47 -113t-113 -47v480h160v-320z" />
    <glyph glyph-name="Odieresis" unicode="&#xd6;" horiz-adv-x="482" 
d="M421 570q0 -33 -23.5 -56.5t-56.5 -23.5q-34 0 -57.5 23.5t-23.5 56.5q0 34 23.5 57.5t57.5 23.5q33 0 56.5 -23.5t23.5 -57.5zM221 570q0 -33 -23.5 -56.5t-56.5 -23.5q-34 0 -57.5 23.5t-23.5 56.5q0 34 23.5 57.5t57.5 23.5q33 0 56.5 -23.5t23.5 -57.5zM422 160
q0 -66 -47 -113t-114 -47v480q67 0 114 -47t47 -113v-160zM221 0q-67 0 -114 47t-47 113v160q0 66 47 113t114 47v-480z" />
    <glyph glyph-name="Udieresis" unicode="&#xdc;" horiz-adv-x="481" 
d="M421 570q0 -34 -23.5 -57.5t-56.5 -23.5t-56.5 23.5t-23.5 57.5q0 33 23.5 56.5t56.5 23.5t56.5 -23.5t23.5 -56.5zM221 570q0 -34 -23.5 -57.5t-56.5 -23.5q-34 0 -57.5 23.5t-23.5 57.5q0 33 23.5 56.5t57.5 23.5q33 0 56.5 -23.5t23.5 -56.5zM421 160q0 -66 -47 -113
t-113 -47v480h160v-320zM221 0q-67 0 -114 47t-47 113v320h160v-480h1z" />
    <glyph glyph-name="aacute" unicode="&#xe1;" horiz-adv-x="479" 
d="M380 490q0 -66 -47 -113t-113 -47v160h160zM419 0h-160v320q67 0 113.5 -46.5t46.5 -113.5v-160zM220 320q0 -66 -47 -113t-113 -47q-1 43 0 160h160zM219 0h-159q0 67 46 113.5t113 46.5q1 -43 0 -160z" />
    <glyph glyph-name="agrave" unicode="&#xe0;" horiz-adv-x="479" 
d="M260 330q-67 0 -113.5 46.5t-46.5 113.5h160v-160zM419 0h-159v321q66 0 112.5 -47t46.5 -113v-161zM220 320q0 -66 -47 -113t-113 -47v160h160zM220 0h-160q0 66 47 113t113 47v-160z" />
    <glyph glyph-name="acircumflex" unicode="&#xe2;" 
d="M400 330h-320q0 67 47 113.5t113 46.5h1q67 0 113 -46.5t46 -113.5zM420 0h-161l1 320q66 0 113 -46.5t47 -113.5v-160zM220 320q0 -66 -47 -113t-113 -47v160h160zM220 0h-160q0 67 46.5 113.5t113.5 46.5v-160z" />
    <glyph glyph-name="adieresis" unicode="&#xe4;" horiz-adv-x="483" 
d="M423 411q0 -34 -23.5 -57.5t-57.5 -23.5q-33 0 -56.5 23.5t-23.5 57.5q0 33 23.5 56.5t56.5 23.5q34 0 57.5 -23.5t23.5 -56.5zM221 411q0 -34 -23.5 -57.5t-56.5 -23.5t-57 24t-24 57t24 56.5t57 23.5t56.5 -23.5t23.5 -56.5zM421 0h-160v321q66 0 113 -47t47 -113v-161
zM221 320q0 -66 -46.5 -113t-112.5 -47q-1 43 0 160h159zM221 0h-160q0 66 47 113t113 47q1 -43 0 -160z" />
    <glyph glyph-name="atilde" unicode="&#xe3;" 
d="M399 490q0 -67 -44.5 -113.5t-110.5 -46.5h-160q0 67 47 113.5t113 46.5h155zM420 0h-160v320q67 0 113.5 -46.5t46.5 -113.5v-160zM220 320q0 -66 -47.5 -113t-112.5 -47q-1 43 0 160h160zM220 0h-160q0 67 46.5 113.5t113.5 46.5v-160z" />
    <glyph glyph-name="aring" unicode="&#xe5;" 
d="M319 410q0 -33 -23.5 -56.5t-56.5 -23.5t-56.5 23.5t-23.5 56.5q0 34 23.5 57.5t56.5 23.5t56.5 -23.5t23.5 -57.5zM420 0h-161l1 320q66 0 113 -46.5t47 -113.5v-160zM220 320q0 -66 -47 -113t-113 -47v160h160zM220 0h-160q0 67 46.5 113.5t113.5 46.5v-160z" />
    <glyph glyph-name="ccedilla" unicode="&#xe7;" horiz-adv-x="460" 
d="M400 161q-67 0 -113.5 46t-46.5 113q43 1 160 0v-159zM200 1q-66 0 -113 46.5t-47 112.5v1q1 66 48 112.5t112 46.5v-319zM400 0q0 -66 -47 -112.5t-113 -46.5v159q163 1 160 0z" />
    <glyph glyph-name="eacute" unicode="&#xe9;" horiz-adv-x="481" 
d="M380 490q0 -66 -46.5 -112.5t-113.5 -46.5v159q163 1 160 0zM421 160q-43 -1 -160 0v160q66 0 113 -46.5t47 -113.5zM220 0q-66 0 -113 47t-47 113v1q0 66 47 112.5t113 46.5v-320z" />
    <glyph glyph-name="egrave" unicode="&#xe8;" 
d="M260 331q-66 0 -113 46.5t-47 112.5q43 1 160 0v-159zM420 160q-43 -1 -160 0v160q66 0 113 -46.5t47 -113.5zM220 0q-67 0 -113.5 47t-46.5 113v1q0 66 47 112.5t113 46.5v-320z" />
    <glyph glyph-name="ecircumflex" unicode="&#xea;" 
d="M400 330h-320q0 66 46.5 113t112.5 47h1q66 0 113 -46.5t47 -113.5zM420 160h-160v160q67 0 113.5 -46.5t46.5 -113.5zM220 0q-67 0 -113.5 47t-46.5 113v1q0 66 47 112.5t113 46.5v-320z" />
    <glyph glyph-name="edieresis" unicode="&#xeb;" horiz-adv-x="482" 
d="M422 401q0 -34 -24 -57.5t-57 -23.5q-34 0 -57 23.5t-23 57.5q0 33 23.5 56.5t56.5 23.5t57 -23.5t24 -56.5zM421 160q-43 -1 -160 0v160q67 0 113.5 -46.5t46.5 -113.5zM221 401q0 -34 -23.5 -57.5t-56.5 -23.5t-57 24t-24 57t24 56.5t57 23.5t56.5 -23.5t23.5 -56.5z
M222 0q-67 0 -113.5 47t-46.5 113v1q0 66 46.5 112.5t112.5 46.5z" />
    <glyph glyph-name="iacute" unicode="&#xed;" horiz-adv-x="280" 
d="M220 490q0 -66 -47 -112.5t-113 -46.5v159q163 1 160 0zM220 0h-160v320h160v-320z" />
    <glyph glyph-name="igrave" unicode="&#xec;" horiz-adv-x="280" 
d="M220 331q-66 0 -113 46.5t-47 112.5q43 1 160 0v-159zM220 0h-160v320h160v-320z" />
    <glyph glyph-name="icircumflex" unicode="&#xee;" horiz-adv-x="440" 
d="M380 330h-320q0 66 47 112.5t113 46.5t113 -46t47 -113zM300 0h-160v320h160v-320z" />
    <glyph glyph-name="idieresis" unicode="&#xef;" horiz-adv-x="461" 
d="M401 410q0 -33 -23.5 -56.5t-56.5 -23.5q-34 0 -57.5 23.5t-23.5 56.5t23.5 57t57.5 24q33 0 56.5 -24t23.5 -57zM221 410q0 -33 -23.5 -56.5t-56.5 -23.5q-34 0 -57.5 23.5t-23.5 56.5t23.5 57t57.5 24q33 0 56.5 -24t23.5 -57zM311 0h-160v320h160v-320z" />
    <glyph glyph-name="ntilde" unicode="&#xf1;" 
d="M396 490q0 -66 -45 -113t-111 -47h-160q0 67 47 113.5t113 46.5h156zM420 -1h-160v321q66 0 113 -47t47 -113v-161zM220 159q0 -66 -46.5 -113t-113.5 -47v321h160v-161z" />
    <glyph glyph-name="oacute" unicode="&#xf3;" horiz-adv-x="440" 
d="M360 490q0 -66 -46.5 -112.5t-113.5 -46.5v159q163 1 160 0zM400 159q0 -66 -47 -112.5t-113 -46.5v320q66 0 113 -46.5t47 -113.5v-1zM200 0q-66 0 -113 47t-47 113v1q0 66 47 112.5t113 46.5v-320z" />
    <glyph glyph-name="ograve" unicode="&#xf2;" horiz-adv-x="440" 
d="M240 331q-66 0 -113 46.5t-47 112.5q43 1 160 0v-159zM400 159q0 -66 -47 -112.5t-113 -46.5v320q66 0 113 -46.5t47 -113.5v-1zM200 0q-66 0 -113 47t-47 113v1q0 66 47 112.5t113 46.5v-320z" />
    <glyph glyph-name="ocircumflex" unicode="&#xf4;" 
d="M400 329l-320 1q0 66 47 112.5t113 46.5t113 -46.5t47 -113.5zM420 159q0 -65 -47 -112t-113 -47v320q66 0 113 -46.5t47 -113.5v-1zM220 0q-67 0 -113.5 47.5t-46.5 113.5t47 112.5t113 46.5v-320z" />
    <glyph glyph-name="odieresis" unicode="&#xf6;" 
d="M420 399q0 -33 -23.5 -56.5t-56.5 -23.5t-56.5 23.5t-23.5 56.5q0 34 23.5 57.5t56.5 23.5t56.5 -23.5t23.5 -57.5zM220 399q0 -33 -23.5 -56.5t-56.5 -23.5t-56.5 23.5t-23.5 56.5q0 34 23.5 57.5t56.5 23.5t56.5 -23.5t23.5 -57.5zM420 159q0 -66 -47 -112.5
t-113 -46.5v320q66 0 113 -46.5t47 -113.5v-1zM220 0q-67 0 -113.5 47t-46.5 113v1q0 66 47 112.5t113 46.5v-320z" />
    <glyph glyph-name="otilde" unicode="&#xf5;" 
d="M415 490q0 -66 -44.5 -113t-110.5 -47h-160q0 67 46.5 113.5t113.5 46.5h155zM420 159q0 -66 -47 -112.5t-113 -46.5v320q66 0 113 -46.5t47 -113.5v-1zM220 0q-67 0 -113.5 47t-46.5 113v1q0 66 47 112.5t113 46.5v-320z" />
    <glyph glyph-name="uacute" unicode="&#xfa;" horiz-adv-x="483" 
d="M380 490q0 -66 -46.5 -112.5t-113.5 -46.5v159q163 1 160 0zM423 160q0 -66 -47 -113t-113 -47v320h160v-160zM220 0q-66 0 -113 47t-47 113v160h160v-320z" />
    <glyph glyph-name="ugrave" unicode="&#xf9;" 
d="M260 331q-66 0 -113 46.5t-47 112.5q43 1 160 0v-159zM420 160q0 -67 -47 -113.5t-113 -46.5v320h160v-160zM220 0q-66 0 -113 47t-47 113v160h160v-320z" />
    <glyph glyph-name="ucircumflex" unicode="&#xfb;" 
d="M400 330h-320q0 66 46.5 112.5t112.5 46.5q67 0 114 -46t47 -113zM420 160q0 -66 -47 -113t-113 -47v320h160v-160zM220 0q-67 0 -113.5 46.5t-46.5 113.5v160h160v-320z" />
    <glyph glyph-name="udieresis" unicode="&#xfc;" 
d="M420 411q0 -34 -23.5 -57.5t-57.5 -23.5q-33 0 -56.5 23.5t-23.5 57.5q0 33 23.5 56.5t56.5 23.5q34 0 57.5 -23.5t23.5 -56.5zM220 410q0 -34 -23.5 -57.5t-56.5 -23.5t-56.5 23.5t-23.5 57.5q0 33 23.5 56.5t56.5 23.5t56.5 -23.5t23.5 -56.5zM419 159q0 -66 -47 -113
t-113 -47v321h160v-161zM220 -1q-67 0 -113.5 47t-46.5 113v161h159z" />
    <glyph glyph-name="cent" unicode="&#xa2;" 
d="M420 399q0 -67 -47 -113.5t-113 -46.5v160h160zM220 0q-67 0 -113.5 47t-46.5 113v1q0 67 46.5 113t113.5 46v-320zM260 79q67 0 113.5 -47t46.5 -113h-160v160z" />
    <glyph glyph-name="sterling" unicode="&#xa3;" 
d="M420 320q-43 -1 -160 0v160q67 0 113.5 -47t46.5 -113zM420 160h-160v160q67 0 113.5 -46.5t46.5 -113.5zM420 0h-160q0 66 46.5 113t113.5 47v-160zM220 0h-160v480h160v-480z" />
    <glyph glyph-name="section" unicode="&#xa7;" horiz-adv-x="453" 
 />
    <glyph glyph-name="paragraph" unicode="&#xb6;" horiz-adv-x="680" 
d="M620 0h-160v480h160v-480zM420 0h-160v480h160v-480zM220 161q-67 0 -113.5 46.5t-46.5 112.5v0q0 66 46.5 113t113.5 47v-319z" />
    <glyph glyph-name="germandbls" unicode="&#xdf;" horiz-adv-x="461" 
d="M421 320q-67 0 -114 47t-47 113h161v-160zM220 0h-160v320q0 67 47 113.5t113 46.5v-480z" />
    <glyph glyph-name="registered" unicode="&#xae;" horiz-adv-x="632" 
d="M572 256q0 -106 -75 -181t-181 -75t-181 75t-75 181t75 181t181 75t181 -75t75 -181zM474 251v128h-128q0 -54 37.5 -91t90.5 -37zM315 123v256h-128v-256h128z" />
    <glyph glyph-name="copyright" unicode="&#xa9;" horiz-adv-x="632" 
d="M572 256q0 -106 -75 -181t-181 -75t-181 75t-75 181t75 181t181 75t181 -75t75 -181zM455 251v128h-128q0 -53 37.5 -90.5t90.5 -37.5zM294 123v256q-52 0 -90 -37t-38 -90v-1q0 -53 37.5 -90.5t90.5 -37.5z" />
    <glyph glyph-name="acute" unicode="&#xb4;" horiz-adv-x="280" 
d="M220 650q0 -66 -47 -113t-113 -47v160h160z" />
    <glyph glyph-name="dieresis" unicode="&#xa8;" horiz-adv-x="481" 
d="M421 561q0 -33 -23.5 -56.5t-56.5 -23.5q-34 0 -57.5 23.5t-23.5 56.5q0 34 23.5 57.5t57.5 23.5q33 0 56.5 -23.5t23.5 -57.5zM221 561q0 -33 -23.5 -56.5t-56.5 -23.5q-34 0 -57.5 23.5t-23.5 56.5q0 34 23.5 57.5t57.5 23.5q33 0 56.5 -23.5t23.5 -57.5z" />
    <glyph glyph-name="AE" unicode="&#xc6;" horiz-adv-x="681" 
d="M620 321q-67 0 -113.5 46.5t-46.5 112.5q46 1 160 1v-160zM621 320l-1 -159q-67 0 -113.5 46.5t-46.5 112.5q44 1 161 0zM619 0h-159q0 66 46.5 113t112.5 47q1 -43 0 -160zM420 0q-66 0 -113 46.5t-47 112.5v321h160v-480zM220 0q-66 0 -113 46.5t-47 113.5v160
q0 67 47 113.5t113 46.5v-480z" />
    <glyph glyph-name="Oslash" unicode="&#xd8;" 
d="M386 652q0 -66 -46.5 -113t-113.5 -47v160h160zM420 159q0 -66 -47 -112.5t-113 -46.5v479q66 0 113 -46.5t47 -112.5v-161zM220 0q-66 0 -113 46.5t-47 112.5v161q0 66 47 112.5t113 46.5v-479zM60 -171q0 66 46.5 113t113.5 47v-160h-160z" />
    <glyph glyph-name="integral" unicode="&#x222b;" horiz-adv-x="680" 
d="M620 320q-67 0 -113.5 47t-46.5 113h160v-160zM420 0q0 -67 -46.5 -114t-113.5 -47v480q0 67 46.5 114t113.5 47v-480zM220 -161q-67 0 -113.5 47t-46.5 113h160v-160z" />
    <glyph glyph-name="ae" unicode="&#xe6;" horiz-adv-x="880" 
d="M820 160h-160v160q67 0 113.5 -47t46.5 -113zM620 0q-67 0 -113.5 47t-46.5 114q0 66 46.5 112t113.5 46v-319zM420 0h-160v320q67 0 113.5 -46.5t46.5 -113.5v-160zM220 320q0 -66 -47 -113t-113 -47v160h160zM220 0h-160q0 67 46.5 113.5t113.5 46.5v-160z" />
    <glyph glyph-name="oslash" unicode="&#xf8;" horiz-adv-x="488" 
d="M385 266q43 -46 43 -109q0 -70 -52 -118q-45 -42 -108 -42q-70 0 -117 51zM336 280l-233 -223q-43 46 -43 109q0 70 51 118q49 45 113 45q67 0 112 -49z" />
    <glyph glyph-name="questiondown" unicode="&#xbf;" 
d="M300 400q0 -33 -23.5 -56.5t-56.5 -23.5t-56.5 23.5t-23.5 56.5t23.5 56.5t56.5 23.5t56.5 -23.5t23.5 -56.5zM420 159q0 -65 -47 -112t-113 -47v160q160 0 160 -1zM220 0q-66 0 -113 47t-47 112v1q0 66 47 112.5t113 46.5v-319z" />
    <glyph glyph-name="exclamdown" unicode="&#xa1;" horiz-adv-x="281" 
d="M221 400q0 -33 -24 -56.5t-57 -23.5t-56.5 23.5t-23.5 56.5q0 34 23.5 57.5t56.5 23.5t57 -23.5t24 -57.5zM220 0h-159v161q0 66 46 112.5t113 46.5v-320z" />
    <glyph glyph-name="florin" unicode="&#x192;" horiz-adv-x="680" 
d="M620 320q-67 0 -113.5 47t-46.5 113h160v-160zM620 159q-66 0 -113 47t-47 113h160v-160zM420 -1q0 -67 -47 -113.5t-113 -46.5v481q0 67 47 113.5t113 46.5v-481zM220 -161q-67 0 -113.5 47t-46.5 113h160v-160z" />
    <glyph glyph-name="guillemotleft" unicode="&#xab;" horiz-adv-x="478" 
d="M418 0q-65 0 -112 47t-47 112v1q0 67 46.5 113.5t112.5 46.5v-320zM219 0q-65 0 -112 46.5t-47 112.5v1q0 66 46.5 113t112.5 47v-320z" />
    <glyph glyph-name="guillemotright" unicode="&#xbb;" horiz-adv-x="478" 
d="M418 159q0 -66 -47 -112.5t-112 -46.5v320q66 0 112.5 -47t46.5 -113v-1zM219 159q0 -65 -47 -112t-112 -47v320q66 0 112.5 -46.5t46.5 -113.5v-1z" />
    <glyph glyph-name="ellipsis" unicode="&#x2026;" horiz-adv-x="920" 
d="M860 0h-160q-1 163 0 160q66 0 113 -47t47 -113zM540 80q0 -34 -23.5 -57.5t-56.5 -23.5q-34 0 -57 23.5t-23 57.5q0 33 23 56.5t57 23.5q33 0 56.5 -23.5t23.5 -56.5zM220 0h-160v160h160v-160z" />
    <glyph glyph-name="nonbreakingspace" unicode="&#xa0;" horiz-adv-x="287" 
 />
    <glyph glyph-name="Agrave" unicode="&#xc0;" 
d="M260 490q-67 0 -113.5 47t-46.5 113h160v-160zM420 0q-67 0 -113.5 46.5t-46.5 112.5v321h160v-480zM220 0q-66 0 -113 47t-47 113l1 160q0 67 47 113.5t112 46.5v-480z" />
    <glyph glyph-name="Atilde" unicode="&#xc3;" horiz-adv-x="481" 
d="M415 650q0 -67 -44.5 -113.5t-110.5 -46.5h-160q0 67 46.5 113.5t113.5 46.5h155zM421 0q-67 0 -113.5 46.5t-46.5 112.5v321h160v-480zM220 0q-66 0 -113 47t-47 113l1 160q0 67 47 113.5t112 46.5v-480z" />
    <glyph glyph-name="Otilde" unicode="&#xd5;" horiz-adv-x="484" 
d="M424 650q0 -66 -47 -113t-113 -47h-160q0 67 46.5 113.5t113.5 46.5h160zM420 159q0 -66 -47 -112.5t-113 -46.5v479q66 0 113 -46.5t47 -112.5v-161zM220 0q-66 0 -113 46.5t-47 112.5v161q0 66 47 112.5t113 46.5v-479z" />
    <glyph glyph-name="OE" unicode="&#x152;" horiz-adv-x="679" 
d="M619 320q-67 0 -113.5 47t-46.5 113q43 1 160 0v-160zM619 160q-67 0 -113.5 47t-46.5 113q43 1 160 0v-160zM619 0h-159q0 66 46.5 113t112.5 47q1 -43 0 -160zM420 161q0 -66 -47 -112.5t-113 -46.5v479q66 0 113 -46.5t47 -112.5v-161zM220 2q-66 0 -113 46.5
t-47 112.5v161q0 66 47 112.5t113 46.5v-479z" />
    <glyph glyph-name="oe" unicode="&#x153;" horiz-adv-x="879" 
d="M819 160h-160v160q67 0 113.5 -46.5t46.5 -113.5zM620 0q-68 0 -114 47t-46 114q0 66 46.5 112.5t113.5 46.5v-320zM420 159q0 -66 -46.5 -112t-113.5 -46v320q67 0 113.5 -47.5t46.5 -114.5zM220 0q-67 0 -113.5 47t-46.5 114q0 66 47 113t113 47v-321z" />
    <glyph glyph-name="endash" unicode="&#x2013;" horiz-adv-x="500" 
d="M440 320q0 -67 -46.5 -113.5t-113.5 -46.5h-220q0 66 47 113t113 47h220z" />
    <glyph glyph-name="emdash" unicode="&#x2014;" horiz-adv-x="680" 
d="M620 320q0 -66 -46.5 -113t-113.5 -47h-400q0 66 47 113t113 47h400z" />
    <glyph glyph-name="quotedblleft" unicode="&#x201c;" horiz-adv-x="446" 
d="M386 320q-66 0 -113 47t-47 113q43 1 160 0v-160zM220 320q-66 0 -113 47t-47 113q43 1 160 0v-160z" />
    <glyph glyph-name="quotedblright" unicode="&#x201d;" horiz-adv-x="441" 
d="M381 480q0 -66 -47 -113t-113 -47v160q163 1 160 0zM220 480q0 -66 -47 -113t-113 -47v160q163 1 160 0z" />
    <glyph glyph-name="quoteleft" unicode="&#x2018;" horiz-adv-x="280" 
d="M220 320q-66 0 -113 47t-47 113q43 1 160 0v-160z" />
    <glyph glyph-name="quoteright" unicode="&#x2019;" horiz-adv-x="280" 
d="M220 480q0 -66 -47 -113t-113 -47v160q163 1 160 0z" />
    <glyph glyph-name="divide" unicode="&#xf7;" horiz-adv-x="599" 
d="M381 410q0 -33 -23 -56.5t-57 -23.5q-33 0 -56.5 23.5t-23.5 56.5q0 34 23.5 57.5t56.5 23.5q34 0 57 -23.5t23 -57.5zM539 160h-479v159h479v-159zM379 66q0 -33 -23 -56.5t-57 -23.5q-33 0 -56.5 23.5t-23.5 56.5q0 34 23.5 57.5t56.5 23.5q34 0 57 -23.5t23 -57.5z
" />
    <glyph glyph-name="lozenge" unicode="&#x25ca;" horiz-adv-x="1060" 
 />
    <glyph glyph-name="ydieresis" unicode="&#xff;" horiz-adv-x="481" 
d="M421 410q0 -33 -23.5 -56.5t-57.5 -23.5q-33 0 -56.5 23.5t-23.5 56.5t23.5 56.5t56.5 23.5q34 0 57.5 -23.5t23.5 -56.5zM221 410q0 -33 -23.5 -56.5t-56.5 -23.5t-57 23.5t-24 56.5t24 56.5t57 23.5t56.5 -23.5t23.5 -56.5zM421 0q0 -66 -46.5 -113t-113.5 -47v480h160
v-320zM221 0q-66 0 -113 47t-47 113v160h160v-320z" />
    <glyph glyph-name="Ydieresis" unicode="&#x178;" horiz-adv-x="482" 
d="M422 571q0 -33 -23.5 -56.5t-57.5 -23.5q-33 0 -56.5 23.5t-23.5 56.5t23.5 56.5t56.5 23.5q34 0 57.5 -23.5t23.5 -56.5zM221 570q0 -33 -23.5 -56.5t-56.5 -23.5t-57 23.5t-24 56.5t24 56.5t57 23.5t56.5 -23.5t23.5 -56.5zM421 160q0 -66 -47 -113t-113 -47v480h160
v-320zM221 160q-66 0 -113 46.5t-47 113.5v160h160v-320z" />
    <glyph glyph-name="fraction" unicode="&#x2044;" horiz-adv-x="280" 
d="M220 800q-66 0 -113 -47t-47 -113v-640q66 0 113 47t47 113v640z" />
    <glyph glyph-name="guilsinglleft" unicode="&#x2039;" horiz-adv-x="279" 
d="M219 0q-65 0 -112 46.5t-47 112.5v1q0 66 46.5 113t112.5 47v-320z" />
    <glyph glyph-name="guilsinglright" unicode="&#x203a;" horiz-adv-x="280" 
d="M220 159q0 -66 -47 -112.5t-112 -46.5l-1 320q67 0 113.5 -47t46.5 -113v-1z" />
    <glyph glyph-name="fi" unicode="&#xf001;" horiz-adv-x="481" 
d="M421 481l-1 -160q-67 0 -113.5 47t-46.5 113h161zM420 0h-160v320h160v-320zM220 0h-160v320q0 67 47 113.5t113 46.5v-480z" />
    <glyph glyph-name="fl" unicode="&#xf002;" 
d="M220 0h-160v320q0 67 47 113.5t113 46.5v-480zM420 0q-66 0 -113 47t-47 113v320h160v-480z" />
    <glyph glyph-name="daggerdbl" unicode="&#x2021;" horiz-adv-x="1060" 
 />
    <glyph glyph-name="periodcentered" unicode="&#xb7;" horiz-adv-x="281" 
d="M221 240q0 -33 -23.5 -56.5t-56.5 -23.5t-57 24t-24 56q0 33 24 56.5t57 23.5t56.5 -23.5t23.5 -56.5z" />
    <glyph glyph-name="periodcentered" unicode="&#x2219;" horiz-adv-x="281" 
d="M221 240q0 -33 -23.5 -56.5t-56.5 -23.5t-57 24t-24 56q0 33 24 56.5t57 23.5t56.5 -23.5t23.5 -56.5z" />
    <glyph glyph-name="quotesinglbase" unicode="&#x201a;" horiz-adv-x="280" 
d="M220 160q0 -66 -47 -113t-113 -47v160q163 1 160 0z" />
    <glyph glyph-name="quotedblbase" unicode="&#x201e;" horiz-adv-x="441" 
d="M381 160q0 -66 -47 -113t-113 -47v160q163 1 160 0zM220 160q0 -66 -47 -113t-113 -47v160q163 1 160 0z" />
    <glyph glyph-name="perthousand" unicode="&#x2030;" horiz-adv-x="780" 
d="M720 78q0 -33 -23.5 -57.5t-56.5 -24.5t-56.5 24.5t-23.5 57.5q0 34 23.5 57.5t56.5 23.5t56.5 -23.5t23.5 -57.5zM220 398q0 -33 -23 -56.5t-57 -23.5q-33 0 -56.5 23.5t-23.5 56.5q0 34 23.5 57.5t56.5 23.5t56.5 -23.5t23.5 -57.5zM540 78q0 -33 -23.5 -57.5
t-56.5 -24.5t-56.5 24.5t-23.5 57.5q0 34 23.5 57.5t56.5 23.5t56.5 -23.5t23.5 -57.5zM379 158q0 -66 -47 -113t-113 -47v321q0 66 46.5 112.5t113.5 46.5v-320z" />
    <glyph glyph-name="Acircumflex" unicode="&#xc2;" horiz-adv-x="481" 
d="M401 490h-320q0 66 47 113t113 47h1q66 0 112.5 -47t46.5 -113zM421 0q-67 0 -113.5 46.5t-46.5 112.5v321h160v-480zM220 0q-66 0 -113 47t-47 113l1 160q0 67 47 113.5t112 46.5v-480z" />
    <glyph glyph-name="Ecircumflex" unicode="&#xca;" 
d="M401 490h-321q0 66 47.5 113t113.5 47q67 0 113.5 -46.5t46.5 -113.5zM420 320q-67 0 -113.5 47t-46.5 113q43 1 160 0v-160zM420 160q-67 0 -113.5 47t-46.5 113q43 1 160 0v-160zM420 0h-159q0 66 46.5 113t112.5 47q1 -43 0 -160zM220 0h-160v480h160v-480z" />
    <glyph glyph-name="Aacute" unicode="&#xc1;" 
d="M380 650q0 -66 -46.5 -113t-113.5 -47v160h160zM420 0q-67 0 -113.5 46.5t-46.5 112.5v321h160v-480zM220 0q-66 0 -113 47t-47 113l1 160q0 67 47 113.5t112 46.5v-480z" />
    <glyph glyph-name="Edieresis" unicode="&#xcb;" horiz-adv-x="483" 
d="M423 570q0 -33 -23.5 -56.5t-56.5 -23.5q-34 0 -57.5 23.5t-23.5 56.5q0 34 23.5 57.5t57.5 23.5q33 0 56.5 -23.5t23.5 -57.5zM421 320q-67 0 -113.5 47t-46.5 113q43 1 160 0v-160zM221 570q0 -33 -23.5 -56.5t-56.5 -23.5q-34 0 -57.5 23.5t-23.5 56.5q0 34 23.5 57.5
t57.5 23.5q33 0 56.5 -23.5t23.5 -57.5zM421 160q-67 0 -113.5 47t-46.5 113q43 1 160 0v-160zM421 0h-159q0 66 46.5 113t112.5 47q1 -43 0 -160zM221 0h-160v480h160v-480z" />
    <glyph glyph-name="Egrave" unicode="&#xc8;" horiz-adv-x="481" 
d="M261 490q-67 0 -113.5 47t-46.5 113h160v-160zM421 320q-67 0 -113.5 47t-46.5 113q43 1 160 0v-160zM421 160q-67 0 -113.5 47t-46.5 113q43 1 160 0v-160zM420 0h-159q0 66 46.5 113t112.5 47q1 -43 0 -160zM220 0h-160v480h160v-480z" />
    <glyph glyph-name="Iacute" unicode="&#xcd;" horiz-adv-x="280" 
d="M220 639q0 -66 -46.5 -112.5t-113.5 -46.5v159q163 1 160 0zM220 160q0 -66 -47 -113t-113 -47v480h160v-320z" />
    <glyph glyph-name="Icircumflex" unicode="&#xce;" horiz-adv-x="440" 
d="M380 490h-320q0 66 47 113t113 47q67 0 113.5 -46.5t46.5 -113.5zM300 160q0 -66 -47 -113t-113 -47v480h160v-320z" />
    <glyph glyph-name="Idieresis" unicode="&#xcf;" horiz-adv-x="461" 
d="M401 560q0 -33 -23.5 -56.5t-56.5 -23.5q-34 0 -57.5 23.5t-23.5 56.5q0 34 23.5 57.5t57.5 23.5q33 0 56.5 -23.5t23.5 -57.5zM221 560q0 -33 -23.5 -56.5t-56.5 -23.5q-34 0 -57.5 23.5t-23.5 56.5q0 34 23.5 57.5t57.5 23.5q33 0 56.5 -23.5t23.5 -57.5zM311 160
q0 -66 -47 -113t-113 -47v480h160v-320z" />
    <glyph glyph-name="Igrave" unicode="&#xcc;" horiz-adv-x="281" 
d="M221 490q-67 0 -113.5 47t-46.5 113h160v-160zM221 160q0 -66 -47.5 -113t-113.5 -47v480h161v-320z" />
    <glyph glyph-name="Oacute" unicode="&#xd3;" 
d="M380 651q0 -66 -47 -113t-113 -47v160h160zM420 159q0 -66 -47 -112.5t-113 -46.5v479q66 0 113 -46.5t47 -112.5v-161zM220 0q-66 0 -113 46.5t-47 112.5v161q0 66 47 112.5t113 46.5v-479z" />
    <glyph glyph-name="Ocircumflex" unicode="&#xd4;" 
d="M400 490h-320q0 67 47 113.5t114 46.5q66 0 112.5 -47t46.5 -113zM420 159q0 -66 -47 -112.5t-113 -46.5v479q66 0 113 -46.5t47 -112.5v-161zM220 0q-66 0 -113 46.5t-47 112.5v161q0 66 47 112.5t113 46.5v-479z" />
    <glyph glyph-name="Ograve" unicode="&#xd2;" 
d="M260 490q-67 0 -113.5 47t-46.5 113h160v-160zM420 160q0 -66 -47 -112.5t-113 -46.5v479q66 0 113 -46.5t47 -112.5v-161zM220 1q-66 0 -113 46.5t-47 112.5v161q0 66 47 112.5t113 46.5v-479z" />
    <glyph glyph-name="Uacute" unicode="&#xda;" 
d="M381 650q0 -66 -47 -113t-114 -47v160h161zM420 160q0 -66 -47 -113t-113 -47v480h160v-320zM221 0q-67 0 -114 47t-47 113v320h160v-480h1z" />
    <glyph glyph-name="Ucircumflex" unicode="&#xdb;" horiz-adv-x="481" 
d="M400 490h-320q0 67 47 113.5t114 46.5q66 0 112.5 -47t46.5 -113zM421 160q0 -66 -47 -113t-113 -47v480h160v-320zM221 0q-67 0 -114 47t-47 113v320h160v-480h1z" />
    <glyph glyph-name="Ugrave" unicode="&#xd9;" horiz-adv-x="481" 
d="M261 490q-67 0 -113.5 47t-46.5 113h160v-160zM421 160q0 -66 -47 -113t-113 -47v480h160v-320zM221 0q-67 0 -114 47t-47 113v320h160v-480h1z" />
    <glyph glyph-name="dotlessi" unicode="&#x131;" horiz-adv-x="280" 
d="M220 0h-160v320h160v-320z" />
    <glyph glyph-name="circumflex" unicode="&#x2c6;" horiz-adv-x="440" 
d="M380 480h-320q0 66 47 113t113 47q67 0 113.5 -46.5t46.5 -113.5z" />
    <glyph glyph-name="tilde" unicode="&#x2dc;" horiz-adv-x="436" 
d="M376 650q0 -66 -45 -113t-111 -47h-160q0 67 47 113.5t113 46.5h156z" />
    <glyph glyph-name="macron" unicode="&#xaf;" horiz-adv-x="438" 
d="M378 480l-318 1v159l318 -1v-159z" />
    <glyph glyph-name="macron" unicode="&#x2c9;" horiz-adv-x="438" 
d="M378 480l-318 1v159l318 -1v-159z" />
    <glyph glyph-name="breve" unicode="&#x2d8;" horiz-adv-x="440" 
d="M380 640q0 -67 -46.5 -113.5t-113.5 -46.5q-66 0 -113 47t-47 113h320z" />
    <glyph glyph-name="dotaccent" unicode="&#x2d9;" horiz-adv-x="281" 
d="M221 560q0 -33 -23.5 -56.5t-56.5 -23.5q-34 0 -57.5 23.5t-23.5 56.5q0 34 23.5 57.5t57.5 23.5q33 0 56.5 -23.5t23.5 -57.5z" />
    <glyph glyph-name="ring" unicode="&#x2da;" horiz-adv-x="281" 
d="M221 560q0 -33 -23.5 -56.5t-56.5 -23.5q-34 0 -57.5 23.5t-23.5 56.5q0 34 23.5 57.5t57.5 23.5q33 0 56.5 -23.5t23.5 -57.5z" />
    <glyph glyph-name="cedilla" unicode="&#xb8;" horiz-adv-x="280" 
d="M220 0q0 -67 -47 -113.5t-113 -46.5v160h160z" />
    <glyph glyph-name="hungarumlaut" unicode="&#x2dd;" horiz-adv-x="441" 
d="M381 640q0 -66 -47 -113t-113 -47v160q163 1 160 0zM220 640q0 -66 -47 -113t-113 -47v160q163 1 160 0z" />
    <glyph glyph-name="ogonek" unicode="&#x2db;" horiz-adv-x="280" 
d="M220 -160q-66 0 -113 46.5t-47 113.5h160v-160z" />
    <glyph glyph-name="caron" unicode="&#x2c7;" horiz-adv-x="440" 
d="M380 640q0 -66 -46.5 -113t-112.5 -47h-1q-66 0 -113 47t-47 113h320z" />
    <glyph glyph-name="Lslash" unicode="&#x141;" horiz-adv-x="680" 
d="M620 399q0 -66 -47 -113t-113 -47v160q164 1 160 0zM620 0h-160q0 66 46.5 113t113.5 47v-160zM420 0h-160v480h160v-480zM220 160q-163 -1 -160 0q0 66 47 113t113 47v-160z" />
    <glyph glyph-name="lslash" unicode="&#x142;" horiz-adv-x="680" 
d="M620 399q0 -66 -47 -113t-113 -47v160q164 1 160 0zM420 0h-160v480h160v-480zM220 160q-163 -1 -160 0q0 66 47 113t113 47v-160z" />
    <glyph glyph-name="Scaron" unicode="&#x160;" 
d="M400 640q0 -66 -46.5 -113t-112.5 -47h-1q-66 0 -113 47t-47 113h320zM420 320q-66 0 -113 47t-47 113h160v-160zM420 160q0 -66 -47 -112.5t-113 -46.5v319q66 0 113 -46.5t47 -112.5v-1zM220 160q-66 0 -113 47t-47 113q0 67 46.5 113.5t113.5 46.5v-320zM220 0h-160
v160q66 0 113 -47t47 -113z" />
    <glyph glyph-name="scaron" unicode="&#x161;" 
d="M400 490q0 -67 -46.5 -113.5t-113.5 -46.5q-66 0 -113 47t-47 113h320zM420 240q0 -33 -23.5 -56.5t-56.5 -23.5t-56.5 23.5t-23.5 56.5q0 34 23.5 57.5t56.5 23.5t56.5 -23.5t23.5 -57.5zM420 160q0 -66 -47 -113t-113 -47v160h160zM220 160h-160q0 67 46.5 113.5
t113.5 46.5v-160zM220 70q0 -33 -23.5 -56.5t-56.5 -23.5t-56.5 23.5t-23.5 56.5q0 34 23.5 57t56.5 23t56.5 -23t23.5 -57z" />
    <glyph glyph-name="Zcaron" unicode="&#x17d;" 
d="M400 650q0 -66 -46.5 -113t-113.5 -47h-1q-66 0 -112.5 47t-46.5 113h320zM420 320q0 -66 -47 -113t-113 -47v320l160 1v-161zM220 480q0 -65 -46.5 -112t-113.5 -47v160q160 0 160 -1zM420 0q-160 0 -160 1q0 66 47 112.5t113 46.5v-160zM220 0h-160v161q0 66 47 113
t113 47v-321z" />
    <glyph glyph-name="zcaron" unicode="&#x17e;" horiz-adv-x="680" 
d="M500 490q0 -66 -46.5 -113t-112.5 -47h-1q-66 0 -113 47t-47 113h320zM620 0h-160q0 67 47 113.5t113 46.5v-160zM420 0h-160v320h160v-320zM220 320q0 -66 -46.5 -113t-113.5 -47v160h160z" />
    <glyph glyph-name="brokenbar" unicode="&#xa6;" horiz-adv-x="280" 
d="M220 320h-160v320h160v-320zM220 -160h-160v320h160v-320z" />
    <glyph glyph-name="Eth" unicode="&#xd0;" horiz-adv-x="680" 
d="M620 160q0 -66 -47 -113t-113 -47v480q66 0 112.5 -47t46.5 -113zM420 0h-160v480h160v-480zM220 160q-163 -1 -160 0q0 66 47 113t113 47v-160z" />
    <glyph glyph-name="Yacute" unicode="&#xdd;" 
d="M380 650q0 -66 -46.5 -112.5t-113.5 -46.5v159q163 1 160 0zM420 160q0 -66 -46.5 -113t-113.5 -47v480h160v-320zM220 160q-66 0 -113 47t-47 113v160h160v-320z" />
    <glyph glyph-name="Thorn" unicode="&#xde;" 
d="M420 237q0 -66 -47 -113t-113 -47v319q66 0 112.5 -46.5t47.5 -112.5zM220 0h-160v480h160v-480z" />
    <glyph glyph-name="thorn" unicode="&#xfe;" 
d="M420 161q0 -66 -47 -113t-113 -47v319q66 0 112.5 -46.5t47.5 -112.5zM220 -76h-160v480h160v-480z" />
    <glyph glyph-name="minus" unicode="&#xad;" horiz-adv-x="440" 
d="M380 320v-160h-320v160h320z" />
    <glyph glyph-name="minus" unicode="&#x2212;" horiz-adv-x="440" 
d="M380 320v-160h-320v160h320z" />
    <glyph glyph-name="DLE" horiz-adv-x="460" 
 />
    <glyph glyph-name="DEL" horiz-adv-x="1060" 
 />
  </font>
</defs>
</svg>
