<?xml version="1.0" encoding="UTF-8" standalone="no"?>
<!-- Created with Inkscape (http://www.inkscape.org/) -->

<svg
   width="190mm"
   height="280mm"
   viewBox="0 0 190 280"
   version="1.1"
   id="svg4450"
   inkscape:version="1.2.2 (b0a8486541, 2022-12-01)"
   sodipodi:docname="INLAWS.svg"
   xmlns:inkscape="http://www.inkscape.org/namespaces/inkscape"
   xmlns:sodipodi="http://sodipodi.sourceforge.net/DTD/sodipodi-0.dtd"
   xmlns="http://www.w3.org/2000/svg"
   xmlns:svg="http://www.w3.org/2000/svg">
  <sodipodi:namedview
     id="namedview4452"
     pagecolor="#ffffff"
     bordercolor="#000000"
     borderopacity="0.25"
     inkscape:showpageshadow="2"
     inkscape:pageopacity="0.0"
     inkscape:pagecheckerboard="0"
     inkscape:deskcolor="#d1d1d1"
     inkscape:document-units="mm"
     showgrid="false"
     inkscape:zoom="0.72782688"
     inkscape:cx="208.1539"
     inkscape:cy="221.20645"
     inkscape:window-width="1920"
     inkscape:window-height="988"
     inkscape:window-x="0"
     inkscape:window-y="29"
     inkscape:window-maximized="1"
     inkscape:current-layer="layer8" />
  <defs
     id="defs4447" />
  <g
     inkscape:groupmode="layer"
     id="layer5"
     inkscape:label="Base"
     style="display:inline">
    <path
       style="fill:#ffff00;fill-opacity:1;stroke:#ffff00;stroke-width:4;stroke-dasharray:none;stroke-opacity:1"
       d="M 104.05169,278.43932 C 99.1759,274.67151 90.81522,267.94922 85.47241,263.50091 80.1296,259.0526 73.6354,253.74646 71.04087,251.7095 64.67674,246.71302 54.35143,237.60543 48.89956,232.17944 41.32332,224.63913 35.31927,215.88745 31.43015,206.71547 26.09309,194.12874 25.63768,190.9569 25.97553,168.72518 c 0.1578,-10.3823 0.0814,-17.86031 -0.21802,-21.34245 -0.67603,-7.86196 -1.28471,-42.81121 -1.39496,-80.095106 l -0.0966,-32.677224 85.04294,1.14e-4 85.04296,1.14e-4 v 73.228292 73.22829 l -1.25545,7.45193 c -2.56095,15.20094 -3.8486,20.2102 -6.8094,26.49042 -2.36474,5.01588 -7.72382,11.43642 -13.35489,16.00005 -1.71262,1.38797 -5.14501,4.35907 -7.62757,6.60246 -2.48253,2.24338 -6.37902,5.58301 -8.65891,7.4214 -2.27986,1.83838 -7.48705,6.59579 -11.5715,10.57202 -12.50212,12.17086 -31.3772,29.71102 -31.95119,29.69144 -0.11337,-0.004 -4.19544,-3.08979 -9.07123,-6.85761 z"
       id="path7779"
       transform="translate(-14.30594,-19.954241)" />
  </g>
  <g
     inkscape:groupmode="layer"
     id="layer6"
     inkscape:label="Rahmen"
     style="display:inline">
    <path
       style="fill:#000000;fill-opacity:1;stroke-width:0.352778"
       d="m 108.07332,287.45187 c -6.83358,-4.89294 -18.59462,-14.41573 -32.60523,-26.40012 -2.05071,-1.75414 -6.41634,-5.28092 -9.70138,-7.83728 -3.28505,-2.55637 -7.48094,-5.90134 -9.32421,-7.43326 -1.84326,-1.53192 -5.52401,-4.24819 -8.17944,-6.03615 -3.9614,-2.66729 -5.41068,-3.89766 -8.07384,-6.85425 -8.34243,-9.26161 -11.50912,-14.52199 -15.33608,-25.47564 -0.74567,-2.1343 -1.45381,-3.95993 -1.57363,-4.05694 -0.11981,-0.097 -0.22213,-0.49389 -0.22737,-0.88195 -0.005,-0.38805 -0.43943,-2.58327 -0.9649,-4.87826 -0.52546,-2.295 -1.03016,-5.70812 -1.12154,-7.58473 -0.56521,-11.60639 -1.22795,-34.51308 -1.02109,-35.29254 0.13542,-0.51029 0.2178,-28.4326 0.18305,-62.049589 -0.0518,-50.103611 0.0201,-61.15046 0.39875,-61.280875 0.25406,-0.0875 2.92256,-0.372191 5.92999,-0.63264 6.065,-0.52524 169.30877,-0.321275 170.43206,0.212947 1.37094,0.651997 1.37015,0.623807 1.38939,49.549366 0.0103,26.136111 0.15287,56.807081 0.31687,68.157711 0.34803,24.08825 0.0154,29.29858 -2.98213,46.71237 -4.06496,23.61488 -8.55019,30.05689 -38.45204,55.22766 -7.30631,6.1503 -12.03129,10.52446 -20.28472,18.77857 -5.91785,5.91835 -12.4949,12.23538 -14.61566,14.03786 -8.13179,6.91136 -9.5748,7.32002 -14.18685,4.01774 z m 16.44356,-12.29289 c 5.73027,-5.23299 13.5143,-12.63013 17.29784,-16.4381 7.33112,-7.37844 10.96147,-10.68373 16.05139,-14.61413 1.74625,-1.34845 5.15937,-4.33385 7.58472,-6.63423 2.42535,-2.30039 5.36143,-4.84498 6.52464,-5.65465 4.12134,-2.86875 10.65002,-10.16857 13.1483,-14.70131 1.39601,-2.53285 3.33582,-7.48714 4.48912,-11.46527 0.85936,-2.96425 4.28418,-22.13298 4.44361,-24.87084 0.0395,-0.6791 0.0488,-33.89754 0.0206,-73.81875 L 194.0258,34.377661 H 108.80852 23.59125 l 0.17766,43.127088 c 0.18191,44.157771 0.48248,60.012141 1.3259,69.938201 0.53161,6.25638 0.54469,22.03856 0.0249,30.03889 -0.17837,2.74541 -0.20142,5.92041 -0.0512,7.05555 0.1502,1.13514 0.44658,3.8247 0.65862,5.97678 0.41769,4.23926 1.35881,7.41253 4.5778,15.43545 3.52786,8.79274 9.0159,17.26447 15.84766,24.46361 5.57006,5.86958 20.16319,18.73053 26.87045,23.68096 2.88987,2.13294 7.44004,5.8869 15.875,13.09714 3.00743,2.57076 8.88118,7.25545 13.05278,10.41043 4.17159,3.15496 8.28075,6.31988 9.13146,7.03314 1.50524,1.26203 1.56646,1.27995 2.28132,0.66772 0.40402,-0.34601 5.42299,-4.91064 11.15326,-10.14364 z"
       id="path2762"
       transform="translate(-14.30594,-19.954241)" />
  </g>
  <g
     inkscape:groupmode="layer"
     id="layer7"
     inkscape:label="Strahlen"
     style="display:inline">
    <g
       id="g11802"
       transform="translate(-14.30594,-19.954241)">
      <path
         style="fill:#000098;fill-opacity:1;stroke-width:0.352778"
         d="m 107.04831,152.63339 c -0.1106,-0.52641 -0.26936,-1.27461 -0.35281,-1.66267 -0.0835,-0.38805 -0.23789,-2.84868 -0.34321,-5.46805 -0.10532,-2.61938 -0.26033,-5.31813 -0.34447,-5.99722 -0.0841,-0.6791 -0.25925,-2.92825 -0.38914,-4.99812 l -0.23617,-3.76339 1.79019,-1.81865 1.79019,-1.81865 1.46499,2.31965 c 0.80574,1.2758 2.02879,2.78438 2.71789,3.35239 l 1.25289,1.03274 -0.36255,3.1116 c -0.1994,1.71137 -0.80479,6.14457 -1.34531,9.85155 l -0.98276,6.73995 -2.22932,0.038 c -2.1523,0.0367 -2.23627,0.005 -2.43041,-0.91912 z"
         id="path6181" />
      <path
         style="fill:#000098;fill-opacity:1;stroke-width:0.352778"
         d="m 125.76333,155.05066 c -0.76627,-0.14764 -1.09075,-0.43234 -1.17582,-1.03167 -0.17397,-1.22577 1.43914,-13.42278 2.22275,-16.8066 0.13889,-0.59974 0.4952,-0.71976 2.37587,-0.80025 1.21686,-0.0521 2.74398,-0.24146 3.3936,-0.42083 0.87746,-0.24227 1.14141,-0.21793 1.02667,0.0947 -0.0849,0.23145 -1.53991,4.5865 -3.23324,9.67787 -3.3574,10.09473 -3.10068,9.57756 -4.60983,9.28678 z"
         id="path6179" />
      <path
         style="fill:#000098;fill-opacity:1;stroke-width:0.352778"
         d="m 91.05502,150.90969 c -0.90725,-3.93371 -2.68998,-10.92358 -3.846,-15.07972 -0.15354,-0.55204 -0.064,-0.62702 0.4858,-0.40659 0.37074,0.14865 1.97013,0.3557 3.5542,0.46012 l 2.88013,0.18984 0.20541,1.09869 c 0.11297,0.60428 0.29537,1.81307 0.40531,2.68619 0.10995,0.87313 0.58677,4.39875 1.0596,7.83472 1.08256,7.86672 1.13993,7.19779 -0.63961,7.45839 -0.82462,0.12076 -1.83242,0.31331 -2.23957,0.42789 -0.69115,0.1945 -0.8149,-0.11532 -1.86527,-4.66953 z"
         id="path6177" />
      <path
         style="fill:#000098;fill-opacity:1;stroke-width:0.352778"
         d="m 78.71532,158.29086 c -0.36964,-0.7276 -1.5638,-3.57646 -2.65369,-6.33079 -1.08988,-2.75434 -3.13715,-7.27871 -4.54949,-10.05417 -3.37357,-6.62959 -6.35212,-13.25774 -10.03571,-22.3324 -1.65396,-4.07458 -3.95449,-9.45559 -5.11228,-11.95779 -1.1578,-2.5022 -2.78987,-6.3122 -3.62683,-8.466669 -0.83696,-2.15446 -2.33006,-5.7966 -3.318,-8.09363 -0.98794,-2.29704 -1.79626,-4.24173 -1.79626,-4.32153 0,-0.0798 3.65125,-0.1451 8.11389,-0.1451 h 8.11389 v 0.90182 c 0,1.28249 3.29667,16.716239 4.78071,22.381509 1.74172,6.64891 2.79799,10.97249 4.17998,17.10972 3.20883,14.25002 5.17392,20.86878 8.31325,28.00044 0.8004,1.81829 1.40839,3.34942 1.35109,3.40251 -0.13464,0.12471 -2.79636,1.229 -2.96234,1.229 -0.0694,0 -0.42857,-0.59531 -0.79821,-1.32292 z"
         id="path6175" />
      <path
         style="fill:#000098;fill-opacity:1;stroke-width:0.352778"
         d="m 139.94573,159.68082 c -0.77851,-0.30705 -1.27026,-0.70969 -1.17379,-0.96109 0.64186,-1.67267 2.70146,-10.81515 3.04415,-13.51289 0.56764,-4.46858 1.58608,-8.85516 5.09129,-21.92917 1.63863,-6.11188 3.31109,-12.93813 3.71657,-15.16945 1.05132,-5.78526 2.08746,-10.403999 2.92798,-13.051879 0.40018,-1.26069 1.05833,-3.64194 1.46256,-5.29167 l 0.73495,-2.9995 8.41002,-0.0947 c 4.62552,-0.0521 8.35614,0.0359 8.29028,0.19557 -1.26679,3.0703 -2.71958,6.22063 -4.99673,10.83519 -1.72153,3.488629 -3.63326,8.137109 -5.00536,12.170839 -1.221,3.58951 -3.16212,8.51075 -4.31359,10.9361 -5.84964,12.32107 -9.17048,20.11078 -13.52278,31.72045 -0.75765,2.02104 -1.81589,4.57596 -2.35164,5.67759 l -0.97409,2.00298 z"
         id="path6173" />
      <path
         style="fill:#000098;fill-opacity:1;stroke-width:0.352778"
         d="m 65.51709,163.75722 c -0.64651,-1.01771 -2.00392,-3.22786 -3.01648,-4.91144 -1.01257,-1.68358 -2.73907,-4.30296 -3.83669,-5.82084 -1.09761,-1.51787 -3.1399,-4.34727 -4.53842,-6.28755 -1.39852,-1.94028 -4.01157,-5.9884 -5.80678,-8.99583 -4.15388,-6.95881 -10.12758,-15.8477 -13.39397,-19.93027 -1.39641,-1.74533 -2.67012,-3.41849 -2.83049,-3.71813 -0.16036,-0.29965 -0.66224,-0.74319 -1.11529,-0.98565 -2.35993,-1.263 -2.40591,-1.54287 -2.40591,-14.644269 v -11.89437 l 4.8145,0.0982 4.8145,0.0981 2.76472,7.40833 c 1.52061,4.07458 3.47426,9.233959 4.34146,11.465279 0.86721,2.23132 2.4697,6.35882 3.56111,9.17222 7.58553,19.55381 13.61561,33.82671 17.99492,42.59304 l 3.21382,6.43331 -1.69276,0.88512 -1.69277,0.88513 z"
         id="path6171" />
      <path
         style="fill:#000098;fill-opacity:1;stroke-width:0.352778"
         d="m 153.36819,166.11478 c -0.53358,-0.28947 -0.97014,-0.6606 -0.97014,-0.82474 0,-0.62537 1.15304,-3.02217 1.62169,-3.37099 0.99163,-0.73804 6.26083,-13.1386 9.67383,-22.76638 0.92855,-2.61938 3.03741,-8.41375 4.68637,-12.87639 3.65014,-9.87858 12.59311,-37.651899 12.59311,-39.109239 0,-0.49728 0.49405,-0.57826 3.52778,-0.57826 h 3.52777 v 10.51096 10.510949 l -3.20455,5.62863 c -5.10295,8.96304 -10.33658,18.44111 -11.89998,21.55075 -0.79343,1.57814 -3.14555,5.62627 -5.22695,8.99583 -2.08139,3.36957 -5.48998,9.41881 -7.57465,13.44275 -3.70816,7.15772 -5.05915,9.45501 -5.54358,9.42656 -0.13231,-0.008 -0.67712,-0.25096 -1.2107,-0.54043 z"
         id="path6169" />
      <path
         style="fill:#000098;fill-opacity:1;stroke-width:0.352778"
         d="m 166.95013,172.27319 c -0.63059,-0.40383 -1.14652,-0.84323 -1.14652,-0.97642 0,-0.9055 1.77113,-4.87893 4.10977,-9.22001 3.31272,-6.14919 9.0942,-18.27459 14.10787,-29.58814 2.03007,-4.58096 3.84159,-8.47982 4.02559,-8.66415 0.21089,-0.21126 0.33454,3.18989 0.33454,9.20162 0,5.24522 -0.11042,9.64719 -0.24539,9.78216 -0.13497,0.13497 -0.27554,0.45075 -0.31238,0.70174 -0.0368,0.25098 -1.29907,2.03232 -2.80498,3.95854 -3.37809,4.32094 -9.97949,14.25757 -13.74697,20.69236 -1.55222,2.65117 -2.9016,4.82621 -2.99861,4.83343 -0.097,0.007 -0.69233,-0.31728 -1.32292,-0.72113 z"
         id="path6167" />
      <path
         style="fill:#000098;fill-opacity:1;stroke-width:0.352778"
         d="m 52.21053,170.63492 c -3.03048,-3.8075 -9.01238,-10.50876 -13.30205,-14.9017 -1.98939,-2.03729 -3.97777,-4.19217 -4.41861,-4.78863 -1.84185,-2.49201 -4.35612,-5.18386 -5.10938,-5.47025 l -0.80743,-0.30699 V 134.3989 c 0,-5.92265 0.11907,-10.76243 0.26459,-10.75507 0.48309,0.0245 3.04182,3.96696 6.74288,10.3895 2.01131,3.49027 4.71025,7.95766 5.99765,9.92752 1.28739,1.96987 2.79236,4.27357 3.34437,5.11934 1.26987,1.94564 7.51463,12.62213 10.47056,17.90124 l 2.24883,4.01626 -1.04069,0.85188 c -2.10872,1.72613 -2.03353,1.74693 -4.39072,-1.21465 z"
         id="path6165" />
      <path
         style="fill:#000098;fill-opacity:1;stroke-width:0.352778"
         d="m 40.89805,179.63392 c -1.38039,-1.21267 -3.52181,-2.93772 -4.75873,-3.83343 -1.23692,-0.89572 -3.16078,-2.46194 -4.27524,-3.4805 -1.11446,-1.01856 -2.39023,-2.01774 -2.83505,-2.22041 -0.69714,-0.31764 -0.81247,-0.64062 -0.83574,-2.34034 -0.0148,-1.08452 -0.0917,-2.28935 -0.17082,-2.6774 -0.0791,-0.38806 -0.24701,-2.84868 -0.37312,-5.46806 l -0.22928,-4.7625 1.07269,1.00455 c 0.58998,0.55251 1.20659,1.02807 1.37025,1.05681 0.16365,0.0288 1.76088,2.40278 3.5494,5.27563 5.17209,8.30783 11.93909,17.53385 12.86053,17.53385 0.72637,0 -1.33566,2.07862 -2.0804,2.09714 -0.47784,0.0119 -1.76616,-0.84269 -3.29449,-2.18534 z"
         id="path6163" />
      <path
         style="fill:#000098;fill-opacity:1;stroke-width:0.352778"
         d="m 178.00954,181.87473 -1.32532,-1.35725 1.13072,-2.24976 c 0.6219,-1.23738 2.05619,-3.68229 3.18731,-5.43314 1.13112,-1.75086 2.77064,-4.69076 3.64337,-6.53311 0.87274,-1.84235 2.07031,-3.81297 2.66128,-4.37916 l 1.07448,-1.02942 v 6.17054 6.17054 l -3.99285,4.56699 c -5.26186,6.01847 -4.78032,5.71095 -6.37899,4.07377 z"
         id="path6161" />
      <path
         style="fill:#000098;fill-opacity:1;stroke-width:0.352778"
         d="m 31.76091,188.80614 -3.91072,-3.61597 0.20528,-5.2825 c 0.1129,-2.90537 0.26195,-5.33917 0.33122,-5.40844 0.41902,-0.41902 1.74216,0.94283 2.43696,2.50824 0.98876,2.22771 3.05822,5.51084 4.82427,7.65354 2.29927,2.78964 3.19843,4.46425 2.64404,4.92436 -0.26493,0.21986 -0.74188,0.94808 -1.0599,1.61825 -0.82882,1.74661 -1.1338,1.61297 -5.47115,-2.39748 z"
         id="path6159" />
    </g>
  </g>
  <g
     inkscape:groupmode="layer"
     id="layer9"
     inkscape:label="99%"
     style="display:inline">
    <g
       id="g11832"
       transform="translate(-14.30594,-19.954241)">
      <path
         style="fill:#000098;fill-opacity:1;stroke-width:0.352778"
         d="m 125.06494,208.65781 c -1.6763,-1.85229 0.52462,-5.65236 3.27373,-5.65236 2.3092,0 3.43016,3.35923 1.80878,5.42048 -0.95917,1.21939 -4.06077,1.36089 -5.08251,0.23188 z"
         id="path6157" />
      <path
         style="fill:#000098;fill-opacity:1;stroke-width:0.352778"
         d="m 138.67703,228.79554 c -1.98958,-1.98958 -0.9496,-6.13123 1.58619,-6.31685 1.90847,-0.1397 2.75125,1.01067 2.75704,3.76327 0.006,2.85695 -2.54186,4.35496 -4.34323,2.55358 z"
         id="path6155" />
      <g
         id="g11823">
        <path
           style="fill:#000098;fill-opacity:1;stroke-width:0.352778"
           d="m 122.9382,232.2813 c -0.9224,-1.49247 0.69103,-5.27292 5.07823,-11.89887 9.52431,-14.38451 19.05105,-23.04027 19.08455,-17.33975 0.004,0.6901 -1.11691,2.14073 -4.49805,5.82083 -6.39084,6.95592 -7.79021,8.7135 -12.16084,15.27366 -5.5514,8.33248 -6.65035,9.52519 -7.50389,8.14413 z"
           id="path6153" />
        <path
           style="fill:#000098;fill-opacity:1;stroke-width:0.352778"
           d="m 108.89009,234.34461 c -1.23967,-0.69376 -1.47607,-2.65275 -1.33396,-11.05443 0.0755,-4.46264 0.15486,-9.53965 0.17639,-11.28223 l 0.0392,-3.16833 -1.5875,-0.23743 c -6.18512,-0.92506 -8.4266,-6.51814 -4.51727,-11.27176 2.02001,-2.45625 7.78913,-1.54195 10.47912,1.66076 l 1.14935,1.36843 -0.20496,3.29774 c -0.29911,4.81255 -0.57356,8.1754 -0.78174,9.57865 -0.10074,0.6791 -0.2669,5.52097 -0.36923,10.75972 -0.10234,5.23875 -0.33273,9.70586 -0.512,9.92691 -0.44501,0.54874 -1.88338,0.78794 -2.53735,0.42197 z m -0.94203,-30.28083 c 1.10488,-1.10488 0.9878,-3.6387 -0.19299,-4.1767 -2.91583,-1.32854 -5.58145,2.26251 -3.07021,4.1361 1.236,0.92216 2.36756,0.93624 3.2632,0.0406 z"
           id="path6151" />
        <path
           style="fill:#000098;fill-opacity:1;stroke-width:0.352778"
           d="m 89.19843,235.1 c -1.44,-0.84074 -1.60852,-5.05009 -0.78756,-19.6711 l 0.24333,-4.33351 -1.0246,0.39211 c -2.24276,0.8583 -6.11569,-0.33759 -7.38956,-2.28176 -1.21438,-1.85339 -0.58015,-5.7753 1.46622,-9.06676 2.75253,-4.42726 7.44734,-3.46461 10.50541,2.15407 l 0.99407,1.82643 -0.30176,11.52562 c -0.16597,6.3391 -0.26074,12.24001 -0.21062,13.11313 0.29167,5.08015 -1.15614,7.70728 -3.49493,6.34177 z m -2.33787,-27.77302 c 2.28457,-2.60557 2.16054,-6.19418 -0.19366,-5.60331 -3.40046,0.85346 -4.72508,6.22067 -1.53525,6.22067 0.68966,0 1.41457,-0.25885 1.72891,-0.61736 z"
           id="path6149" />
      </g>
    </g>
  </g>
  <g
     inkscape:groupmode="layer"
     id="layer10"
     inkscape:label="Rad"
     style="display:inline">
    <path
       style="fill:#000098;fill-opacity:1;stroke-width:0.352778"
       d="m 87.10204,126.51226 c -12.0885,-4.00887 -13.1874,-20.4763 -1.73176,-25.95119 2.14818,-1.026669 2.54565,-1.095899 6.29117,-1.095899 h 3.99811 l -0.25176,-5.29167 c -0.28677,-6.02758 -0.21247,-5.89624 -3.24275,-5.7313 -5.31101,0.28909 -6.05249,4.67162 -0.96289,5.69117 3.67097,0.73537 2.48109,2.66937 -1.32062,2.1465 -2.01502,-0.27713 -3.04096,-1.22017 -3.68025,-3.38288 -1.15668,-3.91299 1.50247,-6.539713 6.80206,-6.719121 4.24313,-0.143644 4.47258,0.122015 4.42017,5.117691 l -0.0331,3.15591 5.36702,-0.23833 c 2.95186,-0.13109 7.55873,-0.22829 10.23749,-0.216 l 4.87048,0.0223 -0.10798,-1.68253 c -0.10436,-1.62611 -0.14978,-1.68927 -1.35468,-1.88354 -1.55057,-0.24999 -2.1047,-0.5811 -2.1047,-1.25761 0,-1.58724 9.42433,-2.34956 10.23854,-0.82819 0.73765,1.3783 0.30014,3.35361 -0.71355,3.2216 -0.48506,-0.0632 -1.51694,-0.14255 -2.29305,-0.17639 l -1.41111,-0.0615 0.0838,1.86711 c 0.0903,2.01193 0.23188,2.36822 2.16892,5.45909 0.83762,1.336549 1.45657,1.979959 1.8042,1.875459 0.29104,-0.0875 1.24354,-0.42118 2.11667,-0.741529 2.48922,-0.9133 7.34994,-0.61261 9.98677,0.617809 2.56231,1.19564 5.48327,4.1345 6.82314,6.86496 1.59247,3.2452 1.50539,8.88789 -0.18527,12.00528 -1.48096,2.73072 -4.34799,5.48357 -7.01052,6.73132 -3.00789,1.40961 -8.13733,1.39304 -11.20162,-0.0362 -4.08488,-1.90524 -7.609,-6.42096 -8.14105,-10.43175 l -0.24013,-1.81018 h -2.01857 c -1.11022,0 -2.53521,0.1801 -3.16666,0.40023 -1.44859,0.50497 -1.74135,0.1782 -5.73148,-6.39745 -3.06692,-5.05422 -7.33647,-11.241369 -7.7778,-11.271079 -0.14552,-0.01 -0.26459,0.90921 -0.26459,2.04223 0,1.793669 0.10264,2.106949 0.79375,2.422799 4.87296,2.22705 8.09159,9.63416 6.79319,15.63333 -1.59132,7.35256 -10.56588,12.34501 -17.84962,9.92953 z m 9.10806,-2.86091 c 3.05247,-1.33485 5.62745,-4.65734 6.44832,-8.32025 0.67477,-3.01095 -1.10658,-7.86357 -3.88122,-10.57293 l -1.33675,-1.3053 -0.2524,1.83522 c -0.44156,3.21052 -4.12939,9.5849 -5.40291,9.33887 -0.32671,-0.0631 -0.71309,-0.1269 -0.85861,-0.14174 -0.58,-0.0592 -0.18652,-1.21452 1.47801,-4.33984 2.07535,-3.89667 3.19011,-7.47693 2.53216,-8.13253 -0.72148,-0.7189 -6.36118,-0.45707 -8.26154,0.38355 -3.52771,1.56048 -6.94932,6.8218 -6.94932,10.68578 0,4.85438 3.09498,9.44729 7.51979,11.15924 1.80177,0.69711 6.76863,0.37017 8.96447,-0.59007 z m 37.66824,-0.0199 c 3.10728,-0.88687 3.87121,-1.4545 5.73681,-4.26267 2.0675,-3.11206 2.39742,-4.34605 1.9247,-7.19883 -0.75236,-4.54031 -3.07554,-7.9849 -6.36748,-9.44108 -2.32539,-1.02864 -7.05159,-1.26597 -8.87111,-0.44548 l -1.38735,0.62561 1.45719,2.68778 c 0.80145,1.47828 2.22288,3.66279 3.15873,4.85447 2.88043,3.66782 2.14264,4.29278 -4.35115,3.68578 -6.30485,-0.58935 -5.8861,-0.68659 -5.56058,1.29128 1.15168,6.99779 6.8993,10.30408 14.26024,8.20314 z M 116.55337,110.7252 c 0.11777,-0.30691 0.21413,-0.79299 0.21413,-1.08017 0,-1.06199 1.84415,-4.37199 3.39988,-6.10234 l 1.60404,-1.78408 -1.00266,-1.58706 c -1.21497,-1.923129 -1.2164,-1.923279 -2.33463,-0.233519 -2.80512,4.238829 -5.81972,10.820839 -5.09142,11.116489 1.02425,0.41579 3.0026,0.21287 3.21066,-0.32932 z m 9.01679,-2.35239 c -0.94393,-1.60073 -1.86334,-3.14854 -2.04314,-3.43959 -0.65565,-1.06128 -3.07902,2.22658 -4.09534,5.55625 -0.24148,0.79112 -0.22883,0.79375 3.80621,0.79375 h 4.0485 z m -14.4471,0.82452 c 0,-0.4062 3.65131,-7.9515 5.051,-10.437719 l 1.19165,-2.11666 -8.26842,-0.0748 -8.26841,-0.0748 0.62046,0.95676 c 4.41456,6.807429 9.67372,13.193869 9.67372,11.747259 z"
       id="path6183"
       transform="translate(-14.30594,-19.954241)" />
  </g>
  <g
     inkscape:groupmode="layer"
     id="layer8"
     inkscape:label="Text"
     style="display:inline">
    <path
       style="display:inline;fill:#ffffff;fill-opacity:1;stroke-width:0.352778"
       d="m 56.687591,78.58716 c -16.672867,-0.0699 -27.720957,-0.24565 -27.601417,-0.43907 0.35808,-9.451628 0.23599,-19.173883 0.42699,-29.007551 l 0.21519,-10.813519 1.09805,-0.267557 c 2.178,-0.530708 150.892896,-0.819012 155.705746,-0.301858 l 1.85494,0.199316 -0.091,20.230767 -0.091,20.230762 -51.85833,0.14264 c -28.52208,0.0784 -64.368659,0.0902 -79.659069,0.0261 z"
       id="path10348"
       sodipodi:nodetypes="scccssccccss"
       transform="translate(-14.30594,-19.954241)" />
    <g
       id="g11848">
      <path
         style="fill:#000000;fill-opacity:1;stroke-width:0.352778"
         d="m 56.68759,78.587163 c -16.67287,-0.0699 -27.72096,-0.245654 -27.60142,-0.439075 0.10963,-0.177384 0.20214,-4.343608 0.20556,-9.258276 0.004,-4.914668 0.10307,-13.801843 0.22143,-19.749274 l 0.21519,-10.813519 1.09805,-0.267557 c 2.178,-0.530708 150.8929,-0.819012 155.70575,-0.301858 l 1.85494,0.199316 -0.091,20.230767 -0.091,20.230767 -51.85833,0.142635 c -28.52208,0.07845 -64.36866,0.09018 -79.65907,0.02607 z m 116.95818,-2.81025 c 4.32593,-1.669295 6.74832,-7.001927 4.86109,-10.701201 -0.78719,-1.543018 -1.79257,-2.378646 -5.69784,-4.735784 -4.02985,-2.432333 -5.24167,-3.928855 -5.24098,-6.472309 0.001,-5.382613 4.40401,-7.267276 7.95112,-3.403745 2.12384,2.313305 2.70299,2.00412 3.16306,-1.688638 0.33723,-2.706818 -0.49462,-3.617863 -3.63633,-3.982498 -5.67395,-0.658534 -8.829,1.354392 -10.13927,6.468862 -1.31122,5.118168 0.41052,7.876643 8.02804,12.862096 2.39586,1.568026 3.0995,2.47554 3.0995,3.997544 0,1.909812 -2.61841,3.650869 -5.49061,3.650869 -2.05461,0 -6.40214,-2.15604 -6.87955,-3.411732 -0.82278,-2.164062 -4.21039,0.408094 -4.21039,3.196876 0,1.153774 3.37641,3.670974 5.99722,4.471075 1.67473,0.511277 6.61089,0.35984 8.19494,-0.251415 z M 99.40916,73.454447 c 0.16863,-3.844231 -0.82341,-4.796001 -2.63942,-2.532289 l -1.01619,1.266719 -2.08143,-0.384774 C 92.52734,71.592478 90.42249,71.419331 88.99468,71.419331 H 86.39865 L 85.35558,69.21447 c -0.93143,-1.968853 -1.04196,-2.563594 -1.03261,-5.556251 0.0138,-4.428211 0.89818,-15.382033 1.36403,-16.895365 0.20261,-0.658216 0.29278,-1.319089 0.20038,-1.46861 -0.55619,-0.899933 -5.80877,-0.538061 -5.80877,0.400191 0,0.194405 0.33439,0.805751 0.74309,1.358547 0.72405,0.979318 0.73851,1.252492 0.56434,10.657241 -0.11702,6.318487 -0.36969,10.794666 -0.73156,12.960105 -0.72508,4.33887 -0.27886,5.375811 1.74319,4.050915 0.7209,-0.472351 1.41526,-0.536578 3.77995,-0.349652 1.59326,0.125949 4.40495,0.328263 6.24821,0.449594 1.84327,0.121328 3.74827,0.434778 4.23334,0.696557 1.97471,1.065696 2.63445,0.570695 2.74999,-2.063295 z m 13.10629,2.044379 c 0.43844,-0.528282 -0.0357,-1.962828 -0.64867,-1.962828 -0.15938,0 0.13937,-1.230312 0.66388,-2.734028 0.52452,-1.503715 1.15392,-3.704862 1.39867,-4.891437 l 0.445,-2.157409 2.34311,-0.221333 c 1.28871,-0.121733 3.47456,-0.222462 4.85744,-0.223841 l 2.51432,-0.0025 0.75044,2.9921 c 0.41274,1.645655 1.12529,3.839693 1.58343,4.875639 0.83273,1.882938 0.83276,1.883643 0.10945,2.211374 -2.10741,0.954857 -0.5075,2.433451 2.314,2.138546 4.02557,-0.420754 4.1855,-0.961228 1.88103,-6.35653 -3.55823,-8.33063 -4.93628,-13.631988 -5.36054,-20.621952 l -0.24285,-4.0011 -4.44291,0.253803 c -6.84867,0.39123 -6.81979,0.363812 -7.61194,7.225782 -0.4722,4.090497 -0.86597,5.693802 -2.81419,11.458727 -3.05851,9.05036 -3.05133,9.035106 -4.46848,9.493156 -1.6456,0.53189 -1.92055,2.187529 -0.41847,2.519842 0.54581,0.120753 1.15114,0.272507 1.34516,0.337231 1.12446,0.375098 5.41896,0.12845 5.80212,-0.333234 z m 40.7125,-1.379534 c 0.51791,-1.04496 0.71891,-2.656805 0.96868,-7.767956 0.44483,-9.102775 1.89739,-14.122147 5.4122,-18.702092 l 1.32112,-1.721475 -0.74797,-0.74797 c -1.08782,-1.087815 -8.26123,-1.137913 -9.04709,-0.06318 -0.7326,1.001896 -0.61674,1.979317 0.41454,3.496977 1.53776,2.263014 1.61615,3.083554 0.67385,7.052696 -0.46775,1.970214 -1.02962,4.931322 -1.2486,6.580237 -0.21898,1.648915 -0.4465,3.046381 -0.5056,3.105479 -0.0591,0.0591 -0.59794,-1.248058 -1.19741,-2.904798 -1.73666,-4.799475 -2.734,-6.550099 -3.73166,-6.550099 -1.3578,0 -2.90582,1.610875 -4.3362,4.512261 -0.80665,1.63624 -1.35522,2.423647 -1.39512,2.002546 -0.0362,-0.381684 -0.32808,-2.944629 -0.6487,-5.695435 l -0.58296,-5.001458 1.29011,-2.85731 c 1.85953,-4.118423 1.88727,-4.082239 -3.08874,-4.028144 -4.9836,0.05418 -6.24795,0.667339 -4.46089,2.163354 0.40333,0.337647 0.93386,1.010782 1.17895,1.495852 0.76373,1.511547 2.98468,14.413234 3.30972,19.22639 0.335,4.960914 0.94519,6.879168 2.18821,6.879168 0.92314,0 1.64689,-1.51921 3.69738,-7.761112 0.92422,-2.813403 1.79848,-5.245221 1.94279,-5.404038 0.14432,-0.158817 0.99443,1.540517 1.88914,3.776303 2.95374,7.381114 4.7306,10.638996 5.64838,10.356301 0.2213,-0.06816 0.69644,-0.717286 1.05587,-1.442494 z m -106.6171,0.570029 c 0.44832,-0.448318 0.38398,-0.750098 -0.90798,-4.259429 -0.42999,-1.167966 -0.56469,-3.000696 -0.5834,-7.937501 -0.0287,-7.568499 0.36823,-10.951606 1.66477,-14.190318 1.09295,-6.058683 -8.15171,-4.779386 -6.80072,-0.916852 0.44229,1.239026 0.65631,3.759324 0.8876,10.452165 0.32531,9.413219 0.1452,12.785874 -0.78207,14.644611 -0.73806,1.479479 -0.73034,1.985031 0.0375,2.455757 0.81792,0.501438 5.93032,0.305565 6.48432,-0.248433 z m 12.23445,0.394592 c 1.42599,-0.2852 1.62002,-0.9444 0.76896,-2.612602 -0.78019,-1.529313 -0.91725,-5.77722 -0.4696,-14.554593 l 0.22985,-4.506779 3.81843,7.422834 c 2.10014,4.08256 4.35413,8.260267 5.00887,9.283792 0.65474,1.023525 1.46707,2.443904 1.80516,3.156395 0.7186,1.514334 1.78293,2.000162 2.59745,1.18564 0.83956,-0.839551 0.90978,-4.020788 0.27549,-12.480386 -0.76188,-10.16132 -0.73864,-12.466551 0.14315,-14.194996 0.94778,-1.857802 0.89203,-2.354894 -0.33526,-2.989552 -1.49728,-0.774273 -3.00116,-0.668983 -4.11373,0.288015 l -0.96057,0.826241 0.92265,2.96612 c 0.80847,2.599066 0.95133,3.817412 1.15438,9.845288 l 0.23174,6.879167 -1.6676,-2.645833 c -0.91718,-1.455209 -3.48255,-5.797194 -5.70083,-9.648858 -2.21828,-3.851663 -4.22299,-7.31054 -4.45492,-7.686397 -0.29536,-0.478638 -0.73876,-0.65291 -1.48003,-0.581695 l -1.05833,0.10167 0.0989,2.293056 c 0.0544,1.261181 0.13373,6.74616 0.17638,12.18884 l 0.0775,9.895788 -1.2053,2.375035 c -0.7191,1.417009 -1.07486,2.498764 -0.88194,2.681778 0.67014,0.635734 3.14058,0.887755 5.0192,0.512032 z"
         id="path6185"
         transform="translate(-14.30594,-19.954241)" />
      <path
         style="fill:#000000;fill-opacity:1;stroke-width:0.352778"
         d="m 116.73714,56.21065 c 0.55174,-1.627657 1.11337,-3.673751 1.24808,-4.546876 0.4369,-2.831705 0.42922,-2.822223 2.28517,-2.822223 h 1.69146 l 0.24683,2.723868 c 0.13576,1.498128 0.45577,3.720628 0.71114,4.93889 l 0.4643,2.215021 h -1.66906 c -0.91798,0 -2.63927,0.101406 -3.82507,0.225348 l -2.156,0.225347 z"
         id="path6187"
         transform="translate(-14.30594,-19.954241)" />
    </g>
  </g>
  <g
     inkscape:label="Layer 1"
     inkscape:groupmode="layer"
     id="layer1"
     transform="translate(-14.30594,-19.954241)">
    <path
       style="fill:#000098;fill-opacity:1;stroke-width:0.352778"
       d="m 108.47722,276.49174 c -1.35819,-1.06878 -3.26319,-2.45638 -4.23333,-3.08356 -0.97014,-0.62719 -5.23401,-4.14344 -9.47527,-7.81389 -8.59654,-7.43958 -20.89828,-17.95335 -35.86245,-30.65006 -6.00238,-5.09288 -10.70272,-9.37093 -11.82182,-10.75973 -4.47778,-5.55691 -11.45573,-18.07662 -11.45573,-20.55364 0,-0.53181 1.25421,-0.23861 2.64583,0.61852 3.93516,2.42373 6.88884,-1.17103 3.90081,-4.74747 l -1.21447,-1.45362 1.09081,-1.75475 c 1.28279,-2.06358 1.27351,-2.06154 3.158,-0.69642 1.77902,1.28871 2.53127,1.32129 4.03449,0.17473 1.79669,-1.3704 1.97585,-3.42709 0.52284,-6.00169 -1.13955,-2.01917 -1.13391,-2.25391 0.0868,-3.60985 0.96177,-1.06834 2.007,-0.9992 3.99979,0.26458 2.94524,1.86782 6.12023,1.1809 6.11462,-1.32291 -0.002,-0.94557 -0.34177,-1.76857 -1.62959,-3.94868 -0.62662,-1.0608 -0.62495,-1.07002 0.38693,-2.12618 1.57325,-1.64212 2.10749,-1.65418 4.17371,-0.0942 5.3778,4.06028 8.6904,1.83185 6.75906,-4.54692 l -0.6602,-2.18051 1.36574,-1.18059 c 1.88132,-1.62627 2.94114,-1.55467 5.42312,0.36639 2.43129,1.88183 4.27345,2.55698 5.37223,1.96894 0.72466,-0.38783 0.75058,-0.56731 0.52537,-3.63763 l -0.23689,-3.22968 2.04954,-0.62385 c 2.78905,-0.84895 3.222,-0.7908 3.91803,0.5263 1.17889,2.23078 2.6826,3.44894 4.25743,3.44894 1.85817,0 2.27005,-0.74195 2.10939,-3.79975 l -0.12142,-2.31087 2.11666,-0.44982 c 3.55543,-0.75557 3.58089,-0.74698 4.21143,1.42201 0.64543,2.22022 1.85724,3.37454 3.54258,3.37454 1.66066,0 2.24439,-0.89485 2.70405,-4.14522 0.46984,-3.32233 0.36572,-3.25092 4.75087,-3.2583 l 2.86169,-0.005 0.23966,2.33922 c 0.36684,3.58052 0.88177,4.51626 2.77736,5.04699 2.68201,0.75092 4.58132,-0.64763 5.04082,-3.71178 0.14034,-0.93592 0.46548,-1.69963 0.77397,-1.81801 0.42141,-0.16171 5.22359,0.81785 5.65884,1.1543 0.0581,0.045 -0.0786,1.13987 -0.30378,2.43317 -0.37197,2.13597 -0.3494,2.41784 0.24623,3.076 2.40411,2.65652 5.38745,2.07917 6.67481,-1.29174 0.33266,-0.87104 0.73293,-1.5837 0.88949,-1.5837 0.90483,0 5.26661,1.91591 5.1245,2.25093 -1.51503,3.57168 -1.05897,4.88154 1.91972,5.51366 2.48871,0.52814 3.77473,0.14343 5.07517,-1.51824 l 0.8348,-1.06666 2.66397,1.26511 2.66397,1.26511 -0.33549,1.1698 c -0.58307,2.03305 -0.4163,4.44504 0.36109,5.22242 1.74837,1.74838 3.9074,1.20856 4.99438,-1.24874 0.8864,-2.00386 1.33267,-1.9674 4.1102,0.33577 l 2.07893,1.72388 -0.99477,1.80389 c -1.01081,1.83299 -1.32601,3.74416 -0.6175,3.74416 0.21453,0 0.8617,0.39688 1.43818,0.88195 1.46217,1.23034 3.1066,1.17369 4.62481,-0.15931 l 1.18592,-1.04126 2.1351,2.18779 2.1351,2.18778 -0.65366,1.41111 c -0.89564,1.93347 -0.84156,2.42836 0.42271,3.86828 1.28527,1.46383 1.4222,1.48132 3.81461,0.48707 l 1.82858,-0.75992 1.39347,1.36069 c 1.82176,1.7789 1.87933,3.07761 0.20822,4.69732 -1.61804,1.56826 -2.15489,3.43913 -1.51762,5.2888 0.62748,1.82128 -0.61026,5.23649 -3.33942,9.2142 -1.95055,2.84291 -29.20205,29.27535 -37.34938,36.22683 -2.23132,1.90381 -6.36339,5.68578 -9.18238,8.40438 -4.13841,3.99103 -9.79363,8.93666 -19.39262,16.95931 -0.44147,0.36897 -0.93842,0.12022 -2.99861,-1.50095 z m 27.34345,-27.82417 c 18.3372,-17.01381 26.4154,-24.44621 34.97243,-32.17662 l 5.16588,-4.66685 -0.32725,-1.4565 c -0.42148,-1.87588 -0.1697,-1.55824 -7.25246,-9.14946 -5.77124,-6.18557 -6.2878,-6.64065 -10.58333,-9.32385 -10.06437,-6.28669 -23.49406,-12.17096 -31.32705,-13.72605 -0.58209,-0.11557 -2.32834,-0.45985 -3.88056,-0.76508 -3.30145,-0.6492 -13.65403,-0.95257 -17.28611,-0.50655 -1.35819,0.16679 -3.26319,0.40568 -4.23333,0.53087 -7.36371,0.95027 -19.1266,5.61299 -27.76402,11.00545 -1.49424,0.93287 -4.82671,2.96613 -7.40548,4.51835 -6.30741,3.79658 -11.63291,9.01938 -16.4274,16.1106 -1.79302,2.65195 -3.26004,5.01877 -3.26004,5.25961 0,2.32948 11.71607,13.69232 23.8125,23.09455 2.71639,2.11138 7.79639,6.62814 11.28889,10.03723 11.52441,11.24919 9.96819,9.86159 24.31044,21.67631 l 4.55489,3.75219 4.08816,-4.00452 c 2.2485,-2.20248 11.94772,-11.29684 21.55384,-20.20968 z"
       id="path6147" />
  </g>
</svg>
