<?xml version="1.0" encoding="UTF-8" standalone="no"?>
<!-- Created with Inkscape (http://www.inkscape.org/) -->

<svg
   width="190mm"
   height="280mm"
   viewBox="0 0 190 280"
   version="1.1"
   id="svg4450"
   inkscape:version="1.4-dev (1:1.2.0-alpha1+devel+202309271436+351655d389)"
   sodipodi:docname="INLAWS_firstaid (3).svg"
   xml:space="preserve"
   xmlns:inkscape="http://www.inkscape.org/namespaces/inkscape"
   xmlns:sodipodi="http://sodipodi.sourceforge.net/DTD/sodipodi-0.dtd"
   xmlns="http://www.w3.org/2000/svg"
   xmlns:svg="http://www.w3.org/2000/svg"><sodipodi:namedview
     id="namedview4452"
     pagecolor="#ffffff"
     bordercolor="#000000"
     borderopacity="0.25"
     inkscape:showpageshadow="2"
     inkscape:pageopacity="0.0"
     inkscape:pagecheckerboard="0"
     inkscape:deskcolor="#d1d1d1"
     inkscape:document-units="mm"
     showgrid="false"
     inkscape:zoom="0.72782688"
     inkscape:cx="229.45017"
     inkscape:cy="531.03287"
     inkscape:window-width="1920"
     inkscape:window-height="997"
     inkscape:window-x="0"
     inkscape:window-y="28"
     inkscape:window-maximized="1"
     inkscape:current-layer="layer4" /><defs
     id="defs4447"><inkscape:path-effect
       effect="taper_stroke"
       id="path-effect4"
       is_visible="true"
       lpeversion="1"
       stroke_width="0.192541"
       subpath="1"
       attach_start="0.2 | 0.2 | 0.2 | 0.2 | 0.2 | 0.2 | 0.2"
       end_offset="0.2 | 0.2 | 0.2 | 0.2 | 0.2 | 0.2 | 0.2"
       start_smoothing="0.5 | 0.5 | 0.5 | 0.5 | 0.5 | 0.5 | 0.5"
       end_smoothing="0.5 | 0.5 | 0.5 | 0.5 | 0.5 | 0.5 | 0.5"
       jointype="extrapolated"
       start_shape="center | center | center | center | center | center | center"
       end_shape="center | center | center | center | center | center | center"
       miter_limit="100" /><inkscape:path-effect
       effect="roughen"
       id="path-effect3"
       is_visible="true"
       lpeversion="1.2"
       global_randomize="0;1"
       displace_x="0;1"
       displace_y="0;1"
       method="segments"
       max_segment_size="1.39225"
       segments="5"
       handles="along"
       shift_nodes="true"
       fixed_displacement="false"
       spray_tool_friendly="false" /><inkscape:path-effect
       effect="roughen"
       id="path-effect2"
       is_visible="true"
       lpeversion="1.2"
       global_randomize="1.4;2947380607"
       displace_x="0.3;1"
       displace_y="0.3;1"
       method="segments"
       max_segment_size="1.39199"
       segments="4"
       handles="along"
       shift_nodes="true"
       fixed_displacement="false"
       spray_tool_friendly="false" /><inkscape:path-effect
       effect="fill_between_many"
       method="bsplinespiro"
       autoreverse="false"
       close="false"
       join="false"
       linkedpaths="#path19504,0,1"
       id="path-effect5" /></defs><g
     inkscape:groupmode="layer"
     id="layer3"
     inkscape:label="Base"
     style="display:inline"><path
       style="fill:#ffffff;fill-opacity:1;stroke:#ffffff;stroke-width:4;stroke-dasharray:none;stroke-opacity:1"
       d="M 104.05169,278.43932 C 99.1759,274.67151 90.81522,267.94922 85.47241,263.50091 80.1296,259.0526 73.6354,253.74646 71.04087,251.7095 64.67674,246.71302 54.35143,237.60543 48.89956,232.17944 41.32332,224.63913 35.31927,215.88745 31.43015,206.71547 26.09309,194.12874 25.63768,190.9569 25.97553,168.72518 c 0.1578,-10.3823 0.0814,-17.86031 -0.21802,-21.34245 -0.67603,-7.86196 -1.28471,-42.81121 -1.39496,-80.095106 l -0.0966,-32.677224 85.04294,1.14e-4 85.04296,1.14e-4 v 73.228292 73.22829 l -1.25545,7.45193 c -2.56095,15.20094 -3.8486,20.2102 -6.8094,26.49042 -2.36474,5.01588 -7.72382,11.43642 -13.35489,16.00005 -1.71262,1.38797 -5.14501,4.35907 -7.62757,6.60246 -2.48253,2.24338 -6.37902,5.58301 -8.65891,7.4214 -2.27986,1.83838 -7.48705,6.59579 -11.5715,10.57202 -12.50212,12.17086 -31.3772,29.71102 -31.95119,29.69144 -0.11337,-0.004 -4.19544,-3.08979 -9.07123,-6.85761 z"
       id="path7779"
       transform="translate(-14.30594,-19.954241)" /></g><g
     inkscape:groupmode="layer"
     id="layer4"
     inkscape:label="Strahlen"><path
       style="display:none;fill:#ff1700;fill-opacity:1;stroke-width:0.352778"
       d="m 92.74237,132.67915 c -0.1106,-0.52641 -0.26936,-1.27461 -0.35281,-1.66267 -0.0835,-0.38805 -0.23789,-2.84868 -0.34321,-5.46805 -0.10532,-2.61938 -0.26033,-5.31813 -0.34447,-5.99722 -0.0841,-0.6791 -0.25925,-2.92825 -0.38914,-4.99812 l -0.23617,-3.76339 1.79019,-1.81865 1.79019,-1.81865 1.46499,2.31965 c 0.80574,1.2758 2.02879,2.78438 2.71789,3.35239 l 1.25289,1.03274 -0.36255,3.1116 c -0.1994,1.71137 -0.80479,6.14457 -1.34531,9.85155 l -0.98276,6.73995 -2.22932,0.038 c -2.1523,0.0367 -2.23627,0.005 -2.43041,-0.91912 z"
       id="path6181" /><path
       style="display:none;fill:#ff1700;fill-opacity:1;stroke-width:0.352778"
       d="m 111.45739,135.09642 c -0.76627,-0.14764 -1.09075,-0.43234 -1.17582,-1.03167 -0.17397,-1.22577 1.43914,-13.42278 2.22275,-16.8066 0.13889,-0.59974 0.4952,-0.71976 2.37587,-0.80025 1.21686,-0.0521 2.74398,-0.24146 3.3936,-0.42083 0.87746,-0.24227 1.14141,-0.21793 1.02667,0.0947 -0.0849,0.23145 -1.53991,4.5865 -3.23324,9.67787 -3.3574,10.09473 -3.10068,9.57756 -4.60983,9.28678 z"
       id="path6179" /><path
       style="display:none;fill:#ff1700;fill-opacity:1;stroke-width:0.352778"
       d="m 76.74908,130.95545 c -0.90725,-3.93371 -2.68998,-10.92358 -3.846,-15.07972 -0.15354,-0.55204 -0.064,-0.62702 0.4858,-0.40659 0.37074,0.14865 1.97013,0.3557 3.5542,0.46012 l 2.88013,0.18984 0.20541,1.09869 c 0.11297,0.60428 0.29537,1.81307 0.40531,2.68619 0.10995,0.87313 0.58677,4.39875 1.0596,7.83472 1.08256,7.86672 1.13993,7.19779 -0.63961,7.45839 -0.82462,0.12076 -1.83242,0.31331 -2.23957,0.42789 -0.69115,0.1945 -0.8149,-0.11532 -1.86527,-4.66953 z"
       id="path6177" /></g><g
     inkscape:label="Layer 1"
     inkscape:groupmode="layer"
     id="layer1"
     transform="translate(-14.30594,-19.954241)"
     style="display:inline"><path
       style="fill:#000000;fill-opacity:1;stroke-width:0.352778"
       d="m 116.73714,56.21065 c 0.55174,-1.627657 1.11337,-3.673751 1.24808,-4.546876 0.4369,-2.831705 0.42922,-2.822223 2.28517,-2.822223 h 1.69146 l 0.24683,2.723868 c 0.13576,1.498128 0.45577,3.720628 0.71114,4.93889 l 0.4643,2.215021 h -1.66906 c -0.91798,0 -2.63927,0.101406 -3.82507,0.225348 l -2.156,0.225347 z"
       id="path6187" /><path
       style="fill:#000000;fill-opacity:1;stroke-width:0.352778"
       d="m 56.68759,77.302778 c -16.67287,-0.0699 -27.72096,-0.245654 -27.60142,-0.439075 0.10963,-0.177384 0.20214,-4.343608 0.20556,-9.258276 0.004,-4.914668 0.10307,-13.801843 0.22143,-19.749274 l 0.21519,-10.813519 1.09805,-0.267557 c 2.178,-0.530708 150.8929,-0.819012 155.70575,-0.301858 l 1.85494,0.199316 -0.091,20.230767 -0.091,20.230767 -51.85833,0.142635 c -28.52208,0.07845 -64.36866,0.09018 -79.65907,0.02607 z m 116.95818,-2.81025 c 4.32593,-1.669295 6.74832,-7.001927 4.86109,-10.701201 -0.78719,-1.543018 -1.79257,-2.378646 -5.69784,-4.735784 -4.02985,-2.432333 -5.24167,-3.928855 -5.24098,-6.472309 0.001,-5.382613 4.40401,-7.267276 7.95112,-3.403745 2.12384,2.313305 2.70299,2.00412 3.16306,-1.688638 0.33723,-2.706818 -0.49462,-3.617863 -3.63633,-3.982498 -5.67395,-0.658534 -8.829,1.354392 -10.13927,6.468862 -1.31122,5.118168 0.41052,7.876643 8.02804,12.862096 2.39586,1.568026 3.0995,2.47554 3.0995,3.997544 0,1.909812 -2.61841,3.650869 -5.49061,3.650869 -2.05461,0 -6.40214,-2.15604 -6.87955,-3.411732 -0.82278,-2.164062 -4.21039,0.408094 -4.21039,3.196876 0,1.153774 3.37641,3.670974 5.99722,4.471075 1.67473,0.511277 6.61089,0.35984 8.19494,-0.251415 z M 99.40916,72.170062 c 0.16863,-3.844231 -0.82341,-4.796001 -2.63942,-2.532289 l -1.01619,1.266719 -2.08143,-0.384774 c -1.14478,-0.211625 -3.24963,-0.384772 -4.67744,-0.384772 h -2.59603 l -1.04307,-2.204861 c -0.93143,-1.968853 -1.04196,-2.563594 -1.03261,-5.556251 0.0138,-4.428211 0.89818,-15.382033 1.36403,-16.895365 0.20261,-0.658216 0.29278,-1.319089 0.20038,-1.46861 -0.55619,-0.899933 -5.80877,-0.538061 -5.80877,0.400191 0,0.194405 0.33439,0.805751 0.74309,1.358547 0.72405,0.979318 0.73851,1.252492 0.56434,10.657241 -0.11702,6.318487 -0.36969,10.794666 -0.73156,12.960105 -0.72508,4.33887 -0.27886,5.375811 1.74319,4.050915 0.7209,-0.472351 1.41526,-0.536578 3.77995,-0.349652 1.59326,0.125949 4.40495,0.328263 6.24821,0.449594 1.84327,0.121328 3.74827,0.434778 4.23334,0.696557 1.97471,1.065696 2.63445,0.570695 2.74999,-2.063295 z m 13.10629,2.044379 c 0.43844,-0.528282 -0.0357,-1.962828 -0.64867,-1.962828 -0.15938,0 0.13937,-1.230312 0.66388,-2.734028 0.52452,-1.503715 1.15392,-3.704862 1.39867,-4.891437 l 0.445,-2.157409 2.34311,-0.221333 c 1.28871,-0.121733 3.47456,-0.222462 4.85744,-0.223841 l 2.51432,-0.0025 0.75044,2.9921 c 0.41274,1.645655 1.12529,3.839693 1.58343,4.875639 0.83273,1.882938 0.83276,1.883643 0.10945,2.211374 -2.10741,0.954857 -0.5075,2.433451 2.314,2.138546 4.02557,-0.420754 4.1855,-0.961228 1.88103,-6.35653 -3.55823,-8.33063 -4.93628,-13.631988 -5.36054,-20.621952 l -0.24285,-4.0011 -4.44291,0.253803 c -6.84867,0.39123 -6.81979,0.363812 -7.61194,7.225782 -0.4722,4.090497 -0.86597,5.693802 -2.81419,11.458727 -3.05851,9.05036 -3.05133,9.035106 -4.46848,9.493156 -1.6456,0.53189 -1.92055,2.187529 -0.41847,2.519842 0.54581,0.120753 1.15114,0.272507 1.34516,0.337231 1.12446,0.375098 5.41896,0.12845 5.80212,-0.333234 z m 40.7125,-1.379534 c 0.51791,-1.04496 0.71891,-2.656805 0.96868,-7.767956 0.44483,-9.102775 1.89739,-14.122147 5.4122,-18.702092 l 1.32112,-1.721475 -0.74797,-0.74797 c -1.08782,-1.087815 -8.26123,-1.137913 -9.04709,-0.06318 -0.7326,1.001896 -0.61674,1.979317 0.41454,3.496977 1.53776,2.263014 1.61615,3.083554 0.67385,7.052696 -0.46775,1.970214 -1.02962,4.931322 -1.2486,6.580237 -0.21898,1.648915 -0.4465,3.046381 -0.5056,3.105479 -0.0591,0.0591 -0.59794,-1.248058 -1.19741,-2.904798 -1.73666,-4.799475 -2.734,-6.550099 -3.73166,-6.550099 -1.3578,0 -2.90582,1.610875 -4.3362,4.512261 -0.80665,1.63624 -1.35522,2.423647 -1.39512,2.002546 -0.0362,-0.381684 -0.32808,-2.944629 -0.6487,-5.695435 l -0.58296,-5.001458 1.29011,-2.85731 c 1.85953,-4.118423 1.88727,-4.082239 -3.08874,-4.028144 -4.9836,0.05418 -6.24795,0.667339 -4.46089,2.163354 0.40333,0.337647 0.93386,1.010782 1.17895,1.495852 0.76373,1.511547 2.98468,14.413234 3.30972,19.22639 0.335,4.960914 0.94519,6.879168 2.18821,6.879168 0.92314,0 1.64689,-1.51921 3.69738,-7.761112 0.92422,-2.813403 1.79848,-5.245221 1.94279,-5.404038 0.14432,-0.158817 0.99443,1.540517 1.88914,3.776303 2.95374,7.381114 4.7306,10.638996 5.64838,10.356301 0.2213,-0.06816 0.69644,-0.717286 1.05587,-1.442494 z m -106.6171,0.570029 c 0.44832,-0.448318 0.38398,-0.750098 -0.90798,-4.259429 -0.42999,-1.167966 -0.56469,-3.000696 -0.5834,-7.937501 -0.0287,-7.568499 0.36823,-10.951606 1.66477,-14.190318 1.09295,-6.058683 -8.15171,-4.779386 -6.80072,-0.916852 0.44229,1.239026 0.65631,3.759324 0.8876,10.452165 0.32531,9.413219 0.1452,12.785874 -0.78207,14.644611 -0.73806,1.479479 -0.73034,1.985031 0.0375,2.455757 0.81792,0.501438 5.93032,0.305565 6.48432,-0.248433 z m 12.23445,0.394592 c 1.42599,-0.2852 1.62002,-0.9444 0.76896,-2.612602 -0.78019,-1.529313 -0.91725,-5.77722 -0.4696,-14.554593 l 0.22985,-4.506779 3.81843,7.422834 c 2.10014,4.08256 4.35413,8.260267 5.00887,9.283792 0.65474,1.023525 1.46707,2.443904 1.80516,3.156395 0.7186,1.514334 1.78293,2.000162 2.59745,1.18564 0.83956,-0.839551 0.90978,-4.020788 0.27549,-12.480386 -0.76188,-10.16132 -0.73864,-12.466551 0.14315,-14.194996 0.94778,-1.857802 0.89203,-2.354894 -0.33526,-2.989552 -1.49728,-0.774273 -3.00116,-0.668983 -4.11373,0.288015 l -0.96057,0.826241 0.92265,2.96612 c 0.80847,2.599066 0.95133,3.817412 1.15438,9.845288 l 0.23174,6.879167 -1.6676,-2.645833 c -0.91718,-1.455209 -3.48255,-5.797194 -5.70083,-9.648858 -2.21828,-3.851663 -4.22299,-7.31054 -4.45492,-7.686397 -0.29536,-0.478638 -0.73876,-0.65291 -1.48003,-0.581695 l -1.05833,0.10167 0.0989,2.293056 c 0.0544,1.261181 0.13373,6.74616 0.17638,12.18884 l 0.0775,9.895788 -1.2053,2.375035 c -0.7191,1.417009 -1.07486,2.498764 -0.88194,2.681778 0.67014,0.635734 3.14058,0.887755 5.0192,0.512032 z"
       id="path6185" /><path
       style="display:none;fill:#000098;fill-opacity:1;stroke-width:0.352778"
       d="m 87.10204,126.51226 c -12.0885,-4.00887 -13.1874,-20.4763 -1.73176,-25.95119 2.14818,-1.026669 2.54565,-1.095899 6.29117,-1.095899 h 3.99811 l -0.25176,-5.29167 c -0.28677,-6.02758 -0.21247,-5.89624 -3.24275,-5.7313 -5.31101,0.28909 -6.05249,4.67162 -0.96289,5.69117 3.67097,0.73537 2.48109,2.66937 -1.32062,2.1465 -2.01502,-0.27713 -3.04096,-1.22017 -3.68025,-3.38288 -1.15668,-3.91299 1.50247,-6.539713 6.80206,-6.719121 4.24313,-0.143644 4.47258,0.122015 4.42017,5.117691 l -0.0331,3.15591 5.36702,-0.23833 c 2.95186,-0.13109 7.55873,-0.22829 10.23749,-0.216 l 4.87048,0.0223 -0.10798,-1.68253 c -0.10436,-1.62611 -0.14978,-1.68927 -1.35468,-1.88354 -1.55057,-0.24999 -2.1047,-0.5811 -2.1047,-1.25761 0,-1.58724 9.42433,-2.34956 10.23854,-0.82819 0.73765,1.3783 0.30014,3.35361 -0.71355,3.2216 -0.48506,-0.0632 -1.51694,-0.14255 -2.29305,-0.17639 l -1.41111,-0.0615 0.0838,1.86711 c 0.0903,2.01193 0.23188,2.36822 2.16892,5.45909 0.83762,1.336549 1.45657,1.979959 1.8042,1.875459 0.29104,-0.0875 1.24354,-0.42118 2.11667,-0.741529 2.48922,-0.9133 7.34994,-0.61261 9.98677,0.617809 2.56231,1.19564 5.48327,4.1345 6.82314,6.86496 1.59247,3.2452 1.50539,8.88789 -0.18527,12.00528 -1.48096,2.73072 -4.34799,5.48357 -7.01052,6.73132 -3.00789,1.40961 -8.13733,1.39304 -11.20162,-0.0362 -4.08488,-1.90524 -7.609,-6.42096 -8.14105,-10.43175 l -0.24013,-1.81018 h -2.01857 c -1.11022,0 -2.53521,0.1801 -3.16666,0.40023 -1.44859,0.50497 -1.74135,0.1782 -5.73148,-6.39745 -3.06692,-5.05422 -7.33647,-11.241369 -7.7778,-11.271079 -0.14552,-0.01 -0.26459,0.90921 -0.26459,2.04223 0,1.793669 0.10264,2.106949 0.79375,2.422799 4.87296,2.22705 8.09159,9.63416 6.79319,15.63333 -1.59132,7.35256 -10.56588,12.34501 -17.84962,9.92953 z m 9.10806,-2.86091 c 3.05247,-1.33485 5.62745,-4.65734 6.44832,-8.32025 0.67477,-3.01095 -1.10658,-7.86357 -3.88122,-10.57293 l -1.33675,-1.3053 -0.2524,1.83522 c -0.44156,3.21052 -4.12939,9.5849 -5.40291,9.33887 -0.32671,-0.0631 -0.71309,-0.1269 -0.85861,-0.14174 -0.58,-0.0592 -0.18652,-1.21452 1.47801,-4.33984 2.07535,-3.89667 3.19011,-7.47693 2.53216,-8.13253 -0.72148,-0.7189 -6.36118,-0.45707 -8.26154,0.38355 -3.52771,1.56048 -6.94932,6.8218 -6.94932,10.68578 0,4.85438 3.09498,9.44729 7.51979,11.15924 1.80177,0.69711 6.76863,0.37017 8.96447,-0.59007 z m 37.66824,-0.0199 c 3.10728,-0.88687 3.87121,-1.4545 5.73681,-4.26267 2.0675,-3.11206 2.39742,-4.34605 1.9247,-7.19883 -0.75236,-4.54031 -3.07554,-7.9849 -6.36748,-9.44108 -2.32539,-1.02864 -7.05159,-1.26597 -8.87111,-0.44548 l -1.38735,0.62561 1.45719,2.68778 c 0.80145,1.47828 2.22288,3.66279 3.15873,4.85447 2.88043,3.66782 2.14264,4.29278 -4.35115,3.68578 -6.30485,-0.58935 -5.8861,-0.68659 -5.56058,1.29128 1.15168,6.99779 6.8993,10.30408 14.26024,8.20314 z M 116.55337,110.7252 c 0.11777,-0.30691 0.21413,-0.79299 0.21413,-1.08017 0,-1.06199 1.84415,-4.37199 3.39988,-6.10234 l 1.60404,-1.78408 -1.00266,-1.58706 c -1.21497,-1.923129 -1.2164,-1.923279 -2.33463,-0.233519 -2.80512,4.238829 -5.81972,10.820839 -5.09142,11.116489 1.02425,0.41579 3.0026,0.21287 3.21066,-0.32932 z m 9.01679,-2.35239 c -0.94393,-1.60073 -1.86334,-3.14854 -2.04314,-3.43959 -0.65565,-1.06128 -3.07902,2.22658 -4.09534,5.55625 -0.24148,0.79112 -0.22883,0.79375 3.80621,0.79375 h 4.0485 z m -14.4471,0.82452 c 0,-0.4062 3.65131,-7.9515 5.051,-10.437719 l 1.19165,-2.11666 -8.26842,-0.0748 -8.26841,-0.0748 0.62046,0.95676 c 4.41456,6.807429 9.67372,13.193869 9.67372,11.747259 z"
       id="path6183" /><g
       id="g2"
       style="fill:#d5000b;fill-opacity:1"><g
         id="g1"
         transform="translate(14.30594,19.954241)"
         style="fill:#d5000b;fill-opacity:1"><path
           style="fill:#d5000b;fill-opacity:1;stroke-width:0.352778"
           d="m 64.40938,138.33662 c -0.36964,-0.7276 -1.5638,-3.57646 -2.65369,-6.33079 -1.08988,-2.75434 -3.13715,-7.27871 -4.54949,-10.05417 -3.37357,-6.62959 -6.35212,-13.25774 -10.03571,-22.332401 -1.65396,-4.07458 -3.95449,-9.45559 -5.11228,-11.95779 -1.1578,-2.5022 -2.78987,-6.3122 -3.62683,-8.466669 -0.83696,-2.15446 -2.33006,-5.7966 -3.318,-8.09363 -0.98794,-2.29704 -1.79626,-4.24173 -1.79626,-4.32153 0,-0.0798 3.65125,-0.1451 8.11389,-0.1451 h 8.11389 v 0.90182 c 0,1.28249 3.29667,16.716239 4.78071,22.381509 1.74172,6.64891 2.79799,10.972491 4.17998,17.109721 3.20883,14.25002 5.17392,20.86878 8.31325,28.00044 0.8004,1.81829 1.40839,3.34942 1.35109,3.40251 -0.13464,0.12471 -2.79636,1.229 -2.96234,1.229 -0.0694,0 -0.42857,-0.59531 -0.79821,-1.32292 z"
           id="path6175" /><path
           style="fill:#d5000b;fill-opacity:1;stroke-width:0.352778"
           d="m 125.63979,139.72658 c -0.77851,-0.30705 -1.27026,-0.70969 -1.17379,-0.96109 0.64186,-1.67267 2.70146,-10.81515 3.04415,-13.51289 0.56764,-4.46858 1.58608,-8.85516 5.09129,-21.92917 1.63863,-6.111881 3.31109,-12.938131 3.71657,-15.169451 1.05132,-5.78526 2.08746,-10.403999 2.92798,-13.051879 0.40018,-1.26069 1.05833,-3.64194 1.46256,-5.29167 l 0.73495,-2.9995 8.41002,-0.0947 c 4.62552,-0.0521 8.35614,0.0359 8.29028,0.19557 -1.26679,3.0703 -2.71958,6.22063 -4.99673,10.83519 -1.72153,3.488629 -3.63326,8.137109 -5.00536,12.170839 -1.221,3.58951 -3.16212,8.51075 -4.31359,10.936101 -5.84964,12.32107 -9.17048,20.11078 -13.52278,31.72045 -0.75765,2.02104 -1.81589,4.57596 -2.35164,5.67759 l -0.97409,2.00298 z"
           id="path6173" /><path
           style="fill:#d5000b;fill-opacity:1;stroke-width:0.352778"
           d="m 51.21115,143.80298 c -0.64651,-1.01771 -2.00392,-3.22786 -3.01648,-4.91144 -1.01257,-1.68358 -2.73907,-4.30296 -3.83669,-5.82084 -1.09761,-1.51787 -3.1399,-4.34727 -4.53842,-6.28755 -1.39852,-1.94028 -4.01157,-5.9884 -5.80678,-8.99583 -4.15388,-6.95881 -10.12758,-15.8477 -13.39397,-19.930271 -1.39641,-1.74533 -2.67012,-3.41849 -2.83049,-3.71813 -0.16036,-0.29965 -0.66224,-0.74319 -1.11529,-0.98565 -2.35993,-1.263 -2.40591,-1.54287 -2.40591,-14.644269 V 66.61463 l 4.8145,0.0982 4.8145,0.0981 2.76472,7.40833 c 1.52061,4.07458 3.47426,9.233959 4.34146,11.465279 0.86721,2.23132 2.4697,6.35882 3.56111,9.17222 7.58553,19.553811 13.61561,33.826711 17.99492,42.593041 l 3.21382,6.43331 -1.69276,0.88512 -1.69277,0.88513 z"
           id="path6171" /><path
           style="fill:#d5000b;fill-opacity:1;stroke-width:0.352778"
           d="m 139.06225,146.16054 c -0.53358,-0.28947 -0.97014,-0.6606 -0.97014,-0.82474 0,-0.62537 1.15304,-3.02217 1.62169,-3.37099 0.99163,-0.73804 6.26083,-13.1386 9.67383,-22.76638 0.92855,-2.61938 3.03741,-8.41375 4.68637,-12.87639 3.65014,-9.878581 12.59311,-37.6519 12.59311,-39.10924 0,-0.49728 0.49405,-0.57826 3.52778,-0.57826 h 3.52777 V 77.1455 87.656449 l -3.20455,5.62863 c -5.10295,8.963041 -10.33658,18.441111 -11.89998,21.550751 -0.79343,1.57814 -3.14555,5.62627 -5.22695,8.99583 -2.08139,3.36957 -5.48998,9.41881 -7.57465,13.44275 -3.70816,7.15772 -5.05915,9.45501 -5.54358,9.42656 -0.13231,-0.008 -0.67712,-0.25096 -1.2107,-0.54043 z"
           id="path6169" /><path
           style="fill:#d5000b;fill-opacity:1;stroke-width:0.352778"
           d="m 152.64419,152.31895 c -0.63059,-0.40383 -1.14652,-0.84323 -1.14652,-0.97642 0,-0.9055 1.77113,-4.87893 4.10977,-9.22001 3.31272,-6.14919 9.0942,-18.27459 14.10787,-29.58814 2.03007,-4.58096 3.84159,-8.47982 4.02559,-8.66415 0.21089,-0.21126 0.33454,3.18989 0.33454,9.20162 0,5.24522 -0.11042,9.64719 -0.24539,9.78216 -0.13497,0.13497 -0.27554,0.45075 -0.31238,0.70174 -0.0368,0.25098 -1.29907,2.03232 -2.80498,3.95854 -3.37809,4.32094 -9.97949,14.25757 -13.74697,20.69236 -1.55222,2.65117 -2.9016,4.82621 -2.99861,4.83343 -0.097,0.007 -0.69233,-0.31728 -1.32292,-0.72113 z"
           id="path6167" /><path
           style="fill:#d5000b;fill-opacity:1;stroke-width:0.352778"
           d="m 37.90459,150.68068 c -3.03048,-3.8075 -9.01238,-10.50876 -13.30205,-14.9017 -1.98939,-2.03729 -3.97777,-4.19217 -4.41861,-4.78863 -1.84185,-2.49201 -4.35612,-5.18386 -5.10938,-5.47025 l -0.80743,-0.30699 v -10.76845 c 0,-5.92265 0.11907,-10.76243 0.26459,-10.75507 0.48309,0.0245 3.04182,3.96696 6.74288,10.3895 2.01131,3.49027 4.71025,7.95766 5.99765,9.92752 1.28739,1.96987 2.79236,4.27357 3.34437,5.11934 1.26987,1.94564 7.51463,12.62213 10.47056,17.90124 l 2.24883,4.01626 -1.04069,0.85188 c -2.10872,1.72613 -2.03353,1.74693 -4.39072,-1.21465 z"
           id="path6165" /><path
           style="fill:#d5000b;fill-opacity:1;stroke-width:0.352778"
           d="m 26.59211,159.67968 c -1.38039,-1.21267 -3.52181,-2.93772 -4.75873,-3.83343 -1.23692,-0.89572 -3.16078,-2.46194 -4.27524,-3.4805 -1.11446,-1.01856 -2.39023,-2.01774 -2.83505,-2.22041 -0.69714,-0.31764 -0.81247,-0.64062 -0.83574,-2.34034 -0.0148,-1.08452 -0.0917,-2.28935 -0.17082,-2.6774 -0.0791,-0.38806 -0.24701,-2.84868 -0.37312,-5.46806 l -0.22928,-4.7625 1.07269,1.00455 c 0.58998,0.55251 1.20659,1.02807 1.37025,1.05681 0.16365,0.0288 1.76088,2.40278 3.5494,5.27563 5.17209,8.30783 11.93909,17.53385 12.86053,17.53385 0.72637,0 -1.33566,2.07862 -2.0804,2.09714 -0.47784,0.0119 -1.76616,-0.84269 -3.29449,-2.18534 z"
           id="path6163" /><path
           style="fill:#d5000b;fill-opacity:1;stroke-width:0.352778"
           d="m 163.7036,161.92049 -1.32532,-1.35725 1.13072,-2.24976 c 0.6219,-1.23738 2.05619,-3.68229 3.18731,-5.43314 1.13112,-1.75086 2.77064,-4.69076 3.64337,-6.53311 0.87274,-1.84235 2.07031,-3.81297 2.66128,-4.37916 l 1.07448,-1.02942 v 6.17054 6.17054 l -3.99285,4.56699 c -5.26186,6.01847 -4.78032,5.71095 -6.37899,4.07377 z"
           id="path6161" /><path
           style="fill:#d5000b;fill-opacity:1;stroke-width:0.352778"
           d="m 17.45497,168.8519 -3.91072,-3.61597 0.20528,-5.2825 c 0.1129,-2.90537 0.26195,-5.33917 0.33122,-5.40844 0.41902,-0.41902 1.74216,0.94283 2.43696,2.50824 0.98876,2.22771 3.05822,5.51084 4.82427,7.65354 2.29927,2.78964 3.19843,4.46425 2.64404,4.92436 -0.26493,0.21986 -0.74188,0.94808 -1.0599,1.61825 -0.82882,1.74661 -1.1338,1.61297 -5.47115,-2.39748 z"
           id="path6159" /></g><path
         style="fill:#d5000b;fill-opacity:1;stroke-width:0.352778"
         d="m 108.47722,276.49174 c -1.35819,-1.06878 -3.26319,-2.45638 -4.23333,-3.08356 -0.97014,-0.62719 -5.23401,-4.14344 -9.47527,-7.81389 -8.59654,-7.43958 -20.89828,-17.95335 -35.86245,-30.65006 -6.00238,-5.09288 -10.70272,-9.37093 -11.82182,-10.75973 -4.47778,-5.55691 -11.45573,-18.07662 -11.45573,-20.55364 0,-0.53181 1.25421,-0.23861 2.64583,0.61852 3.93516,2.42373 6.88884,-1.17103 3.90081,-4.74747 l -1.21447,-1.45362 1.09081,-1.75475 c 1.28279,-2.06358 1.27351,-2.06154 3.158,-0.69642 1.77902,1.28871 2.53127,1.32129 4.03449,0.17473 1.79669,-1.3704 1.97585,-3.42709 0.52284,-6.00169 -1.13955,-2.01917 -1.13391,-2.25391 0.0868,-3.60985 0.96177,-1.06834 2.007,-0.9992 3.99979,0.26458 2.94524,1.86782 6.12023,1.1809 6.11462,-1.32291 -0.002,-0.94557 -0.34177,-1.76857 -1.62959,-3.94868 -0.62662,-1.0608 -0.62495,-1.07002 0.38693,-2.12618 1.57325,-1.64212 2.10749,-1.65418 4.17371,-0.0942 5.3778,4.06028 8.6904,1.83185 6.75906,-4.54692 l -0.6602,-2.18051 1.36574,-1.18059 c 1.88132,-1.62627 2.94114,-1.55467 5.42312,0.36639 2.43129,1.88183 4.27345,2.55698 5.37223,1.96894 0.72466,-0.38783 0.75058,-0.56731 0.52537,-3.63763 l -0.23689,-3.22968 2.04954,-0.62385 c 2.78905,-0.84895 3.222,-0.7908 3.91803,0.5263 1.17889,2.23078 2.6826,3.44894 4.25743,3.44894 1.85817,0 2.27005,-0.74195 2.10939,-3.79975 l -0.12142,-2.31087 2.11666,-0.44982 c 3.55543,-0.75557 3.58089,-0.74698 4.21143,1.42201 0.64543,2.22022 1.85724,3.37454 3.54258,3.37454 1.66066,0 2.24439,-0.89485 2.70405,-4.14522 0.46984,-3.32233 0.36572,-3.25092 4.75087,-3.2583 l 2.86169,-0.005 0.23966,2.33922 c 0.36684,3.58052 0.88177,4.51626 2.77736,5.04699 2.68201,0.75092 4.58132,-0.64763 5.04082,-3.71178 0.14034,-0.93592 0.46548,-1.69963 0.77397,-1.81801 0.42141,-0.16171 5.22359,0.81785 5.65884,1.1543 0.0581,0.045 -0.0786,1.13987 -0.30378,2.43317 -0.37197,2.13597 -0.3494,2.41784 0.24623,3.076 2.40411,2.65652 5.38745,2.07917 6.67481,-1.29174 0.33266,-0.87104 0.73293,-1.5837 0.88949,-1.5837 0.90483,0 5.26661,1.91591 5.1245,2.25093 -1.51503,3.57168 -1.05897,4.88154 1.91972,5.51366 2.48871,0.52814 3.77473,0.14343 5.07517,-1.51824 l 0.8348,-1.06666 2.66397,1.26511 2.66397,1.26511 -0.33549,1.1698 c -0.58307,2.03305 -0.4163,4.44504 0.36109,5.22242 1.74837,1.74838 3.9074,1.20856 4.99438,-1.24874 0.8864,-2.00386 1.33267,-1.9674 4.1102,0.33577 l 2.07893,1.72388 -0.99477,1.80389 c -1.01081,1.83299 -1.32601,3.74416 -0.6175,3.74416 0.21453,0 0.8617,0.39688 1.43818,0.88195 1.46217,1.23034 3.1066,1.17369 4.62481,-0.15931 l 1.18592,-1.04126 2.1351,2.18779 2.1351,2.18778 -0.65366,1.41111 c -0.89564,1.93347 -0.84156,2.42836 0.42271,3.86828 1.28527,1.46383 1.4222,1.48132 3.81461,0.48707 l 1.82858,-0.75992 1.39347,1.36069 c 1.82176,1.7789 1.87933,3.07761 0.20822,4.69732 -1.61804,1.56826 -2.15489,3.43913 -1.51762,5.2888 0.62748,1.82128 -0.61026,5.23649 -3.33942,9.2142 -1.95055,2.84291 -29.20205,29.27535 -37.34938,36.22683 -2.23132,1.90381 -6.36339,5.68578 -9.18238,8.40438 -4.13841,3.99103 -9.79363,8.93666 -19.39262,16.95931 -0.44147,0.36897 -0.93842,0.12022 -2.99861,-1.50095 z m 27.34345,-27.82417 c 18.3372,-17.01381 26.4154,-24.44621 34.97243,-32.17662 l 5.16588,-4.66685 -0.32725,-1.4565 c -0.42148,-1.87588 -0.1697,-1.55824 -7.25246,-9.14946 -5.77124,-6.18557 -6.2878,-6.64065 -10.58333,-9.32385 -10.06437,-6.28669 -23.49406,-12.17096 -31.32705,-13.72605 -0.58209,-0.11557 -2.32834,-0.45985 -3.88056,-0.76508 -3.30145,-0.6492 -13.65403,-0.95257 -17.28611,-0.50655 -1.35819,0.16679 -3.26319,0.40568 -4.23333,0.53087 -7.36371,0.95027 -19.1266,5.61299 -27.76402,11.00545 -1.49424,0.93287 -4.82671,2.96613 -7.40548,4.51835 -6.30741,3.79658 -11.63291,9.01938 -16.4274,16.1106 -1.79302,2.65195 -3.26004,5.01877 -3.26004,5.25961 0,2.32948 11.71607,13.69232 23.8125,23.09455 2.71639,2.11138 7.79639,6.62814 11.28889,10.03723 11.52441,11.24919 9.96819,9.86159 24.31044,21.67631 l 4.55489,3.75219 4.08816,-4.00452 c 2.2485,-2.20248 11.94772,-11.29684 21.55384,-20.20968 z"
         id="path6147" /></g><path
       style="fill:#000000;fill-opacity:1;stroke-width:0.352778"
       d="m 108.07332,287.45187 c -6.83358,-4.89294 -18.59462,-14.41573 -32.60523,-26.40012 -2.05071,-1.75414 -6.41634,-5.28092 -9.70138,-7.83728 -3.28505,-2.55637 -7.48094,-5.90134 -9.32421,-7.43326 -1.84326,-1.53192 -5.52401,-4.24819 -8.17944,-6.03615 -3.9614,-2.66729 -5.41068,-3.89766 -8.07384,-6.85425 -8.34243,-9.26161 -11.50912,-14.52199 -15.33608,-25.47564 -0.74567,-2.1343 -1.45381,-3.95993 -1.57363,-4.05694 -0.11981,-0.097 -0.22213,-0.49389 -0.22737,-0.88195 -0.005,-0.38805 -0.43943,-2.58327 -0.9649,-4.87826 -0.52546,-2.295 -1.03016,-5.70812 -1.12154,-7.58473 -0.56521,-11.60639 -1.22795,-34.51308 -1.02109,-35.29254 0.13542,-0.51029 0.2178,-28.4326 0.18305,-62.049589 -0.0518,-50.103611 0.0201,-61.15046 0.39875,-61.280875 0.25406,-0.0875 2.92256,-0.372191 5.92999,-0.63264 6.065,-0.52524 169.30877,-0.321275 170.43206,0.212947 1.37094,0.651997 1.37015,0.623807 1.38939,49.549366 0.0103,26.136111 0.15287,56.807081 0.31687,68.157711 0.34803,24.08825 0.0154,29.29858 -2.98213,46.71237 -4.06496,23.61488 -8.55019,30.05689 -38.45204,55.22766 -7.30631,6.1503 -12.03129,10.52446 -20.28472,18.77857 -5.91785,5.91835 -12.4949,12.23538 -14.61566,14.03786 -8.13179,6.91136 -9.5748,7.32002 -14.18685,4.01774 z m 16.44356,-12.29289 c 5.73027,-5.23299 13.5143,-12.63013 17.29784,-16.4381 7.33112,-7.37844 10.96147,-10.68373 16.05139,-14.61413 1.74625,-1.34845 5.15937,-4.33385 7.58472,-6.63423 2.42535,-2.30039 5.36143,-4.84498 6.52464,-5.65465 4.12134,-2.86875 10.65002,-10.16857 13.1483,-14.70131 1.39601,-2.53285 3.33582,-7.48714 4.48912,-11.46527 0.85936,-2.96425 4.28418,-22.13298 4.44361,-24.87084 0.0395,-0.6791 0.0488,-33.89754 0.0206,-73.81875 L 194.0258,34.377661 H 108.80852 23.59125 l 0.17766,43.127088 c 0.18191,44.157771 0.48248,60.012141 1.3259,69.938201 0.53161,6.25638 0.54469,22.03856 0.0249,30.03889 -0.17837,2.74541 -0.20142,5.92041 -0.0512,7.05555 0.1502,1.13514 0.44658,3.8247 0.65862,5.97678 0.41769,4.23926 1.35881,7.41253 4.5778,15.43545 3.52786,8.79274 9.0159,17.26447 15.84766,24.46361 5.57006,5.86958 20.16319,18.73053 26.87045,23.68096 2.88987,2.13294 7.44004,5.8869 15.875,13.09714 3.00743,2.57076 8.88118,7.25545 13.05278,10.41043 4.17159,3.15496 8.28075,6.31988 9.13146,7.03314 1.50524,1.26203 1.56646,1.27995 2.28132,0.66772 0.40402,-0.34601 5.42299,-4.91064 11.15326,-10.14364 z"
       id="path2762" /><path
       id="rect1337"
       style="fill:#ff0d0d;fill-rule:evenodd;stroke-width:0;fill-opacity:1"
       d="m 99.159878,188.66991 v 20.35181 H 78.812046 l -2.01e-4,20.77416 h 20.347833 v 20.34783 h 20.774162 v -20.34783 h 20.34783 v -20.77416 h -20.34783 v -20.35181 l -20.774162,1.9e-4 z" /><path
       style="fill:#000000;fill-opacity:1;stroke-width:0.0714134"
       d="m 111.99396,126.45524 c -0.057,-0.057 0.007,-0.16858 0.0975,-0.16858 0.037,0 0.0672,0.0482 0.0672,0.10714 0,0.11049 -0.0842,0.14188 -0.16469,0.0614 z"
       id="path16512" /><path
       style="fill:#000000;fill-opacity:1;stroke-width:0.0714134"
       d="m 110.48043,127.71493 c -0.0243,-0.0392 -0.0101,-0.0713 0.0315,-0.0713 0.0416,0 0.0756,0.0321 0.0756,0.0713 0,0.0393 -0.0142,0.0715 -0.0315,0.0715 -0.0173,0 -0.0514,-0.0321 -0.0756,-0.0715 z"
       id="path16510" /><g
       id="g3"
       transform="matrix(0.950799,0,0,0.950799,16.470512,-1.8060243)"
       style="stroke-width:1.05175"><g
         id="g4"
         transform="rotate(-0.27578428,703.12445,-339.40664)"
         style="stroke-width:1.05175"><path
           style="fill:#000000;stroke-width:0.202504"
           d="m 73.862087,101.37963 c -1.896473,-0.7953 -2.68601,-3.123738 -1.655483,-4.8822 1.32232,-2.256365 4.752536,-2.17489 5.872907,0.139489 1.081459,2.233995 -0.31286,4.733611 -2.723327,4.882161 -0.557009,0.0344 -1.229354,-0.0285 -1.494097,-0.13945 z"
           id="path19510" /><path
           style="fill:#000000;stroke-width:0.202504"
           d="m 97.525127,113.96132 c -0.356402,-0.16068 -1.714531,-1.57279 -3.339776,-3.47251 l -2.739122,-3.2017 -3.647785,-1.40134 c -2.00628,-0.77073 -3.707959,-1.40562 -3.781509,-1.41085 -0.07358,-0.005 0.0104,0.48832 0.186595,1.09681 0.416402,1.43814 0.37066,2.07514 -0.189179,2.63445 -0.581072,0.58052 -7.911461,3.58464 -8.656783,3.54769 -0.816304,-0.0405 -1.637982,-1.01165 -1.594695,-1.88485 0.05107,-1.03018 0.652186,-1.46345 3.798502,-2.73779 1.568907,-0.63546 2.870978,-1.16768 2.893485,-1.1827 0.02254,-0.0151 -0.246361,-1.15356 -0.597491,-2.53006 -0.351135,-1.37651 -0.62104,-2.8535 -0.599787,-3.28223 0.03118,-0.628998 0.38359,-1.312488 1.82526,-3.540048 l 1.786611,-2.760554 -1.423013,-4.279811 c -1.722715,-5.181199 -1.71497,-5.145922 -1.290371,-5.875983 0.398425,-0.685041 0.883311,-0.946575 1.681559,-0.907004 1.136485,0.05634 1.51474,0.757645 3.258367,6.041259 0.889292,2.694783 1.605053,5.115896 1.590564,5.380246 -0.01461,0.264345 -0.49146,1.221341 -1.05994,2.126649 -0.663605,1.056784 -0.953035,1.678163 -0.808532,1.735833 0.444903,0.177556 8.181998,3.056453 8.495963,3.161263 0.176631,0.0589 1.711225,-0.2731 3.410204,-0.73792 l 3.089053,-0.845146 3.863943,-3.548919 c 2.12518,-1.951902 4.101,-3.625834 4.39071,-3.719853 0.72661,-0.235787 1.36874,0.0021 1.90299,0.704862 0.82966,1.091412 0.64129,1.494402 -1.81439,3.88168 -1.21541,1.181556 -3.14833,2.986658 -4.29538,4.011336 -2.1948,1.96065 -2.65584,2.20845 -7.04866,3.78857 -0.782658,0.28151 -1.426137,0.57478 -1.42995,0.65168 -0.0156,0.31462 3.650434,5.01704 3.921801,5.03049 0.161611,0.008 2.015539,-0.29898 4.119829,-0.68222 4.75373,-0.86576 4.96887,-0.86675 5.64826,-0.0261 0.67722,0.83801 0.64687,1.61141 -0.0915,2.32992 -0.50304,0.48955 -0.97159,0.61742 -4.83668,1.31987 -4.868403,0.8848 -5.776178,0.96503 -6.619223,0.58494 z"
           id="path19508" /></g></g><path
       style="fill:#000000;stroke-width:0.192541"
       d="m 72.10453,117.84182 c -0.377638,-1.5837 -0.817867,-3.40647 -0.978282,-4.0506 -0.160407,-0.64411 -0.552467,-2.35518 -0.87124,-3.80236 -0.318773,-1.44718 -0.614447,-2.69802 -0.657045,-2.77966 -0.04258,-0.0816 -0.0077,-0.14097 0.07765,-0.13186 0.08532,0.009 0.642027,0.69467 1.237112,1.52348 0.595078,0.8288 1.549059,2.15166 2.11995,2.93969 0.570891,0.78804 1.494665,2.08662 2.052825,2.88574 0.558158,0.79913 1.050389,1.42077 1.093834,1.38142 0.112689,-0.10204 0.917869,-2.47485 1.297023,-3.82221 0.424784,-1.50954 1.554125,-4.85876 1.615392,-4.79068 0.06015,0.0668 0.362247,5.71015 0.414067,7.73476 0.03459,1.35136 0.217693,1.91131 0.414179,1.26665 0.1214,-0.39829 5.023395,-7.6105 5.108687,-7.51631 0.04304,0.0475 -0.08379,0.71429 -0.281835,1.48172 -0.198039,0.76742 -0.540109,2.12377 -0.76016,3.01409 -0.220044,0.89033 -0.653973,2.46426 -0.964286,3.49761 -0.310312,1.03335 -0.534012,1.91218 -0.497103,1.95293 0.03689,0.0408 1.04666,-0.55036 2.243882,-1.31361 3.430681,-2.18711 3.942362,-2.46738 3.750871,-2.05457 -0.08962,0.19319 -0.243068,0.56415 -0.340996,0.82437 -0.390611,1.03786 -2.064725,4.21186 -2.248606,4.26319 -0.107803,0.0301 -0.348874,-0.0691 -0.535716,-0.22051 -0.328131,-0.26584 -0.324644,-0.30518 0.102392,-1.15418 0.243145,-0.48344 0.401849,-0.88097 0.352672,-0.88341 -0.04913,-0.002 -1.211017,0.68701 -2.581888,1.53209 -1.370865,0.84509 -2.524832,1.5008 -2.56438,1.45712 -0.03951,-0.0436 0.124423,-0.80426 0.364377,-1.69021 0.239951,-0.88595 0.507087,-1.9543 0.593634,-2.37412 0.08653,-0.41982 0.26501,-1.04573 0.396578,-1.3909 0.33484,-0.87848 0.164309,-0.92965 -0.321506,-0.0964 -0.224401,0.38486 -1.015147,1.58053 -1.757202,2.65704 l -1.349204,1.95728 -0.127491,-1.9341 c -0.07012,-1.06376 -0.163349,-2.49975 -0.207184,-3.19111 l -0.07969,-1.25701 -0.404276,1.23302 c -0.797373,2.43195 -1.088922,3.26434 -1.168617,3.33651 -0.08529,0.0773 -1.905038,-2.32698 -3.560081,-4.70351 -0.539597,-0.77481 -1.008614,-1.38383 -1.042256,-1.35336 -0.03364,0.0305 0.02827,0.35582 0.137574,0.72303 0.454326,1.5262 1.658113,7.30391 1.544235,7.41172 -0.06788,0.0642 -0.305155,0.16179 -0.527324,0.21678 -0.372371,0.0922 -0.457618,-0.12509 -1.090562,-2.77949 z"
       id="path19506" /><path
       inkscape:original-d="M 0,0"
       inkscape:path-effect="#path-effect5"
       d="m 89.510051,157.42183 c -1.894684,0.0145 -3.819366,-0.6528 -4.709537,-1.63274 -1.11375,-1.22603 -1.552661,-2.44891 -2.211142,-6.16055 l -0.600138,-3.38301 -1.527993,-3.08863 c -2.35034,-4.7509 -2.478751,-5.72227 -0.996137,-7.53527 1.739162,-2.1267 4.130264,-3.59047 7.139655,-4.37072 l 1.731649,-0.44898 0.01674,-0.70465 c 0.0092,-0.38755 -0.02389,-2.1135 -0.07355,-3.83542 -0.04965,-1.72193 -0.06277,-3.29227 -0.02915,-3.48969 0.06694,-0.39306 -0.210869,-0.33237 -1.774382,0.38766 -0.611549,0.28163 -3.985583,1.56253 -4.179229,1.58657 -0.08406,0.0108 -0.744132,-1.51224 -0.682343,-1.57416 0.06961,-0.0697 0.936929,-0.41615 4.720424,-1.8852 1.623595,-0.63041 3.100294,-1.2131 3.281542,-1.29486 0.359309,-0.16208 0.33571,-0.3548 0.369077,3.01407 0.008,0.80904 0.04544,1.49872 0.08318,1.53264 0.03778,0.0338 0.7768,-0.24555 1.642355,-0.621 1.605406,-0.69639 2.892103,-1.21855 5.094898,-2.06762 0.681097,-0.26254 1.83651,-0.72402 2.567582,-1.02554 3.112028,-1.28346 4.081118,-1.66853 5.707168,-2.26773 1.99113,-0.73377 2.37604,-0.95991 2.32384,-1.36542 -0.031,-0.23894 -0.19893,-0.25044 -0.88575,-0.0604 -0.84226,0.23302 -0.84988,0.23014 -1.17695,-0.4441 -0.18107,-0.37328 -0.288,-0.73083 -0.2377,-0.79457 0.0941,-0.11902 5.5298,-2.3231 5.81749,-2.35882 0.19971,-0.0249 0.80326,1.4471 0.6418,1.56511 -0.0648,0.0474 -0.57188,0.26008 -1.12677,0.47264 -1.1899,0.45584 -1.31304,0.60734 -1.27458,1.56826 0.0288,0.71895 0.0614,0.74653 2.9526,2.49258 l 2.92348,1.76559 0.61157,-0.71289 c 2.18519,-2.54732 4.61672,-3.92493 8.01737,-4.54239 2.45318,-0.44539 4.31361,-0.28902 6.8647,0.57705 3.2827,1.11445 5.97916,3.45999 7.61417,6.62326 1.00658,1.94747 1.55395,5.31867 1.23283,7.59288 -0.32689,2.31508 -1.2326,4.37971 -2.77493,6.32571 -2.21459,2.79417 -4.66909,4.25252 -8.20921,4.87752 -2.57264,0.45468 -4.49807,0.31836 -6.79875,-0.47973 -2.9391,-1.01957 -5.41849,-2.9358 -6.99973,-5.4098 -0.41571,-0.6504 -0.76951,-1.1992 -0.78621,-1.21954 -0.0284,-0.0347 -2.39315,0.89132 -4.61595,1.80757 l -0.98754,0.40705 0.89115,1.70316 c 0.82697,1.58052 0.92666,1.69476 1.38488,1.58675 0.43002,-0.10132 0.5353,-0.0168 0.81553,0.65495 0.17696,0.42425 0.29661,0.79655 0.26586,0.82735 -0.0308,0.0307 -0.65698,0.28021 -1.39158,0.55425 -0.7346,0.27404 -1.47492,0.55859 -1.64512,0.63233 -0.21797,0.0946 -0.36854,-0.02 -0.50928,-0.38715 -0.10986,-0.28667 -0.26546,-0.66771 -0.34569,-0.84676 -0.10586,-0.23625 -0.0346,-0.33934 0.26102,-0.37605 0.52675,-0.0655 0.49333,-0.18538 -0.65737,-2.3605 l -0.96866,-1.83091 -8.083007,-4.94429 c -7.109662,-4.34891 -8.087104,-4.89117 -8.117074,-4.50315 -0.01872,0.24261 -0.01796,0.98873 0.0018,1.658 0.03559,1.21013 0.03891,1.21716 0.601546,1.26816 3.653436,0.33121 6.912216,1.93412 9.207921,4.52909 2.618644,2.96004 3.748984,6.57323 3.249854,10.3883 -0.87391,6.67966 -6.620261,11.57007 -13.658181,11.62376 z m 5.711667,-3.11091 c 3.529607,-1.77797 5.982722,-5.49437 6.261622,-9.48616 0.40319,-5.77097 -3.863891,-11.05574 -9.730691,-12.05145 -0.76496,-0.12984 -1.426294,-0.19117 -1.469622,-0.1363 -0.04332,0.0548 -0.02032,2.53782 0.05117,5.51765 0.07148,2.97985 0.08488,5.47498 0.02978,5.54476 -0.05511,0.0698 -0.461355,0.11213 -0.902772,0.094 -0.764658,-0.0313 -0.802235,-0.0623 -0.79546,-0.65713 0.0231,-2.02764 -0.25422,-10.3781 -0.347009,-10.44877 -0.06118,-0.0466 -0.767072,0.096 -1.568706,0.31673 -2.450293,0.67481 -4.916421,2.25827 -6.026251,3.86936 -0.494578,0.71796 -0.513986,0.84323 -0.284238,1.83475 0.135605,0.58531 0.916027,2.43914 1.734213,4.11964 l 1.487615,3.05545 0.535563,3.19769 c 0.75238,4.4923 1.329683,5.62974 3.191979,6.28894 1.70743,0.60442 5.56609,0.0827 7.832813,-1.05923 z M 131.09215,139.5295 c 3.13447,-1.43235 5.57829,-4.49143 6.39149,-8.00068 0.38104,-1.64424 0.1073,-4.83888 -0.55775,-6.50931 -0.82335,-2.06818 -1.87708,-3.43659 -3.74938,-4.86916 -4.24749,-3.24992 -9.18794,-3.3508 -14.04925,-0.28687 -1.03836,0.65447 -2.55476,2.31597 -2.34569,2.57019 0.0612,0.0746 2.55379,1.62679 5.53879,3.44935 2.98497,1.82256 5.43312,3.36159 5.44033,3.42006 0.007,0.0585 -2.72595,1.19596 -6.07365,2.52772 -3.35716,1.33551 -6.07434,2.51744 -6.05912,2.63559 0.0148,0.11789 0.38302,0.73651 0.81743,1.37486 1.62141,2.38259 4.92022,4.30339 8.17102,4.75775 1.57107,0.21958 4.83409,-0.31933 6.47578,-1.06954 z m -18.94033,-5.75872 0.87137,-0.32227 -0.31213,-2.34147 c -0.39703,-2.97898 -0.0887,-5.21637 1.04572,-7.58692 l 0.28506,-0.59564 -0.82914,-0.51504 c -0.45603,-0.28327 -1.56851,-0.98006 -2.47217,-1.54839 -0.90365,-0.56836 -1.67703,-0.99028 -1.71862,-0.93763 -0.0416,0.0527 -0.28235,3.3346 -0.53504,7.29318 -0.25269,3.9586 -0.48047,7.43624 -0.50618,7.7281 l -0.0468,0.53062 1.67324,-0.69115 c 0.92028,-0.38015 2.06538,-0.83616 2.54463,-1.0134 z m -7.57135,0.31507 c -0.005,-0.0374 -0.14452,-0.33604 -0.31039,-0.66392 -0.25498,-0.50388 -0.37217,-0.56911 -0.75739,-0.42166 -0.36729,0.14054 -0.50584,0.0819 -0.71381,-0.30175 -0.54397,-1.00369 -0.45442,-1.13932 1.18955,-1.80165 0.84616,-0.34091 1.60393,-0.57089 1.68393,-0.51107 0.08,0.0598 0.27876,0.37307 0.44163,0.69612 l 0.29617,0.58735 0.0452,-0.59475 c 0.13499,-1.77421 0.62793,-10.00481 0.63689,-10.63416 0.0121,-0.85056 -0.0461,-0.86086 -1.40118,-0.24854 -1.06074,0.4793 -3.14352,1.32234 -6.93741,2.80805 -1.413509,0.55355 -3.16736,1.25949 -3.897427,1.56875 -0.730079,0.30926 -1.793928,0.75379 -2.364104,0.98786 -0.57018,0.23404 -1.066323,0.46306 -1.102542,0.50894 -0.03619,0.0457 0.945275,0.70897 2.181095,1.4736 10.944698,6.77163 11.046488,6.83215 11.009738,6.54683 z m 15.12713,-3.35094 c 2.22753,-0.89761 4.04337,-1.70165 4.03521,-1.78678 -0.0158,-0.17471 -7.88616,-5.03029 -8.10782,-5.00278 -0.24464,0.0306 -0.89067,1.72358 -1.15435,3.02566 -0.29923,1.47762 -0.25879,3.61902 0.0914,4.83948 0.22459,0.78275 0.29673,0.86011 0.66865,0.71691 0.22928,-0.0884 2.23944,-0.89487 4.46696,-1.79249 z m -13.34604,1.67678 c -0.0322,-0.25916 -0.17231,-0.42044 -0.34821,-0.3986 -0.31882,0.0394 -0.33013,0.27252 -0.0465,0.95516 0.13532,0.32558 0.21489,0.36543 0.31443,0.15731 0.0734,-0.15323 0.10946,-0.47447 0.0803,-0.71387 z"
       id="path5"
       style="fill:#000000" /><path
       style="fill:#000000;stroke-width:0.192541;fill-rule:nonzero;stroke:none"
       d="m 88.36569,157.44713 c 0.576278,0.0753 1.144361,-0.0253 1.144361,-0.0253 0,0 -0.566909,-0.0935 -1.119427,-0.16562 -0.737157,-0.0963 -1.445477,-0.28893 -2.055181,-0.55321 -0.609704,-0.26429 -1.120327,-0.60067 -1.463671,-0.97864 -0.550395,-0.60588 -0.929192,-1.2028 -1.256944,-2.11596 -0.327752,-0.91317 -0.60175,-2.14269 -0.930665,-3.99668 l -0.602541,-3.39655 -1.534092,-3.10096 c -1.174323,-2.37374 -1.789054,-3.80127 -1.926275,-4.83927 -0.06861,-0.51901 -0.02066,-0.93938 0.133491,-1.34496 0.15415,-0.40557 0.417327,-0.79794 0.784882,-1.24741 1.725492,-2.10998 4.096224,-3.56245 7.089293,-4.33847 l 1.802004,-0.46722 0.01847,-0.77732 c 0.0093,-0.39355 -0.02466,-2.14485 -0.07356,-3.84047 -0.02977,-1.03244 -0.04639,-2.01059 -0.04767,-2.66937 -5.12e-4,-0.26351 0.0014,-0.47611 0.0059,-0.61934 0.003,-0.0955 0.0083,-0.16444 0.01127,-0.18205 0.01389,-0.0815 0.01894,-0.17075 -0.01872,-0.24125 -0.04299,-0.0805 -0.125111,-0.11266 -0.222317,-0.11189 -0.0447,3.5e-4 -0.09534,0.007 -0.150187,0.0193 -0.274243,0.0599 -0.747773,0.26299 -1.518332,0.61785 -0.354052,0.16304 -1.72277,0.69532 -2.794074,1.09609 -0.428521,0.16031 -0.810913,0.30025 -1.063655,0.38817 -0.101097,0.0352 -0.181685,0.0621 -0.234595,0.0782 -0.03527,0.0108 -0.06397,0.0167 -0.0589,0.0161 0.05327,-0.007 0.06134,0.0158 0.06262,0.017 1.42e-4,1.3e-4 1.84e-4,1.7e-4 1.48e-4,1.4e-4 -4.1e-5,-4e-5 -1.81e-4,-1.9e-4 -3.98e-4,-4.2e-4 -2.42e-4,-2.7e-4 -5.81e-4,-6.4e-4 -9.99e-4,-0.001 -4.63e-4,-5.4e-4 -0.001,-0.001 -0.0017,-0.002 -7.09e-4,-8.7e-4 -0.0015,-0.002 -0.0024,-0.003 -9.83e-4,-0.001 -0.0021,-0.003 -0.0032,-0.004 -0.0013,-0.002 -0.0027,-0.004 -0.0042,-0.006 -0.02389,-0.0341 -0.06591,-0.10858 -0.113083,-0.20193 -0.07076,-0.14004 -0.156331,-0.32585 -0.237101,-0.5127 -0.08077,-0.18684 -0.15694,-0.37519 -0.209229,-0.51998 -0.03486,-0.0965 -0.05916,-0.17626 -0.06613,-0.21263 -3.87e-4,-0.002 -7.22e-4,-0.004 -0.001,-0.006 -2.55e-4,-0.002 -4.67e-4,-0.003 -6.39e-4,-0.004 -1.54e-4,-0.001 -2.76e-4,-0.002 -3.69e-4,-0.003 -8.3e-5,-7.4e-4 -1.43e-4,-0.001 -1.83e-4,-0.002 -3.5e-5,-4.3e-4 -5.6e-5,-7.4e-4 -6.5e-5,-9.2e-4 -8e-6,-1.4e-4 -9e-6,-2.1e-4 -8e-6,-1.5e-4 1.4e-5,6.1e-4 0.01125,0.0162 -0.02408,0.0516 -0.0015,0.002 0.0347,-0.0187 0.03871,-0.0207 0.04808,-0.0245 0.133748,-0.0631 0.265839,-0.1189 0.146768,-0.0619 0.351468,-0.14538 0.630547,-0.25684 0.697695,-0.27865 1.860376,-0.73252 3.752057,-1.46702 1.5224,-0.59111 3.095382,-1.21073 3.286282,-1.29684 0.06189,-0.0279 0.110946,-0.0539 0.134803,-0.0616 0.0029,-9.2e-4 0.0053,-0.002 0.0073,-0.002 7.83e-4,-2e-4 0.0015,-3.5e-4 0.0021,-4.8e-4 5.61e-4,-1.2e-4 0.0011,-2.1e-4 0.0015,-2.9e-4 3.82e-4,-6e-5 7.08e-4,-1.1e-4 9.76e-4,-1.5e-4 2.41e-4,-3e-5 4.36e-4,-5e-5 5.83e-4,-7e-5 0.0013,-1.4e-4 -0.0018,2.6e-4 -0.0064,-0.001 -0.0066,-0.002 -0.0084,-0.004 -0.011,-0.006 -1.9e-4,-1.7e-4 -3.46e-4,-3.1e-4 -4.68e-4,-4.3e-4 -1.36e-4,-1.4e-4 -2.31e-4,-2.3e-4 -2.84e-4,-2.9e-4 -6e-5,-7e-5 -7e-5,-8e-5 -3.1e-5,-3e-5 4.2e-5,5e-5 1.43e-4,1.7e-4 2.98e-4,3.7e-4 0.0015,0.002 0.0082,0.013 0.01489,0.0342 0.02247,0.0707 0.04293,0.24419 0.05469,0.54672 0.01764,0.45378 0.02233,1.2055 0.03434,2.41844 0.0064,0.65044 0.03442,1.35344 0.07443,1.52432 0.003,0.0127 0.01117,0.0525 0.04083,0.0791 0.04151,0.0371 0.09638,0.0266 0.110708,0.0243 0.189984,-0.0294 0.950663,-0.33231 1.634147,-0.62878 1.604295,-0.69591 2.889037,-1.21728 5.091213,-2.06611 0.681663,-0.26276 1.838261,-0.72472 2.569661,-1.02637 3.111793,-1.28336 4.078613,-1.66753 5.703753,-2.2664 1.24337,-0.4582 1.89979,-0.7306 2.18613,-0.9833 0.0736,-0.0649 0.12709,-0.13179 0.1611,-0.2043 0.0431,-0.0919 0.0511,-0.18509 0.0388,-0.28054 -0.0252,-0.19402 -0.13595,-0.2924 -0.38877,-0.27367 -0.14266,0.0106 -0.3501,0.0587 -0.61812,0.13287 -0.21048,0.0582 -0.3677,0.10111 -0.48432,0.12172 -0.11661,0.0206 -0.1881,0.0179 -0.23769,-8.3e-4 -0.0496,-0.0187 -0.0911,-0.0555 -0.14529,-0.13833 -0.0542,-0.0828 -0.11565,-0.20744 -0.19736,-0.37589 -0.0885,-0.18247 -0.15896,-0.36172 -0.2,-0.49893 -0.0246,-0.0823 -0.0382,-0.15092 -0.0402,-0.18758 -1.3e-4,-0.002 -2.2e-4,-0.005 -2.7e-4,-0.007 -4e-5,-0.002 -5e-5,-0.004 -3e-5,-0.005 10e-6,-0.001 5e-5,-0.003 10e-5,-0.004 5e-5,-0.001 1e-4,-0.002 1.7e-4,-0.003 6e-5,-7.7e-4 1.2e-4,-0.001 1.9e-4,-0.002 5e-5,-5.1e-4 1.1e-4,-9.4e-4 1.6e-4,-0.001 4.4e-4,-0.003 0.002,0.003 -0.009,0.016 -0.0157,0.0199 -0.0134,0.0128 -0.009,0.01 5.3e-4,-3.3e-4 0.001,-6.9e-4 0.002,-0.001 7.1e-4,-4.3e-4 0.001,-9.1e-4 0.002,-0.001 9.4e-4,-5.6e-4 0.002,-0.001 0.003,-0.002 0.001,-7.1e-4 0.003,-0.001 0.004,-0.002 0.002,-8.7e-4 0.003,-0.002 0.005,-0.003 0.0697,-0.0386 0.27984,-0.13451 0.56889,-0.25945 0.54197,-0.23428 1.37704,-0.58017 2.22059,-0.92221 0.84355,-0.34204 1.69603,-0.68041 2.27293,-0.8998 0.23076,-0.0877 0.4177,-0.15654 0.54074,-0.19843 0.0492,-0.0168 0.0884,-0.0292 0.11442,-0.0365 0.0173,-0.005 0.0304,-0.007 0.029,-0.007 -0.0169,0.002 -0.0241,-0.003 -0.0211,-0.002 3.4e-4,1.9e-4 7.6e-4,4.5e-4 0.001,7.8e-4 5.7e-4,3.7e-4 0.001,8.2e-4 0.002,0.001 8.5e-4,6e-4 0.002,0.001 0.003,0.002 0.001,9.1e-4 0.002,0.002 0.004,0.003 0.009,0.008 0.0227,0.0216 0.0378,0.04 0.0376,0.046 0.0853,0.12038 0.13406,0.20975 0.0651,0.11915 0.13342,0.26551 0.19454,0.41456 0.0764,0.1863 0.14167,0.37767 0.17684,0.52424 0.0211,0.088 0.0302,0.16161 0.0282,0.19683 -1.4e-4,0.002 -3e-4,0.005 -4.9e-4,0.006 -1.8e-4,0.002 -3.7e-4,0.003 -5.7e-4,0.005 -1.8e-4,0.001 -3.6e-4,0.002 -5.4e-4,0.003 -1.7e-4,8.6e-4 -3.2e-4,0.002 -4.6e-4,0.002 -1.3e-4,5.4e-4 -2.4e-4,9.8e-4 -3.3e-4,0.001 -8e-4,0.003 9.5e-4,-0.007 0.015,-0.0172 0.003,-0.002 -0.0193,0.0115 -0.0489,0.026 -0.0444,0.0217 -0.11258,0.0525 -0.19712,0.0889 -0.21134,0.091 -0.52642,0.21839 -0.85831,0.34553 -0.71389,0.27349 -1.07762,0.44694 -1.23761,0.78068 -0.1054,0.21988 -0.114,0.49958 -0.0987,0.88133 0.018,0.4505 0.041,0.66325 0.71287,1.14248 0.42889,0.30592 1.13415,0.73294 2.28615,1.42866 l 2.99325,1.80772 0.66464,-0.77475 c 1.08669,-1.26677 2.23175,-2.23981 3.52727,-2.97381 1.29552,-0.734 2.74232,-1.22934 4.43423,-1.53654 2.44086,-0.44315 4.27561,-0.28913 6.81655,0.57349 3.25896,1.10639 5.9355,3.43414 7.5596,6.5763 0.49615,0.95993 0.88353,2.2824 1.1048,3.64514 0.22126,1.36274 0.27681,2.76699 0.11823,3.89008 -0.32456,2.29855 -1.22192,4.34497 -2.75506,6.27937 -1.1016,1.38991 -2.2596,2.44397 -3.58126,3.22923 -1.32165,0.78527 -2.80805,1.30235 -4.56925,1.61329 -2.56129,0.45267 -4.46227,0.31787 -6.75045,-0.47588 -2.91965,-1.01283 -5.38137,-2.91617 -6.95016,-5.3707 -0.10396,-0.16264 -0.75981,-1.18845 -0.79283,-1.22866 -0.0194,-0.0237 -0.0457,-0.0318 -0.0564,-0.034 -0.041,-0.009 -0.10646,0.0154 -0.12301,0.0206 -0.43904,0.13774 -2.57744,0.98083 -4.54769,1.79297 l -1.08504,0.44724 0.94004,1.79661 c 0.32585,0.62277 0.54789,1.03495 0.71885,1.2825 0.27933,0.40449 0.46717,0.42551 0.77341,0.35332 0.10374,-0.0244 0.18316,-0.0357 0.24199,-0.0325 0.0588,0.003 0.0968,0.017 0.13959,0.0514 0.0428,0.0344 0.0898,0.0941 0.14254,0.18908 0.0527,0.095 0.11097,0.22367 0.18048,0.39029 0.0841,0.20161 0.15513,0.39155 0.20225,0.53582 0.0314,0.0962 0.0522,0.17389 0.0586,0.21299 4e-4,0.002 7.5e-4,0.005 0.001,0.007 2.7e-4,0.002 4.9e-4,0.004 6.7e-4,0.005 1.6e-4,0.001 2.9e-4,0.003 3.9e-4,0.004 9e-5,9.9e-4 1.5e-4,0.002 2e-4,0.003 4e-5,6.5e-4 6e-5,0.001 7e-5,0.002 2e-5,3.6e-4 2e-5,6e-4 2e-5,7.3e-4 0,1.1e-4 0,1.2e-4 0,1e-5 3e-5,-9.6e-4 -0.008,-0.0154 0.0235,-0.0473 0.0121,-0.0121 0.0119,-0.01 0.0104,-0.009 -1.6e-4,9e-5 -3.5e-4,2.1e-4 -5.9e-4,3.4e-4 -2.5e-4,1.5e-4 -5.5e-4,3.1e-4 -8.9e-4,5e-4 -3.7e-4,2.1e-4 -7.9e-4,4.4e-4 -0.001,7e-4 -5.1e-4,2.8e-4 -0.001,5.8e-4 -0.002,9.1e-4 -0.006,0.003 -0.017,0.009 -0.0309,0.0151 -0.0279,0.0129 -0.0687,0.0307 -0.11971,0.0521 -0.10203,0.0428 -0.24527,0.10045 -0.4158,0.16728 -0.22738,0.0891 -0.50346,0.19463 -0.79684,0.30407 -0.71223,0.2657 -1.47465,0.55833 -1.6498,0.63422 -0.0443,0.0192 -0.0789,0.0252 -0.10691,0.0233 -0.028,-0.002 -0.0516,-0.0104 -0.0801,-0.032 -0.057,-0.0433 -0.1266,-0.14857 -0.19405,-0.32455 -0.10967,-0.28616 -0.2663,-0.66993 -0.34774,-0.85168 -0.0475,-0.106 -0.0425,-0.14885 -0.0288,-0.16862 0.007,-0.01 0.0221,-0.0237 0.0571,-0.0376 0.035,-0.0139 0.0878,-0.0264 0.15671,-0.035 0.15865,-0.0197 0.31499,-0.0474 0.38184,-0.17979 0.0647,-0.12812 0.0191,-0.31292 -0.0817,-0.56081 -0.14104,-0.34691 -0.42747,-0.89695 -0.88428,-1.76045 l -0.98101,-1.85424 -8.105522,-4.95806 c -5.039194,-3.08243 -7.053805,-4.28908 -7.772014,-4.55529 -0.166727,-0.0618 -0.309659,-0.093 -0.404497,-0.0325 -0.06034,0.0385 -0.08229,0.10124 -0.08678,0.15936 -0.01928,0.24985 -0.01764,1.01792 0.0016,1.66824 0.01614,0.54875 0.02384,0.89381 0.101569,1.08272 0.02073,0.0504 0.04744,0.0937 0.0827,0.12989 0.112975,0.11594 0.286498,0.12881 0.504812,0.1486 3.630748,0.32915 6.865726,1.92116 9.144509,4.497 2.601988,2.94122 3.722188,6.52324 3.226498,10.31202 -0.86765,6.63183 -6.569728,11.48663 -13.563455,11.53998 l 0.03776,0.007 -3.8e-5,-1e-5 -0.03702,0.0889 c -4e-6,0 -1.3e-5,1e-5 -1.3e-5,1e-5 0,0 10e-7,1e-5 6e-6,1e-5 l -0.03702,0.0889 0.01814,0.008 a 15.425133,15.425133 0 0 0 0.01967,-1.4e-4 c 7.083843,-0.054 12.872517,-4.97841 13.752907,-11.70754 0.50281,-3.84324 -0.63663,-7.48426 -3.27321,-10.46458 -2.312909,-2.61442 -5.59476,-4.22787 -9.271334,-4.56118 -0.14047,-0.0127 -0.24187,-0.024 -0.304518,-0.0449 -0.03132,-0.0105 -0.05263,-0.0223 -0.06984,-0.037 -0.0172,-0.0147 -0.03161,-0.033 -0.04577,-0.0629 -0.02266,-0.0478 -0.04188,-0.12556 -0.05519,-0.24061 -0.01996,-0.17258 -0.02802,-0.42673 -0.03869,-0.78973 -0.0197,-0.66723 -0.01958,-1.42044 -0.002,-1.64775 4.09e-4,-0.005 0.0011,-0.009 0.0017,-0.0122 2.04e-4,-8.9e-4 4.02e-4,-0.002 5.84e-4,-0.002 1.63e-4,-5.6e-4 3.11e-4,-0.001 4.36e-4,-0.001 1.12e-4,-3.2e-4 2.04e-4,-5.5e-4 2.7e-4,-7.1e-4 5.36e-4,-0.001 -0.0019,0.003 -0.004,0.004 -2.34e-4,1.7e-4 -4.48e-4,3.1e-4 -6.27e-4,4.2e-4 -6.17e-4,3.9e-4 -8.14e-4,4e-4 -1.21e-4,1.5e-4 0.0029,-0.001 0.02387,-0.005 0.06367,0.001 0.06367,0.0102 0.170537,0.0448 0.321632,0.11119 0.226641,0.0996 0.554893,0.26978 1.017728,0.52965 1.15709,0.64967 3.157124,1.86017 6.569612,3.94755 l 8.083012,4.94429 -0.0349,-0.0371 0.96866,1.83091 c 0.41414,0.78282 0.68334,1.29952 0.83128,1.63703 0.0986,0.22501 0.14066,0.37239 0.14251,0.44805 7.7e-4,0.0315 -0.004,0.0489 -0.009,0.0593 -0.005,0.0105 -0.0112,0.0172 -0.0268,0.0266 -0.0313,0.0187 -0.10453,0.0362 -0.20691,0.049 -0.1903,0.0236 -0.33696,0.0796 -0.38013,0.21931 -0.0277,0.0898 -0.002,0.1907 0.0431,0.29165 0.0784,0.17492 0.23445,0.55692 0.34365,0.84185 0.071,0.18519 0.15266,0.32934 0.2573,0.4089 0.11392,0.0866 0.24368,0.0914 0.38014,0.0321 0.15966,-0.0692 0.9065,-0.35666 1.6405,-0.63047 0.62078,-0.23158 1.23225,-0.47169 1.37438,-0.54277 0.009,-0.005 0.0342,-0.0162 0.0517,-0.0337 0.0307,-0.0308 0.0327,-0.0705 0.0329,-0.0856 0.002,-0.13079 -0.15743,-0.55759 -0.27807,-0.84682 -0.16432,-0.39391 -0.28176,-0.6272 -0.47304,-0.7125 -0.13047,-0.0582 -0.27678,-0.0407 -0.45343,9.1e-4 -0.1101,0.026 -0.18641,0.0345 -0.24946,0.0198 -0.0631,-0.0147 -0.12507,-0.0522 -0.21008,-0.14962 -0.17001,-0.19479 -0.40476,-0.6182 -0.81795,-1.4079 l -0.89115,-1.70316 -0.0486,0.13364 0.98754,-0.40705 c 1.99952,-0.82422 4.13036,-1.66129 4.53195,-1.78728 0.004,-0.001 0.009,-0.003 0.0127,-0.004 0.004,-0.001 0.007,-0.002 0.0102,-0.003 0.003,-8.4e-4 0.006,-0.002 0.008,-0.002 0.002,-6.4e-4 0.004,-0.001 0.006,-0.002 0.002,-4.7e-4 0.003,-9e-4 0.005,-0.001 0.001,-3.4e-4 0.003,-6.5e-4 0.004,-9.1e-4 10e-4,-2.4e-4 0.002,-4.4e-4 0.003,-6.2e-4 0.003,-7.7e-4 -0.0239,0.0287 -0.0755,-0.0344 -4e-5,-5e-5 0.1577,0.24179 0.15779,0.24193 0.14524,0.22463 0.37235,0.57823 0.6217,0.96837 1.59349,2.49316 4.09111,4.42271 7.0493,5.4489 2.3177,0.804 4.25801,0.94116 6.84704,0.48358 3.56308,-0.62905 6.03869,-2.09988 8.26792,-4.91252 1.55304,-1.95951 2.46526,-4.03816 2.7948,-6.37205 0.32381,-2.29326 -0.22576,-5.68318 -1.24263,-7.65054 -1.64632,-3.18516 -4.36149,-5.54744 -7.66874,-6.67022 -2.56625,-0.87121 -4.44254,-1.02911 -6.91285,-0.58061 -3.42248,0.62142 -5.87302,2.00959 -8.07324,4.57443 l -0.61157,0.71289 0.12284,-0.0197 -2.92348,-1.76559 c -1.44555,-0.87299 -2.17754,-1.31884 -2.53737,-1.6226 -0.17991,-0.15189 -0.26376,-0.26353 -0.30867,-0.37603 -0.0449,-0.11249 -0.053,-0.23636 -0.0601,-0.41539 -0.0191,-0.47616 0.004,-0.72258 0.15517,-0.90897 0.0757,-0.0932 0.18952,-0.178 0.36132,-0.26793 0.17179,-0.0899 0.40001,-0.18409 0.69634,-0.29761 0.36528,-0.13993 1.05256,-0.41418 1.14914,-0.48482 0.0518,-0.0378 0.0635,-0.10073 0.066,-0.14552 0.005,-0.082 -0.0177,-0.19771 -0.0484,-0.31217 -0.097,-0.36099 -0.39816,-1.09785 -0.61202,-1.24723 -0.028,-0.0196 -0.0682,-0.0394 -0.11597,-0.0335 -0.0854,0.0106 -0.46322,0.15216 -0.72882,0.25316 -0.77188,0.29354 -2.03266,0.79829 -3.10789,1.24074 -0.90811,0.37368 -1.78572,0.74519 -1.97924,0.85219 -0.0129,0.007 -0.046,0.0243 -0.0653,0.0486 -0.0187,0.0238 -0.0265,0.0512 -0.0299,0.0717 -0.0263,0.16011 0.12117,0.54549 0.25653,0.82455 0.15866,0.32706 0.25695,0.53827 0.44791,0.61032 0.18652,0.0704 0.44235,-0.005 0.84133,-0.11546 0.1705,-0.0472 0.3079,-0.0815 0.41648,-0.10261 0.10858,-0.0211 0.18858,-0.0283 0.2401,-0.0248 0.0515,0.004 0.069,0.0143 0.0796,0.0252 0.0106,0.0109 0.0221,0.0334 0.0284,0.0821 0.009,0.0683 0.003,0.12008 -0.0222,0.17411 -0.0253,0.054 -0.074,0.11341 -0.16296,0.18172 -0.10679,0.082 -0.26996,0.17462 -0.50326,0.28281 -0.34996,0.16228 -0.85726,0.3603 -1.57326,0.62416 -1.62775,0.59983 -2.5968,0.98488 -5.710584,2.26906 -0.730028,0.30109 -1.885638,0.76265 -2.5655,1.02471 -2.203954,0.84952 -3.491676,1.37209 -5.098584,2.06913 -0.690557,0.29954 -1.30794,0.53942 -1.527812,0.60106 -0.0055,0.002 -0.01072,0.003 -0.01566,0.004 -0.0044,0.001 -0.0087,0.002 -0.01261,0.003 -0.0036,8.9e-4 -0.0069,0.002 -0.01007,0.002 -0.0028,6.6e-4 -0.0055,0.001 -0.0079,0.002 -0.0022,4.6e-4 -0.0043,8.8e-4 -0.0061,0.001 -0.0017,3.2e-4 -0.0032,6e-4 -0.0046,8.4e-4 -0.0013,2.1e-4 -0.0024,3.8e-4 -0.0034,5.3e-4 -0.0088,0.001 -0.01126,-0.0311 0.04855,0.0224 0.02239,0.0201 0.0196,0.0264 0.01997,0.0274 4.1e-5,1.1e-4 5.7e-5,1.6e-4 5.2e-5,1.4e-4 -5e-6,-1e-5 -3.4e-5,-1e-4 -8.3e-5,-2.5e-4 -5.4e-5,-1.7e-4 -1.31e-4,-4.2e-4 -2.26e-4,-7.4e-4 -1.06e-4,-3.6e-4 -2.33e-4,-8e-4 -3.77e-4,-0.001 -1.6e-4,-5.9e-4 -3.4e-4,-0.001 -5.35e-4,-0.002 -2.17e-4,-8.5e-4 -4.52e-4,-0.002 -7.01e-4,-0.003 -0.0025,-0.0106 -0.006,-0.0305 -0.0094,-0.0562 -0.02726,-0.20546 -0.05359,-0.78089 -0.05997,-1.42618 -0.01642,-1.65792 -0.01848,-2.47813 -0.06302,-2.84189 -0.01612,-0.13165 -0.04026,-0.24445 -0.108343,-0.30194 -0.106556,-0.09 -0.241063,0.001 -0.333567,0.043 -0.158869,0.0717 -1.653505,0.66258 -3.276801,1.29288 -3.245644,1.26021 -4.442454,1.73114 -4.683949,1.85994 -0.02111,0.0113 -0.05179,0.029 -0.06978,0.047 -0.04603,0.0461 -0.03035,0.11603 -0.02649,0.13616 0.05028,0.26231 0.500223,1.29767 0.656922,1.52144 0.01297,0.0185 0.05847,0.0895 0.131918,0.0801 0.113785,-0.0141 0.970086,-0.33211 1.400489,-0.49312 0.715126,-0.26753 1.559358,-0.59198 2.151727,-0.82875 0.291698,-0.1166 0.530798,-0.2154 0.655423,-0.2728 0.56212,-0.25886 0.957529,-0.43201 1.224787,-0.52767 0.178173,-0.0638 0.301178,-0.0914 0.364712,-0.0919 0.02541,-2e-4 0.04015,0.004 0.0458,0.006 0.0042,0.002 0.0039,0.002 0.0042,0.002 3.45e-4,4.1e-4 0.0018,0.002 0.0037,0.009 0.0042,0.0149 0.0056,0.0548 -0.004,0.11102 -0.04073,0.23918 -0.0139,2.06147 0.02782,3.50863 0.04964,1.72129 0.08245,3.45506 0.07354,3.83035 l -0.01674,0.70465 0.07208,-0.0909 -1.731648,0.44898 c -3.027192,0.78487 -5.43633,2.2585 -7.190018,4.40297 -0.753343,0.92121 -1.105246,1.64232 -0.960205,2.73948 0.143353,1.0844 0.773154,2.53154 1.944577,4.89942 l 1.527993,3.08863 -0.0085,-0.0259 0.600139,3.38301 c 0.661062,3.72619 1.104664,4.96453 2.234673,6.20846 0.734706,0.8088 2.134076,1.3971 3.636435,1.59331 z m 8.775057,-4.49696 c -0.909499,0.74028 -1.919029,1.36075 -1.919029,1.36075 0,0 1.101897,-0.44731 2.040578,-1.21143 2.463737,-2.00545 4.092114,-5.04815 4.317084,-8.26802 0.40671,-5.82145 -3.896734,-11.14937 -9.810621,-12.15307 -0.584,-0.0991 -1.286949,-0.18585 -1.473448,-0.14884 -0.01842,0.004 -0.06082,0.0136 -0.08781,0.0478 -0.03073,0.0389 -0.03057,0.12349 -0.03161,0.14148 -0.02801,0.48277 -0.0013,2.79754 0.06206,5.43818 0.02858,1.19154 0.04787,2.30556 0.05721,3.21763 0.0056,0.54724 0.0076,1.02181 0.0059,1.39658 -0.002,0.44973 -0.01047,0.76203 -0.02194,0.86558 -2.87e-4,0.003 -5.72e-4,0.005 -8.53e-4,0.007 -2.53e-4,0.002 -5.03e-4,0.004 -7.48e-4,0.006 -2.2e-4,0.002 -4.36e-4,0.003 -6.44e-4,0.005 -1.88e-4,0.001 -3.7e-4,0.002 -5.43e-4,0.003 -1.56e-4,9.5e-4 -3.04e-4,0.002 -4.43e-4,0.003 -0.0012,0.007 -0.01475,0.0139 0.01252,-0.0206 0.0054,-0.007 0.008,-0.008 0.007,-0.007 -1.11e-4,7e-5 -2.62e-4,1.6e-4 -4.52e-4,2.8e-4 -2.12e-4,1.2e-4 -4.71e-4,2.8e-4 -7.77e-4,4.5e-4 -3.4e-4,1.9e-4 -7.38e-4,4.1e-4 -0.0012,6.5e-4 -5.03e-4,2.7e-4 -0.0011,5.7e-4 -0.0017,8.8e-4 -7.07e-4,3.6e-4 -0.0015,7.4e-4 -0.0024,0.001 -0.01296,0.006 -0.04224,0.0156 -0.08078,0.0237 -0.06424,0.0136 -0.155193,0.0252 -0.260934,0.0325 -0.140987,0.01 -0.308893,0.0121 -0.48205,0.005 -0.190547,-0.008 -0.33441,-0.0158 -0.437523,-0.0312 -0.103113,-0.0154 -0.161253,-0.0385 -0.19212,-0.064 -0.03087,-0.0255 -0.04848,-0.0579 -0.06089,-0.13229 -0.01241,-0.0744 -0.01428,-0.1846 -0.0126,-0.33228 0.0046,-0.40709 -0.0028,-1.06806 -0.01832,-1.86148 -0.05552,-2.83955 -0.216746,-7.48103 -0.303516,-8.42871 -0.0045,-0.0496 -0.01329,-0.15773 -0.03216,-0.19759 -0.003,-0.006 -0.01338,-0.0253 -0.03094,-0.0387 -0.03153,-0.024 -0.07105,-0.0269 -0.09034,-0.028 -0.202537,-0.0108 -0.928044,0.15383 -1.56226,0.32846 -2.464278,0.67867 -4.952375,2.27069 -6.07997,3.90757 -0.510132,0.74053 -0.535309,0.89015 -0.298744,1.91109 0.140476,0.60633 0.94082,2.49563 1.741442,4.14005 l 1.487615,3.05545 -0.0084,-0.0262 0.535563,3.19769 c 0.758417,4.52835 1.352654,5.69049 3.254801,6.36379 1.748321,0.6189 5.636944,0.0802 7.908252,-1.064 l -0.139232,-0.0942 -5e-6,5e-5 0.09591,0.008 c -10e-7,1e-5 1.2e-5,2e-5 1.2e-5,2e-5 0,0 1.4e-5,-1e-5 1.5e-5,-1e-5 l 0.09591,0.008 0.01493,-0.17418 a 7.4713997,7.4713997 0 0 1 -0.154156,0.0799 c -1.11902,0.56374 -2.64322,0.97866 -4.095729,1.17507 -0.726254,0.0982 -1.434804,0.14203 -2.065575,0.12398 -0.630771,-0.0181 -1.184073,-0.0987 -1.596072,-0.24459 -0.458839,-0.16242 -0.832832,-0.35216 -1.149577,-0.61263 -0.316745,-0.26046 -0.57808,-0.59246 -0.808909,-1.04725 -0.461657,-0.90957 -0.794923,-2.31071 -1.170669,-4.55421 l -0.537862,-3.21142 -1.493707,-3.06796 c -0.489921,-1.00627 -0.966654,-2.07571 -1.298146,-2.89464 -0.220995,-0.54595 -0.377893,-0.9847 -0.428838,-1.20459 -0.114538,-0.49431 -0.162356,-0.76272 -0.128154,-0.98349 0.0342,-0.22078 0.151748,-0.41761 0.397886,-0.77492 0.544376,-0.79024 1.429731,-1.58298 2.483187,-2.25939 1.053455,-0.6764 2.274812,-1.23728 3.489341,-1.57176 0.319168,-0.0879 0.623145,-0.16333 0.876036,-0.21907 0.182082,-0.0401 0.337927,-0.0701 0.452331,-0.087 0.07627,-0.0113 0.135502,-0.0164 0.164562,-0.016 0.0018,2e-5 0.0035,6e-5 0.005,1.2e-4 0.0014,5e-5 0.0027,1.1e-4 0.0038,1.8e-4 0.001,6e-5 0.002,1.3e-4 0.0028,2e-4 7.33e-4,6e-5 0.0014,1.2e-4 0.0019,1.8e-4 4.86e-4,6e-5 8.9e-4,1.1e-4 0.0012,1.5e-4 2.83e-4,4e-5 4.92e-4,7e-5 6.22e-4,9e-5 0.0012,1.9e-4 -0.0045,0.003 -0.02347,-0.0118 -0.03885,-0.0296 -0.02887,-0.0378 -0.02784,-0.0326 2.28e-4,0.001 4.7e-4,0.002 7.23e-4,0.004 2.81e-4,0.002 5.76e-4,0.003 8.8e-4,0.005 3.37e-4,0.002 6.87e-4,0.004 0.001,0.007 3.99e-4,0.003 8.09e-4,0.005 0.0012,0.008 4.65e-4,0.003 9.42e-4,0.007 0.0014,0.0105 0.0012,0.009 0.0025,0.0197 0.0038,0.0314 0.05859,0.52368 0.16703,3.24431 0.242418,5.80835 0.05584,1.8993 0.0946,3.72329 0.08541,4.52963 -0.0026,0.226 -0.002,0.40675 0.07018,0.52925 0.112948,0.19162 0.364803,0.20664 0.817591,0.22517 0.344865,0.0142 0.775545,-0.007 0.92463,-0.0848 0.01702,-0.009 0.04138,-0.0251 0.05765,-0.0457 0.03075,-0.0389 0.03312,-0.1209 0.03491,-0.14397 0.03873,-0.49968 0.01934,-2.82191 -0.044,-5.46276 -0.02859,-1.19162 -0.04942,-2.30377 -0.06135,-3.21267 -0.0097,-0.73621 -0.01349,-1.33922 -0.01088,-1.74236 0.0017,-0.26876 0.0071,-0.4537 0.01348,-0.51464 1.76e-4,-0.002 3.51e-4,-0.003 5.21e-4,-0.005 1.53e-4,-0.001 3.02e-4,-0.003 4.46e-4,-0.004 1.29e-4,-10e-4 2.53e-4,-0.002 3.7e-4,-0.003 1.06e-4,-7.4e-4 2.05e-4,-0.001 2.96e-4,-0.002 8.2e-5,-5.2e-4 1.56e-4,-9.8e-4 2.21e-4,-0.001 5.8e-5,-3.4e-4 1.08e-4,-6.1e-4 1.47e-4,-8.2e-4 1.73e-4,-9.2e-4 -0.0017,0.0123 -0.01511,0.0293 -0.02019,0.0256 -0.0302,0.0228 -0.0294,0.0226 8.8e-5,-2e-5 2.77e-4,-7e-5 5.55e-4,-1.4e-4 3.1e-4,-8e-5 7.31e-4,-1.9e-4 0.0013,-3e-4 5.8e-4,-1.3e-4 0.0013,-2.8e-4 0.0021,-4.4e-4 9.08e-4,-1.8e-4 0.002,-3.7e-4 0.0031,-5.7e-4 0.0013,-2.1e-4 0.0028,-4.4e-4 0.0044,-6.6e-4 0.01602,-0.002 0.04528,-0.004 0.0827,-0.004 0.07484,6e-5 0.183615,0.006 0.315049,0.0186 0.262867,0.0244 0.61777,0.0719 0.998204,0.13647 5.81899,0.9876 10.05038,6.23005 9.65076,11.94983 -0.22116,3.16542 -1.823331,6.15964 -4.246553,8.13212 z m 35.685343,-14.54393 c -0.83323,0.60139 -1.73394,1.12326 -1.73394,1.12326 0,0 0.98582,-0.34574 1.84663,-0.96715 2.27503,-1.64217 3.98297,-4.18231 4.63865,-7.0118 0.38609,-1.66606 0.10924,-4.88042 -0.5621,-6.56665 -0.83001,-2.08491 -1.89469,-3.46724 -3.78032,-4.91001 -4.28108,-3.27562 -9.26551,-3.37612 -14.15908,-0.29185 -0.21254,0.13396 -0.4431,0.30815 -0.67342,0.502 -0.72529,0.61046 -1.68779,1.63998 -1.73477,2.05193 -0.006,0.0526 5.4e-4,0.1115 0.0394,0.15876 0.0201,0.0245 0.0862,0.0681 0.10977,0.0841 0.47763,0.32384 2.8084,1.77144 5.45328,3.38634 2.68594,1.63997 4.94881,3.05896 5.3608,3.35528 0.009,0.007 0.0174,0.0126 0.0245,0.0179 0.003,0.002 0.006,0.004 0.008,0.006 0.002,0.002 0.004,0.003 0.006,0.005 0.002,0.001 0.003,0.003 0.005,0.004 0.001,0.001 0.003,0.002 0.004,0.003 0.001,8.6e-4 0.002,0.002 0.003,0.002 7.9e-4,6.6e-4 0.001,0.001 0.002,0.002 0.003,0.002 -0.0125,0.005 -0.0187,-0.0461 -0.009,-0.0723 0.0298,-0.0792 0.0262,-0.0769 -8e-4,5.1e-4 -0.002,0.001 -0.003,0.002 -0.001,7e-4 -0.002,0.001 -0.004,0.002 -0.002,9.4e-4 -0.003,0.002 -0.005,0.003 -0.002,0.001 -0.004,0.002 -0.007,0.004 -0.003,0.001 -0.006,0.003 -0.009,0.005 -0.003,0.002 -0.007,0.004 -0.0111,0.006 -0.004,0.002 -0.009,0.005 -0.014,0.007 -0.44419,0.22686 -2.97524,1.27666 -5.98747,2.47497 -2.91657,1.16024 -5.51556,2.27195 -5.99958,2.57716 -0.0293,0.0185 -0.13053,0.0741 -0.11948,0.15987 0.0228,0.18143 0.54268,0.98988 0.83336,1.41703 1.63883,2.40819 4.96489,4.34156 8.23728,4.79893 1.59483,0.2229 4.87573,-0.32176 6.52912,-1.07732 l -0.13628,-0.0876 v 3e-5 h 0.0963 c 0,1e-5 1e-5,1e-5 1e-5,1e-5 0,0 1e-5,0 1e-5,-1e-5 h 0.0963 l 0,-0.15214 a 5.4962364,5.4962364 0 0 1 -0.13628,0.0645 c -0.80684,0.3687 -2.02876,0.69096 -3.24005,0.89102 -1.21129,0.20005 -2.4166,0.27777 -3.18239,0.17074 -1.61141,-0.22523 -3.23808,-0.81487 -4.66142,-1.64364 -1.42334,-0.82877 -2.64295,-1.89679 -3.44334,-3.07293 -0.25942,-0.38121 -0.49546,-0.75601 -0.64436,-1.01733 -0.0596,-0.10452 -0.10527,-0.19131 -0.13191,-0.25006 -0.0178,-0.0392 -0.026,-0.0712 -0.0253,-0.0656 0.0102,0.0795 -0.0208,0.0645 -0.0111,0.0566 0.001,-8.9e-4 0.002,-0.002 0.004,-0.003 0.002,-0.001 0.003,-0.002 0.005,-0.004 0.002,-0.002 0.004,-0.003 0.007,-0.005 0.003,-0.002 0.006,-0.004 0.009,-0.006 0.004,-0.002 0.008,-0.005 0.0118,-0.008 0.0106,-0.007 0.0228,-0.0143 0.0366,-0.0224 0.27656,-0.16326 1.14748,-0.56062 2.35141,-1.07234 1.00328,-0.42643 2.24317,-0.93583 3.58542,-1.46979 2.96653,-1.18013 5.52021,-2.23538 6.00387,-2.4824 0.0256,-0.0131 0.0495,-0.0261 0.0661,-0.0365 0.008,-0.005 0.072,-0.0398 0.0636,-0.11009 -0.003,-0.0217 -0.0111,-0.0355 -0.0152,-0.042 -0.0197,-0.031 -0.0769,-0.0702 -0.0976,-0.0851 -0.43848,-0.31537 -2.72786,-1.74831 -5.37288,-3.36331 -1.79076,-1.09338 -3.40436,-2.08951 -4.4214,-2.72724 -0.40682,-0.25509 -0.71837,-0.45297 -0.90669,-0.57616 -0.10044,-0.0657 -0.16853,-0.11251 -0.1883,-0.12797 -4.9e-4,-3.8e-4 -9.5e-4,-7.4e-4 -0.001,-0.001 -3.8e-4,-3e-4 -7.2e-4,-5.7e-4 -0.001,-8.2e-4 -0.003,-0.002 -0.004,-0.006 0.004,0.005 0.002,0.002 0.003,0.005 0.003,0.005 1e-5,4e-5 1e-5,5e-5 1e-5,3e-5 -1e-5,-10e-6 -2e-5,-7e-5 -4e-5,-1.5e-4 -3e-5,-1e-4 -6e-5,-2.3e-4 -1e-4,-4.2e-4 -3.7e-4,-0.002 -0.001,-0.009 1.2e-4,-0.0194 0.002,-0.0218 0.0132,-0.0593 0.0336,-0.10511 0.0613,-0.13751 0.20588,-0.34875 0.39956,-0.58383 0.4842,-0.58769 1.27923,-1.34122 1.8864,-1.72392 2.41781,-1.52386 4.84917,-2.25748 7.20151,-2.20945 2.35235,0.048 4.62809,0.87703 6.73791,2.49134 1.86265,1.42518 2.90013,2.77279 3.71844,4.82831 0.3264,0.81984 0.56133,2.03092 0.66468,3.23709 0.10335,1.20616 0.075,2.41105 -0.11128,3.21488 -0.64512,2.78393 -2.32693,5.28455 -4.56376,6.89915 z m -20.53339,-4.79021 c -0.0871,0.0322 -0.14088,0.15475 -0.14088,0.15475 0,0 0.12053,0.0581 0.20767,0.0258 l 0.7693,-0.28452 -0.3223,-2.41778 c -0.39534,-2.96625 -0.09,-5.17724 1.03713,-7.53264 l 0.3223,-0.67346 -0.90242,-0.56056 c -0.45554,-0.28296 -1.56818,-0.97985 -2.47171,-1.5481 -0.68195,-0.42892 -1.5051,-0.907 -1.71588,-0.95216 -0.0212,-0.005 -0.0874,-0.017 -0.12956,0.0364 -0.0142,0.018 -0.0187,0.0363 -0.02,0.0413 -0.007,0.0237 -0.0134,0.0759 -0.0183,0.11722 -0.0722,0.61041 -0.29335,3.68072 -0.51724,7.18822 -0.25269,3.9585 -0.4818,7.451 -0.50601,7.72577 l -0.0607,0.68861 1.81983,-0.7517 c 0.91934,-0.37977 2.06561,-0.83618 2.54126,-1.01209 l -0.0492,0.005 5e-5,10e-6 0.0158,-0.0949 c 0,0 1e-5,-1e-5 1e-5,-1e-5 0,0 0,-1e-5 -1e-5,-1e-5 l 0.0158,-0.095 -0.0252,-0.004 a 12.857835,12.857835 0 0 0 -0.024,0.009 c -0.48096,0.17787 -1.63038,0.63566 -2.54799,1.01471 l -1.67324,0.69115 0.13265,0.0974 0.0468,-0.53063 c 0.0264,-0.29929 0.26156,-3.89543 0.50635,-7.73042 0.10107,-1.58323 0.20022,-3.0582 0.28548,-4.26145 0.11509,-1.62439 0.2073,-2.76834 0.23909,-2.97973 3.5e-4,-0.002 7e-4,-0.005 0.001,-0.007 2.9e-4,-0.002 5.8e-4,-0.004 8.6e-4,-0.005 2.5e-4,-0.001 4.8e-4,-0.003 7.1e-4,-0.004 2.1e-4,-0.001 4e-4,-0.002 5.8e-4,-0.003 1.7e-4,-8.8e-4 3.3e-4,-0.002 4.7e-4,-0.002 1.3e-4,-6.5e-4 2.5e-4,-0.001 3.6e-4,-0.002 4.9e-4,-0.002 0.003,0.004 -0.0141,0.025 -0.0453,0.0573 -0.0696,0.031 -0.0629,0.0324 7.4e-4,1.5e-4 0.002,3.5e-4 0.003,6e-4 0.001,2.8e-4 0.003,6.3e-4 0.004,0.001 0.002,4.7e-4 0.004,0.001 0.006,0.002 0.002,7.1e-4 0.005,0.002 0.008,0.002 0.003,0.001 0.006,0.002 0.0101,0.003 0.004,0.001 0.008,0.003 0.0128,0.005 0.005,0.002 0.0104,0.004 0.0161,0.006 0.22641,0.0905 0.87446,0.45371 1.59516,0.907 0.90334,0.56813 2.01632,1.26524 2.47262,1.54868 l 0.82914,0.51504 -0.036,-0.12334 -0.28506,0.59564 c -1.14278,2.38803 -1.45342,4.64657 -1.05431,7.6412 l 0.31213,2.34147 0.062,-0.10301 z m -7.80711,0.44936 c 0.0546,0.0355 0.0949,0.0205 0.0949,0.0205 0,0 0.0469,-0.0122 0.0583,-0.0834 l 0.0124,-0.005 c -0.0452,-0.11008 -0.16608,-0.3635 -0.29526,-0.61887 -0.15288,-0.3021 -0.27278,-0.48515 -0.46039,-0.53199 -0.12507,-0.0312 -0.25975,0.004 -0.4173,0.0639 -0.1757,0.0672 -0.27302,0.0773 -0.34476,0.0469 -0.0717,-0.0303 -0.14932,-0.1189 -0.25001,-0.30465 -0.13503,-0.24915 -0.228,-0.44197 -0.26623,-0.59001 -0.0191,-0.074 -0.0248,-0.13603 -0.0189,-0.19003 0.006,-0.054 0.0228,-0.10096 0.0551,-0.14988 0.0517,-0.0783 0.14718,-0.16115 0.29934,-0.25155 0.22823,-0.13559 0.57929,-0.28669 1.07155,-0.48501 0.33664,-0.13563 0.65929,-0.25362 0.92928,-0.34223 0.2025,-0.0665 0.37578,-0.11641 0.5008,-0.14466 0.075,-0.0169 0.1339,-0.0257 0.16375,-0.0266 0.002,-6e-5 0.004,-9e-5 0.006,-1e-4 0.002,0 0.003,1e-5 0.004,5e-5 0.001,2e-5 0.002,7e-5 0.003,1.1e-4 8.1e-4,5e-5 0.002,1e-4 0.002,1.5e-4 5.5e-4,4e-5 0.001,9e-5 0.001,1.3e-4 0.003,3.7e-4 -0.002,0.003 -0.0198,-0.0101 0.002,0.001 0.0153,0.0137 0.0311,0.0323 0.0236,0.0279 0.055,0.0704 0.0898,0.12214 0.087,0.12943 0.19649,0.31756 0.29247,0.50794 l 0.45191,0.8962 0.0714,-0.93965 c 0.13113,-1.72339 0.62795,-9.9933 0.63716,-10.64009 0.004,-0.31168 0.009,-0.58175 -0.13011,-0.70468 -0.11274,-0.1 -0.28088,-0.082 -0.49404,-0.0141 -0.21233,0.0677 -0.51237,0.2001 -0.91293,0.3811 -1.05625,0.47727 -3.13936,1.32057 -6.932875,2.80614 -1.411447,0.55274 -3.168697,1.26002 -3.899872,1.56974 -0.729659,0.30909 -1.793633,0.75367 -2.36311,0.98745 -0.466897,0.19165 -0.965832,0.41488 -1.09413,0.49817 -0.0118,0.008 -0.03207,0.0207 -0.04733,0.0401 -0.05709,0.0721 0.01089,0.14374 0.0254,0.15865 0.170348,0.17498 1.197194,0.84819 2.180513,1.45659 6.977251,4.31692 9.567321,5.91864 10.500801,6.42624 0.21965,0.11944 0.36863,0.18984 0.45684,0.21108 0.0628,0.0151 0.1378,0.014 0.1799,-0.0515 0.0314,-0.0489 0.0215,-0.10882 0.0183,-0.1332 l -0.0955,0.10857 h 4e-5 v -0.0963 c 1e-5,0 1e-5,-1e-5 1e-5,-1e-5 0,0 0,-1e-5 -1e-5,-1e-5 v -0.0963 l -0.1148,0 a 1.1573671,1.1573671 0 0 1 0.0193,0.10857 c 4.9e-4,0.004 9.2e-4,0.007 0.001,0.0104 3.2e-4,0.003 5.6e-4,0.005 7.4e-4,0.008 1.6e-4,0.002 2.5e-4,0.004 3.1e-4,0.005 4e-5,0.001 5e-5,0.002 4e-5,0.003 -2e-4,0.0144 -0.0138,-0.0344 0.0461,-0.0487 0.003,-8.1e-4 0.005,-9.4e-4 0.006,-9.7e-4 0.002,-7e-5 -0.005,-1e-5 -0.0168,-0.003 -0.0245,-0.006 -0.0711,-0.0227 -0.13859,-0.054 -0.10118,-0.0468 -0.25056,-0.1255 -0.46385,-0.24604 -1.06647,-0.60271 -3.73216,-2.25091 -10.298975,-6.31389 -0.987225,-0.61082 -1.817802,-1.16205 -2.077336,-1.36953 -0.01298,-0.0104 -0.02446,-0.0198 -0.0343,-0.0282 -0.0039,-0.003 -0.0076,-0.007 -0.011,-0.01 -0.0031,-0.003 -0.0059,-0.005 -0.0085,-0.008 -0.0023,-0.002 -0.0045,-0.004 -0.0064,-0.006 -0.0017,-0.002 -0.0033,-0.003 -0.0047,-0.005 -0.0012,-0.001 -0.0023,-0.002 -0.0033,-0.003 -8.42e-4,-8.9e-4 -0.0016,-0.002 -0.0021,-0.002 -0.0051,-0.006 0.05689,0.0164 -0.0086,0.0991 -0.0094,0.0119 -0.0088,0.009 -0.0052,0.006 4.05e-4,-2.9e-4 8.57e-4,-6.1e-4 0.0014,-9.5e-4 5.53e-4,-3.9e-4 0.0012,-8e-4 0.0018,-0.001 7.32e-4,-5e-4 0.0015,-0.001 0.0024,-0.002 9.5e-4,-6.2e-4 0.002,-0.001 0.0031,-0.002 0.0073,-0.005 0.01752,-0.0107 0.03005,-0.0177 0.03133,-0.0175 0.07691,-0.041 0.133042,-0.0684 0.07485,-0.0365 0.168733,-0.0801 0.275861,-0.12816 0.178546,-0.0801 0.393964,-0.17258 0.621136,-0.26582 0.570592,-0.23424 1.634952,-0.67899 2.365095,-0.98827 0.727527,-0.30819 2.482172,-1.01448 3.89498,-1.56776 3.786856,-1.48295 5.878796,-2.32957 6.941946,-2.80996 0.40613,-0.18352 0.69542,-0.31039 0.89214,-0.37311 0.13114,-0.0418 0.22036,-0.052 0.26469,-0.0441 0.0222,0.004 0.0331,0.01 0.0431,0.0188 0.0101,0.009 0.0205,0.0231 0.0305,0.0492 0.015,0.0391 0.0264,0.10337 0.0316,0.18907 0.005,0.0857 0.005,0.19265 0.003,0.31957 -0.008,0.59104 -0.502,8.8588 -0.63662,10.62823 l -0.0452,0.59475 0.18195,-0.036 -0.29617,-0.58734 c -0.12951,-0.25689 -0.35441,-0.64352 -0.46994,-0.72988 -0.0332,-0.0248 -0.0757,-0.0282 -0.0997,-0.0286 -0.23322,-0.004 -1.0079,0.25755 -1.67784,0.52746 -0.96345,0.38816 -1.45851,0.6124 -1.53758,0.99441 -0.0526,0.25409 0.0862,0.54916 0.29937,0.94242 0.23173,0.42748 0.41898,0.50415 0.83286,0.34578 0.18514,-0.0709 0.27241,-0.0804 0.3463,-0.0392 0.0369,0.0206 0.0784,0.0596 0.12637,0.12739 0.048,0.0678 0.10163,0.16297 0.16441,0.28703 0.13204,0.26102 0.24848,0.50656 0.28896,0.60511 z m 16.46083,-3.94169 c -0.63543,0.2645 -1.23882,0.61121 -1.23882,0.61121 0,0 0.67548,-0.16816 1.31281,-0.43346 1.31031,-0.54543 2.52136,-1.08061 2.74601,-1.24106 0.0159,-0.0113 0.0788,-0.0526 0.0723,-0.12093 -0.003,-0.031 -0.0192,-0.0529 -0.0254,-0.0608 -0.0245,-0.0315 -0.0851,-0.079 -0.13257,-0.11453 -0.70108,-0.52536 -4.25156,-2.7365 -6.3517,-3.98607 -0.59032,-0.35123 -1.07871,-0.63415 -1.36822,-0.78893 -0.11304,-0.0604 -0.22028,-0.1144 -0.27461,-0.13148 -0.0116,-0.004 -0.035,-0.0113 -0.0632,-0.008 -0.0493,0.006 -0.0896,0.0353 -0.11974,0.0633 -0.26013,0.24266 -0.66617,1.32218 -0.91755,2.22017 -0.0776,0.27705 -0.14619,0.55547 -0.19947,0.81857 -0.30137,1.48824 -0.26256,3.64518 0.0932,4.88514 0.10566,0.36824 0.18659,0.6219 0.30121,0.7448 0.13071,0.14014 0.28812,0.11489 0.49461,0.0354 0.23274,-0.0897 2.27552,-0.9094 4.46831,-1.79303 a 2573.3863,2573.3863 0 0 0 0.46037,-0.18556 l -0.49639,0 0,0.0963 c 0,0 -1e-5,1e-5 -1e-5,1e-5 0,0 1e-5,10e-6 1e-5,10e-6 l 0,0.0963 4e-5,0 -0.036,-0.18556 c -2.22744,0.89758 -4.24348,1.70631 -4.46557,1.79194 -0.0893,0.0344 -0.15542,0.0516 -0.19621,0.052 -0.0204,2.2e-4 -0.0342,-0.003 -0.047,-0.008 -0.0128,-0.005 -0.0256,-0.0141 -0.0413,-0.0309 -0.0314,-0.0337 -0.0705,-0.10228 -0.11267,-0.21213 -0.0422,-0.10985 -0.0884,-0.25966 -0.14427,-0.45444 -0.17125,-0.59683 -0.26915,-1.43197 -0.28552,-2.29857 -0.0164,-0.8666 0.0483,-1.76614 0.19594,-2.49525 0.15649,-0.77281 0.45161,-1.69241 0.71246,-2.30373 0.10434,-0.24453 0.20444,-0.44077 0.28164,-0.5523 0.0257,-0.0372 0.049,-0.0647 0.0655,-0.0801 0.008,-0.008 0.0147,-0.0123 0.0175,-0.0139 2.8e-4,-1.6e-4 5.3e-4,-3e-4 7.3e-4,-4.1e-4 1.8e-4,-1e-4 3.3e-4,-1.8e-4 4.5e-4,-2.3e-4 1e-4,-6e-5 1.7e-4,-9e-5 2.2e-4,-1.1e-4 4e-5,-2e-5 6e-5,-3e-5 5e-5,-3e-5 -7e-5,3e-5 -0.002,0.001 -0.007,0.002 -0.0312,0.004 -0.0238,-0.001 -0.0167,9.6e-4 7.8e-4,2.6e-4 0.002,5.6e-4 0.003,8.9e-4 0.001,3.7e-4 0.002,7.8e-4 0.003,0.001 0.001,5e-4 0.003,0.001 0.004,0.002 0.0105,0.004 0.0251,0.0103 0.0428,0.0185 0.0443,0.0204 0.1078,0.0527 0.1867,0.0948 0.1578,0.0844 0.37787,0.20865 0.64345,0.36266 0.79674,0.46205 2.00416,1.19218 3.20204,1.93126 0.79858,0.49272 1.59307,0.98949 2.25919,1.41365 0.79934,0.50899 1.41876,0.91757 1.62464,1.0777 0.0257,0.02 0.045,0.0362 0.0551,0.0458 0.001,9.6e-4 0.002,0.002 0.003,0.003 7.3e-4,7.2e-4 0.001,0.001 0.002,0.002 5e-4,5.2e-4 9.4e-4,9.7e-4 0.001,0.001 3.2e-4,3.4e-4 5.7e-4,6.2e-4 7.5e-4,8.2e-4 0.002,0.002 -0.01,0.01 -0.0143,-0.0394 -0.005,-0.0562 0.0178,-0.0614 0.0188,-0.0624 1.1e-4,-1.1e-4 1.4e-4,-1.3e-4 8e-5,-8e-5 -7e-5,6e-5 -2.4e-4,2.2e-4 -5e-4,4.5e-4 -2.9e-4,2.6e-4 -6.9e-4,6.1e-4 -0.001,0.001 -5.7e-4,4.7e-4 -0.001,0.001 -0.002,0.002 -9e-4,7.2e-4 -0.002,0.002 -0.003,0.002 -0.001,9.9e-4 -0.003,0.002 -0.004,0.003 -0.0164,0.0117 -0.0473,0.0308 -0.0888,0.0538 -0.33157,0.18391 -1.33637,0.6322 -2.61931,1.16624 z m -14.70785,2.17547 c 0.0177,0.0525 0.12299,0.11252 0.12299,0.11252 0,0 0.0887,-0.0862 0.0596,-0.17362 -0.0688,-0.20559 -0.22258,-0.34499 -0.41962,-0.32052 -0.24352,0.0301 -0.36241,0.17019 -0.32819,0.44292 0.0202,0.16069 0.0916,0.37277 0.2046,0.64473 0.0707,0.16997 0.15448,0.3502 0.29234,0.34486 0.0995,-0.004 0.15754,-0.0987 0.19781,-0.18291 0.0858,-0.17907 0.11888,-0.52215 0.089,-0.7671 a 1.2286189,1.2286189 0 0 0 -0.0133,-0.0846 l -0.0823,0 0,0.0963 c 0,0 0,0 0,0 0,0 0,0 0,0 l 0,0.0963 2e-5,0 -0.0956,-0.0846 c 0.0134,0.10984 0.012,0.2443 -0.002,0.36685 -0.0138,0.12256 -0.0417,0.23527 -0.0698,0.29384 -0.0142,0.0297 -0.0273,0.0518 -0.0369,0.0648 -0.001,0.002 -0.003,0.004 -0.004,0.005 -0.001,0.001 -0.002,0.003 -0.003,0.004 -8.4e-4,9.3e-4 -0.002,0.002 -0.002,0.002 -5.9e-4,5.9e-4 -0.001,0.001 -0.002,0.001 -3.7e-4,3.4e-4 -6.7e-4,6e-4 -8.9e-4,7.7e-4 -1.9e-4,1.6e-4 -3.1e-4,2.5e-4 -3.6e-4,2.9e-4 -4.3e-4,3.2e-4 0.007,-0.004 0.0175,-0.005 0.0103,-3.9e-4 0.0187,0.004 0.0185,0.004 -3e-5,-1e-5 -1.3e-4,-8e-5 -3.1e-4,-2.1e-4 -2.1e-4,-1.5e-4 -5e-4,-3.6e-4 -8.8e-4,-6.6e-4 -4.2e-4,-3.4e-4 -9.4e-4,-7.7e-4 -0.002,-0.001 -6.8e-4,-6.1e-4 -0.001,-0.001 -0.002,-0.002 -0.001,-9.7e-4 -0.002,-0.002 -0.003,-0.003 -0.001,-0.001 -0.003,-0.003 -0.004,-0.005 -0.0238,-0.0283 -0.0655,-0.10356 -0.11276,-0.21724 -0.0701,-0.16866 -0.12133,-0.30839 -0.15356,-0.4212 -0.0322,-0.11281 -0.0446,-0.19876 -0.0419,-0.25598 0.003,-0.0572 0.0158,-0.0813 0.0365,-0.10025 0.0207,-0.019 0.0601,-0.0368 0.12841,-0.0452 0.0449,-0.006 0.0799,0.005 0.11647,0.0352 0.0366,0.0299 0.0724,0.082 0.0969,0.15533 z"
       id="path19504"
       inkscape:path-effect="#path-effect4"
       inkscape:original-d="m 89.510051,157.42183 c -1.894684,0.0145 -3.819366,-0.6528 -4.709537,-1.63274 -1.11375,-1.22603 -1.552661,-2.44891 -2.211142,-6.16055 l -0.600138,-3.38301 -1.527993,-3.08863 c -2.35034,-4.7509 -2.478751,-5.72227 -0.996137,-7.53527 1.739162,-2.1267 4.130264,-3.59047 7.139655,-4.37072 l 1.731649,-0.44898 0.01674,-0.70465 c 0.0092,-0.38755 -0.02389,-2.1135 -0.07355,-3.83542 -0.04965,-1.72193 -0.06277,-3.29227 -0.02915,-3.48969 0.06694,-0.39306 -0.210869,-0.33237 -1.774382,0.38766 -0.611549,0.28163 -3.985583,1.56253 -4.179229,1.58657 -0.08406,0.0108 -0.744132,-1.51224 -0.682343,-1.57416 0.06961,-0.0697 0.936929,-0.41615 4.720424,-1.8852 1.623595,-0.63041 3.100294,-1.2131 3.281542,-1.29486 0.359309,-0.16208 0.33571,-0.3548 0.369077,3.01407 0.008,0.80904 0.04544,1.49872 0.08318,1.53264 0.03778,0.0338 0.7768,-0.24555 1.642355,-0.621 1.605406,-0.69639 2.892103,-1.21855 5.094898,-2.06762 0.681097,-0.26254 1.83651,-0.72402 2.567582,-1.02554 3.112028,-1.28346 4.081118,-1.66853 5.707168,-2.26773 1.99113,-0.73377 2.37604,-0.95991 2.32384,-1.36542 -0.031,-0.23894 -0.19893,-0.25044 -0.88575,-0.0604 -0.84226,0.23302 -0.84988,0.23014 -1.17695,-0.4441 -0.18107,-0.37328 -0.288,-0.73083 -0.2377,-0.79457 0.0941,-0.11902 5.5298,-2.3231 5.81749,-2.35882 0.19971,-0.0249 0.80326,1.4471 0.6418,1.56511 -0.0648,0.0474 -0.57188,0.26008 -1.12677,0.47264 -1.1899,0.45584 -1.31304,0.60734 -1.27458,1.56826 0.0288,0.71895 0.0614,0.74653 2.9526,2.49258 l 2.92348,1.76559 0.61157,-0.71289 c 2.18519,-2.54732 4.61672,-3.92493 8.01737,-4.54239 2.45318,-0.44539 4.31361,-0.28902 6.8647,0.57705 3.2827,1.11445 5.97916,3.45999 7.61417,6.62326 1.00658,1.94747 1.55395,5.31867 1.23283,7.59288 -0.32689,2.31508 -1.2326,4.37971 -2.77493,6.32571 -2.21459,2.79417 -4.66909,4.25252 -8.20921,4.87752 -2.57264,0.45468 -4.49807,0.31836 -6.79875,-0.47973 -2.9391,-1.01957 -5.41849,-2.9358 -6.99973,-5.4098 -0.41571,-0.6504 -0.76951,-1.1992 -0.78621,-1.21954 -0.0284,-0.0347 -2.39315,0.89132 -4.61595,1.80757 l -0.98754,0.40705 0.89115,1.70316 c 0.82697,1.58052 0.92666,1.69476 1.38488,1.58675 0.43002,-0.10132 0.5353,-0.0168 0.81553,0.65495 0.17696,0.42425 0.29661,0.79655 0.26586,0.82735 -0.0308,0.0307 -0.65698,0.28021 -1.39158,0.55425 -0.7346,0.27404 -1.47492,0.55859 -1.64512,0.63233 -0.21797,0.0946 -0.36854,-0.02 -0.50928,-0.38715 -0.10986,-0.28667 -0.26546,-0.66771 -0.34569,-0.84676 -0.10586,-0.23625 -0.0346,-0.33934 0.26102,-0.37605 0.52675,-0.0655 0.49333,-0.18538 -0.65737,-2.3605 l -0.96866,-1.83091 -8.083007,-4.94429 c -7.109662,-4.34891 -8.087104,-4.89117 -8.117074,-4.50315 -0.01872,0.24261 -0.01796,0.98873 0.0018,1.658 0.03559,1.21013 0.03891,1.21716 0.601546,1.26816 3.653436,0.33121 6.912216,1.93412 9.207921,4.52909 2.618644,2.96004 3.748984,6.57323 3.249854,10.3883 -0.87391,6.67966 -6.620261,11.57007 -13.658181,11.62376 z m 5.711667,-3.11091 c 3.529607,-1.77797 5.982722,-5.49437 6.261622,-9.48616 0.40319,-5.77097 -3.863891,-11.05574 -9.730691,-12.05145 -0.76496,-0.12984 -1.426294,-0.19117 -1.469622,-0.1363 -0.04332,0.0548 -0.02032,2.53782 0.05117,5.51765 0.07148,2.97985 0.08488,5.47498 0.02978,5.54476 -0.05511,0.0698 -0.461355,0.11213 -0.902772,0.094 -0.764658,-0.0313 -0.802235,-0.0623 -0.79546,-0.65713 0.0231,-2.02764 -0.25422,-10.3781 -0.347009,-10.44877 -0.06118,-0.0466 -0.767072,0.096 -1.568706,0.31673 -2.450293,0.67481 -4.916421,2.25827 -6.026251,3.86936 -0.494578,0.71796 -0.513986,0.84323 -0.284238,1.83475 0.135605,0.58531 0.916027,2.43914 1.734213,4.11964 l 1.487615,3.05545 0.535563,3.19769 c 0.75238,4.4923 1.329683,5.62974 3.191979,6.28894 1.70743,0.60442 5.56609,0.0827 7.832813,-1.05923 z M 131.09215,139.5295 c 3.13447,-1.43235 5.57829,-4.49143 6.39149,-8.00068 0.38104,-1.64424 0.1073,-4.83888 -0.55775,-6.50931 -0.82335,-2.06818 -1.87708,-3.43659 -3.74938,-4.86916 -4.24749,-3.24992 -9.18794,-3.3508 -14.04925,-0.28687 -1.03836,0.65447 -2.55476,2.31597 -2.34569,2.57019 0.0612,0.0746 2.55379,1.62679 5.53879,3.44935 2.98497,1.82256 5.43312,3.36159 5.44033,3.42006 0.007,0.0585 -2.72595,1.19596 -6.07365,2.52772 -3.35716,1.33551 -6.07434,2.51744 -6.05912,2.63559 0.0148,0.11789 0.38302,0.73651 0.81743,1.37486 1.62141,2.38259 4.92022,4.30339 8.17102,4.75775 1.57107,0.21958 4.83409,-0.31933 6.47578,-1.06954 z m -18.94033,-5.75872 0.87137,-0.32227 -0.31213,-2.34147 c -0.39703,-2.97898 -0.0887,-5.21637 1.04572,-7.58692 l 0.28506,-0.59564 -0.82914,-0.51504 c -0.45603,-0.28327 -1.56851,-0.98006 -2.47217,-1.54839 -0.90365,-0.56836 -1.67703,-0.99028 -1.71862,-0.93763 -0.0416,0.0527 -0.28235,3.3346 -0.53504,7.29318 -0.25269,3.9586 -0.48047,7.43624 -0.50618,7.7281 l -0.0468,0.53062 1.67324,-0.69115 c 0.92028,-0.38015 2.06538,-0.83616 2.54463,-1.0134 z m -7.57135,0.31507 c -0.005,-0.0374 -0.14452,-0.33604 -0.31039,-0.66392 -0.25498,-0.50388 -0.37217,-0.56911 -0.75739,-0.42166 -0.36729,0.14054 -0.50584,0.0819 -0.71381,-0.30175 -0.54397,-1.00369 -0.45442,-1.13932 1.18955,-1.80165 0.84616,-0.34091 1.60393,-0.57089 1.68393,-0.51107 0.08,0.0598 0.27876,0.37307 0.44163,0.69612 l 0.29617,0.58735 0.0452,-0.59475 c 0.13499,-1.77421 0.62793,-10.00481 0.63689,-10.63416 0.0121,-0.85056 -0.0461,-0.86086 -1.40118,-0.24854 -1.06074,0.4793 -3.14352,1.32234 -6.93741,2.80805 -1.413509,0.55355 -3.16736,1.25949 -3.897427,1.56875 -0.730079,0.30926 -1.793928,0.75379 -2.364104,0.98786 -0.57018,0.23404 -1.066323,0.46306 -1.102542,0.50894 -0.03619,0.0457 0.945275,0.70897 2.181095,1.4736 10.944698,6.77163 11.046488,6.83215 11.009738,6.54683 z m 15.12713,-3.35094 c 2.22753,-0.89761 4.04337,-1.70165 4.03521,-1.78678 -0.0158,-0.17471 -7.88616,-5.03029 -8.10782,-5.00278 -0.24464,0.0306 -0.89067,1.72358 -1.15435,3.02566 -0.29923,1.47762 -0.25879,3.61902 0.0914,4.83948 0.22459,0.78275 0.29673,0.86011 0.66865,0.71691 0.22928,-0.0884 2.23944,-0.89487 4.46696,-1.79249 z m -13.34604,1.67678 c -0.0322,-0.25916 -0.17231,-0.42044 -0.34821,-0.3986 -0.31882,0.0394 -0.33013,0.27252 -0.0465,0.95516 0.13532,0.32558 0.21489,0.36543 0.31443,0.15731 0.0734,-0.15323 0.10946,-0.47447 0.0803,-0.71387 z"
       inkscape:linked-fill="path5" /></g></svg>
