<?xml version="1.0" encoding="UTF-8" standalone="no"?>
<!-- Created with Inkscape (http://www.inkscape.org/) -->

<svg
   width="34.924999mm"
   height="20.637501mm"
   viewBox="0 0 34.924999 20.637502"
   version="1.1"
   id="svg8"
   sodipodi:docname="drawing_steve_pix.svg"
   inkscape:version="1.2.2 (b0a8486, 2022-12-01)"
   inkscape:export-filename="../pngs/logo_pix.png"
   inkscape:export-xdpi="300"
   inkscape:export-ydpi="300"
   xmlns:inkscape="http://www.inkscape.org/namespaces/inkscape"
   xmlns:sodipodi="http://sodipodi.sourceforge.net/DTD/sodipodi-0.dtd"
   xmlns="http://www.w3.org/2000/svg"
   xmlns:svg="http://www.w3.org/2000/svg"
   xmlns:rdf="http://www.w3.org/1999/02/22-rdf-syntax-ns#"
   xmlns:cc="http://creativecommons.org/ns#"
   xmlns:dc="http://purl.org/dc/elements/1.1/">
  <defs
     id="defs2">
    <rect
       x="258.91763"
       y="-13.843043"
       width="196.42795"
       height="54.311832"
       id="rect914" />
    <rect
       x="128.24841"
       y="18.54253"
       width="244.25462"
       height="90.888145"
       id="rect464" />
    <rect
       x="125.55771"
       y="22.657415"
       width="321.90393"
       height="103.49782"
       id="rect348" />
    <rect
       x="125.55771"
       y="22.657415"
       width="270.40292"
       height="85.832306"
       id="rect540" />
    <filter
       inkscape:label="Pixellize"
       inkscape:menu="Pixel Tools"
       inkscape:menu-tooltip="Reduce or remove antialiasing around shapes"
       style="color-interpolation-filters:sRGB"
       id="filter583"
       x="0"
       y="0"
       width="1"
       height="1">
      <feColorMatrix
         values="1 0 0 0 0 0 1 0 0 0 0 0 1 0 0 0 0 0 1000 -500 "
         id="feColorMatrix581"
         result="fbSourceGraphic" />
      <feColorMatrix
         result="fbSourceGraphicAlpha"
         in="fbSourceGraphic"
         values="0 0 0 -1 0 0 0 0 -1 0 0 0 0 -1 0 0 0 0 1 0"
         id="feColorMatrix585" />
      <feColorMatrix
         id="feColorMatrix587"
         values="1 0 0 0 0 0 1 0 0 0 0 0 1 0 0 0 0 0 1000 -500 "
         in="fbSourceGraphic" />
    </filter>
    <rect
       x="125.55771"
       y="22.657415"
       width="321.90393"
       height="103.49782"
       id="rect629" />
    <rect
       x="125.55771"
       y="22.657415"
       width="321.90393"
       height="103.49782"
       id="rect3273" />
    <rect
       x="128.24841"
       y="18.54253"
       width="244.25462"
       height="90.888145"
       id="rect5188" />
    <rect
       x="128.24841"
       y="18.54253"
       width="244.25462"
       height="90.888145"
       id="rect7455" />
    <rect
       x="128.24841"
       y="18.54253"
       width="244.25462"
       height="90.888145"
       id="rect644" />
    <clipPath
       clipPathUnits="userSpaceOnUse"
       id="clipPath8355">
      <rect
         style="fill:none;stroke:#ff0000;stroke-width:0.18"
         id="rect8357"
         width="34.736427"
         height="18.829712"
         x="-9.2568693"
         y="5.1933136" />
    </clipPath>
    <rect
       x="258.91763"
       y="-13.843043"
       width="196.42795"
       height="54.311832"
       id="rect969" />
    <inkscape:path-effect
       effect="fill_between_many"
       method="originald"
       linkedpaths="#g33593,0,1"
       id="path-effect34362"
       is_visible="true"
       lpeversion="0"
       join="true"
       close="true"
       autoreverse="true" />
    <rect
       x="258.91763"
       y="-13.843043"
       width="196.42795"
       height="54.311832"
       id="rect27130" />
  </defs>
  <sodipodi:namedview
     id="base"
     pagecolor="#ffffff"
     bordercolor="#666666"
     borderopacity="1.0"
     inkscape:pageopacity="0.0"
     inkscape:pageshadow="2"
     inkscape:zoom="8.5741877"
     inkscape:cx="65.312309"
     inkscape:cy="43.094461"
     inkscape:document-units="mm"
     inkscape:current-layer="layer7"
     showgrid="true"
     inkscape:window-width="1920"
     inkscape:window-height="997"
     inkscape:window-x="0"
     inkscape:window-y="28"
     inkscape:window-maximized="1"
     inkscape:showpageshadow="2"
     inkscape:pagecheckerboard="true"
     inkscape:deskcolor="#d1d1d1"
     showguides="false">
    <inkscape:grid
       type="xygrid"
       id="grid836"
       empspacing="1"
       spacingx="0.79375001"
       spacingy="0.79375001"
       dotted="true"
       enabled="true"
       visible="true"
       snapvisiblegridlinesonly="true"
       originx="-7.3436624e-18"
       originy="0" />
  </sodipodi:namedview>
  <metadata
     id="metadata5">
    <rdf:RDF>
      <cc:Work
         rdf:about="">
        <dc:format>image/svg+xml</dc:format>
        <dc:type
           rdf:resource="http://purl.org/dc/dcmitype/StillImage" />
      </cc:Work>
    </rdf:RDF>
  </metadata>
  <g
     inkscape:groupmode="layer"
     id="layer2"
     inkscape:label="background"
     style="display:inline">
    <rect
       style="display:inline;fill:#000000;fill-opacity:1;stroke:#000000;stroke-width:0.365001;stroke-dasharray:none;stroke-opacity:1"
       id="rect3396"
       width="34.924999"
       height="20.637501"
       x="-2.8473396e-08"
       y="3.6774008e-08"
       inkscape:export-filename="../label2.png"
       inkscape:export-xdpi="400.02499"
       inkscape:export-ydpi="400.02499" />
  </g>
  <g
     inkscape:groupmode="layer"
     id="layer7"
     inkscape:label="smooth 1"
     style="display:inline"
     transform="translate(-6.9788876,0.78277388)">
    <ellipse
       style="display:inline;fill:#ca7420;fill-opacity:1;stroke:#000000;stroke-width:0.1;stroke-miterlimit:4;stroke-dasharray:none;stroke-opacity:1"
       id="ellipse397"
       cx="17.861235"
       cy="11.123476"
       inkscape:export-xdpi="25.400002"
       inkscape:export-ydpi="25.400002"
       inkscape:export-filename="/home/ben/path815.png"
       rx="15.311402"
       ry="13.493751" />
    <ellipse
       style="display:inline;fill:#e10606;fill-opacity:1;stroke:#000000;stroke-width:0.101119;stroke-miterlimit:4;stroke-dasharray:none;stroke-opacity:1"
       id="ellipse399"
       transform="matrix(-0.99114523,0.13278229,0.33661057,0.94164395,0,0)"
       ry="2.1131799"
       rx="3.0370548"
       cy="16.708122"
       cx="-7.8567586" />
  </g>
  <g
     inkscape:groupmode="layer"
     id="layer3"
     inkscape:label="pix1"
     style="display:none">
    <g
       id="g29132"
       style="display:inline" />
    <rect
       style="display:inline;fill:#e10606;fill-opacity:1;stroke:#cd7620;stroke-width:0;stroke-linejoin:miter;stroke-dasharray:none;stroke-opacity:0.866667"
       id="rect24648"
       width="0.79374999"
       height="6.5146975e-07"
       x="6.3499994"
       y="-18.25625"
       transform="scale(1,-1)" />
    <rect
       style="display:inline;fill:#e10606;fill-opacity:1;stroke:#cd7620;stroke-width:0;stroke-linejoin:miter;stroke-dasharray:none;stroke-opacity:0.866667"
       id="rect24661"
       width="0.79374999"
       height="0.79374999"
       x="4.7624998"
       y="15.875001" />
    <path
       style="display:inline;fill:#ce7621;fill-opacity:0.980392;stroke:#000000;stroke-width:0.132292;stroke-linecap:butt;stroke-linejoin:miter;stroke-dasharray:none;stroke-opacity:1"
       d="m 0,20.6375 h 20.6375 v 0 h 0.79375 V 19.84375 H 22.225 V 19.05 h 0.79375 V 18.25625 H 23.8125 V 17.4625 h 0.79375 v -3.175 H 25.4 V 8.7312501 h -0.79375 v -3.96875 l -0.79375,8e-7 v -0.79375 h -0.79375 v -0.79375 H 22.225 v -0.79375 H 21.43125 V 1.587501 H 20.6375 V 0.79375086 H 19.84375 V 8.5e-7 H 19.05 V 0 H 0.79375001 V 0.79375001 H 0 Z"
       id="path8745"
       sodipodi:nodetypes="ccccccccccccccccccccccccccccccccccc" />
    <path
       inkscape:original-d="M 0,0"
       inkscape:path-effect="#path-effect34362"
       d="M 0,0"
       id="path34364"
       class="UnoptimicedTransforms"
       style="display:inline" />
    <path
       style="display:inline;fill:#e10606;fill-opacity:1;stroke:#000000;stroke-width:0.079375;stroke-linecap:butt;stroke-linejoin:miter;stroke-dasharray:none;stroke-opacity:1"
       d="m 4.7625001,13.49375 h 3.96875 v 0.79375 h 0.79375 v 0.79375 H 10.31875 V 15.875 H 9.5250001 v 0.79375 h -0.79375 v 0.79375 h -3.96875 v -0.79375 h -0.79375 V 15.875 h -0.79375 v -0.79375 h 0.79375 V 14.2875 h 0.79375 v -0.79375"
       id="path16461" />
  </g>
  <g
     inkscape:groupmode="layer"
     id="layer4"
     inkscape:label="txt"
     style="display:inline">
    <g
       aria-label=".com ."
       transform="matrix(0.26458333,0,0,0.26458333,-77.038154,11.822696)"
       id="text27128"
       style="font-weight:300;font-size:26.6667px;line-height:1.25;font-family:Tourney;-inkscape-font-specification:'Tourney Light';text-align:center;letter-spacing:0px;word-spacing:0px;white-space:pre;shape-inside:url(#rect27130);display:inline;stroke:#000101;stroke-width:0">
      <path
         d="m 336.71988,7.2997969 q 0,0 0,1.008 0,0 1.008,0 0,0 0,1.9920001 0,0 -1.008,0 0,0 0,1.008 0,0 -1.992,0 0,0 0,-1.008 0,0 -1.008,0 0,0 0,-1.9920001 0,0 1.008,0 0,0 0,-1.008 0,0 1.992,0 z"
         style="font-size:24px;display:inline;fill:#ffffff"
         id="path37309" />
      <path
         d="m 339.95986,11.307797 q 0,0 0,-1.008 0,0 -1.008,0 0,0 0,-9.0000001 0,0 1.008,0 0,0 0,-0.98399997 0,0 0.984,0 0,0 0,-1.008 0,0 7.008,0 0,0 0,1.008 0,0 1.008,0 0,0 0,3.98399997 0,0 -4.008,0 0,0 0,-1.992 0,0 -1.008,0 0,0 0,1.008 0,0 -0.984,0 0,0 0,4.992 0,0 1.992,0 0,0 0,-1.008 0,0 4.008,0 0,0 0,3.0000001 0,0 -1.008,0 0,0 0,1.008 0,0 -7.992,0 z"
         style="font-size:24px;fill:#ffffff"
         id="path37311" />
      <path
         d="m 356.15983,7.2997969 q 0,0 0,-4.992 0,0 -1.008,0 0,0 0,1.008 0,0 -0.984,0 0,0 0,4.992 0,0 0.984,0 0,0 0,-1.008 0,0 1.008,0 z m 3,-6.98399997 q 0,0 1.008,0 0,0 0,8.99999997 0,0 -1.008,0 0,0 0,0.9840001 0,0 -1.008,0 0,0 0,1.008 0,0 -6.984,0 0,0 0,-1.008 0,0 -1.008,0 0,0 0,-9.0000001 0,0 1.008,0 0,0 0,-0.98399997 0,0 0.984,0 0,0 0,-1.008 0,0 7.008,0 0,0 0,1.008 z"
         style="font-size:24px;fill:#ffffff"
         id="path37313" />
      <path
         d="m 373.36781,3.3157969 q 0,0.168 0,0.504 0,0.312 0,0.48 h -1.008 q 0,0 0,7.0080001 0,0 -3.984,0 0,0 0,-7.9920001 0,0 -1.008,0 0,0 0,0.984 0,0 -1.008,0 0,0 0,7.0080001 0,0 -3.984,0 0,0 0,-10.0080001 0,0 -1.008,0 0,0 0,-1.99199997 0,0 4.992,0 0,0 0,1.99199997 0,0 1.008,0 0,0 0,-0.98399997 0,0 1.008,0 0,0 0,-1.008 0,0 3.984,0 0,0 0,1.99199997 0,0 1.008,0 0,0 0,-0.98399997 0,0 1.008,0 0,0 0,-1.008 0,0 3,0 0,0 0,1.008 0,0 0.984,0 0,0 0,8.99999997 0,0 1.008,0 0,0 0,1.9920001 0,0 -4.992,0 0,0 0,-7.9920001 0,0 -1.008,0 z"
         style="font-size:24px;fill:#ffffff"
         id="path37315" />
      <path
         d="m 262.25131,61.166958 q 0,0 0,1.120001 0,0 1.12,0 0,0 0,2.213337 0,0 -1.12,0 0,0 0,1.120001 0,0 -2.21334,0 0,0 0,-1.120001 0,0 -1.12,0 0,0 0,-2.213337 0,0 1.12,0 0,0 0,-1.120001 0,0 2.21334,0 z"
         style="font-weight:normal;font-family:Steven;-inkscape-font-specification:Steven"
         id="path37317" />
    </g>
    <text
       xml:space="preserve"
       transform="matrix(0.26458333,0,0,0.26458333,-81.02809,7.3268958)"
       id="text912"
       style="font-weight:300;font-size:26.6667px;line-height:1.25;font-family:Tourney;-inkscape-font-specification:'Tourney Light';text-align:center;letter-spacing:0px;word-spacing:0px;white-space:pre;shape-inside:url(#rect914);display:inline;stroke:#000101;stroke-width:0;stroke-dasharray:none;stroke-opacity:1"><tspan
         x="316.57184"
         y="11.307797"
         id="tspan1687"><tspan
           style="font-weight:normal;font-family:Steven;-inkscape-font-specification:Steven"
           id="tspan1685">RDSPT
</tspan></tspan><tspan
         x="258.91797"
         y="65.620297"
         id="tspan1691"><tspan
           style="font-weight:normal;font-family:Steven;-inkscape-font-specification:Steven"
           id="tspan1689">.</tspan></tspan></text>
  </g>
  <g
     inkscape:groupmode="layer"
     id="layer5"
     inkscape:label="spot_alt"
     style="display:inline" />
  <g
     inkscape:groupmode="layer"
     id="layer6"
     inkscape:label="spot_alt_2"
     style="display:none">
    <path
       style="display:none;fill:#e10606;fill-opacity:1;stroke:#000000;stroke-width:0.105833;stroke-linecap:butt;stroke-linejoin:miter;stroke-dasharray:none;stroke-opacity:1"
       d="m 3.175,15.875 h 3.96875 v 0.79375 H 7.9375 v 0.79375 0 0.79375 0 V 19.05 H 7.14375 v 0.79375 H 3.175 V 19.05 H 2.38125 v -0.79375 0 -0.79375 0 -0.79375 H 3.175 V 15.875"
       id="path21251"
       sodipodi:nodetypes="ccccccccccccccccccccc" />
  </g>
  <g
     inkscape:groupmode="layer"
     id="layer8"
     inkscape:label="box"
     style="display:none"
     inkscape:export-filename="logo_smooth_box.png"
     inkscape:export-xdpi="300"
     inkscape:export-ydpi="300">
    <rect
       style="fill:#ffffff;fill-opacity:0.00132829;stroke:#0051ff;stroke-width:0.132292;stroke-dasharray:none;stroke-opacity:1"
       id="rect31457"
       width="26.987501"
       height="22.225"
       x="-7.3436632e-18"
       y="0" />
  </g>
</svg>
