<?xml version="1.0" encoding="UTF-8" standalone="no"?>
<!-- Created with Inkscape (http://www.inkscape.org/) -->

<svg
   width="3.5cm"
   height="2.2cm"
   viewBox="0 0 35 22"
   version="1.1"
   id="svg8"
   sodipodi:docname="drawing.svg"
   inkscape:version="1.2.2 (b0a8486, 2022-12-01)"
   inkscape:export-filename="../lab.png"
   inkscape:export-xdpi="400.02499"
   inkscape:export-ydpi="400.02499"
   xmlns:inkscape="http://www.inkscape.org/namespaces/inkscape"
   xmlns:sodipodi="http://sodipodi.sourceforge.net/DTD/sodipodi-0.dtd"
   xmlns="http://www.w3.org/2000/svg"
   xmlns:svg="http://www.w3.org/2000/svg"
   xmlns:rdf="http://www.w3.org/1999/02/22-rdf-syntax-ns#"
   xmlns:cc="http://creativecommons.org/ns#"
   xmlns:dc="http://purl.org/dc/elements/1.1/">
  <defs
     id="defs2">
    <rect
       x="128.24841"
       y="18.54253"
       width="244.25462"
       height="90.888145"
       id="rect464" />
    <rect
       x="125.55771"
       y="22.657415"
       width="321.90393"
       height="103.49782"
       id="rect348" />
    <rect
       x="125.55771"
       y="22.657415"
       width="270.40292"
       height="85.832306"
       id="rect540" />
    <filter
       inkscape:label="Pixellize"
       inkscape:menu="Pixel Tools"
       inkscape:menu-tooltip="Reduce or remove antialiasing around shapes"
       style="color-interpolation-filters:sRGB"
       id="filter583"
       x="0"
       y="0"
       width="1"
       height="1">
      <feColorMatrix
         values="1 0 0 0 0 0 1 0 0 0 0 0 1 0 0 0 0 0 1000 -500 "
         id="feColorMatrix581"
         result="fbSourceGraphic" />
      <feColorMatrix
         result="fbSourceGraphicAlpha"
         in="fbSourceGraphic"
         values="0 0 0 -1 0 0 0 0 -1 0 0 0 0 -1 0 0 0 0 1 0"
         id="feColorMatrix585" />
      <feColorMatrix
         id="feColorMatrix587"
         values="1 0 0 0 0 0 1 0 0 0 0 0 1 0 0 0 0 0 1000 -500 "
         in="fbSourceGraphic" />
    </filter>
    <rect
       x="125.55771"
       y="22.657415"
       width="321.90393"
       height="103.49782"
       id="rect629" />
    <rect
       x="125.55771"
       y="22.657415"
       width="321.90393"
       height="103.49782"
       id="rect3273" />
    <rect
       x="128.24841"
       y="18.54253"
       width="244.25462"
       height="90.888145"
       id="rect5188" />
    <rect
       x="128.24841"
       y="18.54253"
       width="244.25462"
       height="90.888145"
       id="rect7455" />
    <rect
       x="128.24841"
       y="18.54253"
       width="244.25462"
       height="90.888145"
       id="rect644" />
  </defs>
  <sodipodi:namedview
     id="base"
     pagecolor="#ffffff"
     bordercolor="#666666"
     borderopacity="1.0"
     inkscape:pageopacity="0.0"
     inkscape:pageshadow="2"
     inkscape:zoom="3.4861481"
     inkscape:cx="64.827997"
     inkscape:cy="42.310308"
     inkscape:document-units="mm"
     inkscape:current-layer="layer1"
     showgrid="false"
     inkscape:window-width="1920"
     inkscape:window-height="997"
     inkscape:window-x="0"
     inkscape:window-y="28"
     inkscape:window-maximized="1"
     inkscape:showpageshadow="2"
     inkscape:pagecheckerboard="false"
     inkscape:deskcolor="#d1d1d1" />
  <metadata
     id="metadata5">
    <rdf:RDF>
      <cc:Work
         rdf:about="">
        <dc:format>image/svg+xml</dc:format>
        <dc:type
           rdf:resource="http://purl.org/dc/dcmitype/StillImage" />
      </cc:Work>
    </rdf:RDF>
  </metadata>
  <g
     inkscape:label="Layer 1"
     inkscape:groupmode="layer"
     id="layer1">
    <rect
       style="fill:#000000;fill-opacity:1;stroke:#000000;stroke-width:0.365001;stroke-dasharray:none;stroke-opacity:1"
       id="rect3396"
       width="66.100822"
       height="29.368322"
       x="-2.2555721"
       y="-1.7196424"
       inkscape:export-filename="../label2.png"
       inkscape:export-xdpi="400.02499"
       inkscape:export-ydpi="400.02499" />
    <text
       xml:space="preserve"
       transform="matrix(0.26458333,0,0,0.26458333,-14.599805,-42.35676)"
       id="text346"
       style="font-style:normal;font-variant:normal;font-weight:normal;font-stretch:normal;font-size:48px;line-height:1.25;font-family:Uroob;-inkscape-font-specification:Uroob;text-align:center;letter-spacing:0px;word-spacing:0px;white-space:pre;shape-inside:url(#rect348);display:inline;fill:#000000;fill-opacity:1;stroke:none"><tspan
         x="156.9101"
         y="67.058203"
         id="tspan3818"><tspan
           style="font-weight:bold;font-family:FreeMono;-inkscape-font-specification:'FreeMono Bold'"
           id="tspan3816">rdspt.com</tspan></tspan></text>
    <g
       id="g534"
       transform="matrix(0.11022002,0,0,0.11022002,66.685327,-27.777144)"
       style="stroke-width:9.07277">
      <circle
         style="fill:#ce7622;fill-opacity:0.863415;stroke:none;stroke-width:4.80104;stroke-miterlimit:4;stroke-dasharray:none;stroke-opacity:1"
         id="circle530"
         cx="123.22024"
         cy="125.19482"
         r="36"
         inkscape:export-xdpi="25.400002"
         inkscape:export-ydpi="25.400002"
         inkscape:export-filename="/home/ben/path815.png" />
      <ellipse
         style="fill:#e10606;fill-opacity:1;stroke:none;stroke-width:4.80967;stroke-miterlimit:4;stroke-dasharray:none;stroke-opacity:1"
         id="ellipse532"
         transform="matrix(-0.99728564,0.07362985,-0.01127423,0.99993644,0,0)"
         ry="8.4130869"
         rx="13.12913"
         cy="144.89876"
         cx="-138.19196" />
    </g>
    <g
       aria-label="rdspt.com"
       transform="matrix(0.26458333,0,0,0.26458333,-6.941176,-28.247644)"
       id="text538"
       style="font-size:48px;line-height:1.25;font-family:Uroob;-inkscape-font-specification:Uroob;text-align:center;letter-spacing:0px;word-spacing:0px;white-space:pre;shape-inside:url(#rect540)">
      <path
         d="m 139.04392,67.93093 v -6.768 h 4.656 v -12.024 l -0.36,-0.36 h -4.248 v -6.768 h 6.072 l 1.632,1.92 1.848,-1.92 h 9.336 l 5.256,5.256 -5.232,5.088 -3.312,-3.552 h -2.736 l -1.464,1.464 v 10.92 h 4.656 v 6.744 z m 1.752,-1.848 h 12.624 v -3.072 h -4.776 v -13.8 l 2.232,-2.232 h 4.896 l 2.496,2.736 2.376,-2.328 -3.384,-3.48 h -7.896 l -2.448,2.496 -2.28,-2.496 h -3.816 v 3.072 h 3.12 l 1.608,1.752 v 14.28 h -4.752 z"
         style="font-family:Tourney;-inkscape-font-specification:Tourney"
         id="path542" />
      <path
         d="m 185.05189,67.93093 h -13.488 l -4.968,-4.944 v -16.032 l 4.968,-4.944 h 11.184 l 0.48,0.456 v -10.536 h 6.792 v 31.056 z m -2.52,-4.872 h -8.376 l -2.568,-2.568 v -11.328 l 2.328,-2.304 h 7.944 l 3.24,3.216 v 10.416 z m -0.768,-1.92 1.464,-1.464 v -8.952 l -1.92,-1.944 h -6.456 l -1.464,1.488 v 9.408 l 1.464,1.464 z m 2.256,4.992 4.176,-4.152 v -28.248 h -3.096 v 12.696 l -2.664,-2.664 h -10.008 l -3.936,3.912 v 14.304 l 4.176,4.152 z"
         style="font-family:Tourney;-inkscape-font-specification:Tourney"
         id="path544" />
      <path
         d="m 195.89985,67.93093 v -6.792 h 15.12 l 1.464,-1.464 v 0.12 l -1.416,-1.44 h -10.464 l -4.944,-4.944 v -6.456 l 4.944,-4.944 h 18.168 v 6.792 h -14.88 l -1.464,1.464 v -0.144 l 1.464,1.464 h 10.416 l 4.944,4.944 v 6.456 l -4.944,4.944 z m 1.824,-1.896 h 15.768 l 3.912,-3.936 v -4.848 l -3.936,-3.888 h -10.632 l -2.184,-2.184 v -1.944 l 2.304,-2.304 h 14.016 v -3.096 h -15.504 l -3.936,3.936 v 4.848 l 3.816,3.816 h 10.632 l 2.304,2.256 v 1.944 l -2.304,2.304 h -14.256 z"
         style="font-family:Tourney;-inkscape-font-specification:Tourney"
         id="path546" />
      <path
         d="m 224.89183,77.00293 v -30.048 l 4.944,-4.944 h 14.064 l 4.944,4.944 v 16.032 l -4.944,4.944 h -11.76 l -0.456,-0.48 v 9.552 z m 1.848,-1.848 h 3.072 v -11.88 l 2.664,2.664 h 10.584 l 4.032,-4.032 v -14.04 l -4.032,-4.032 h -12.168 l -4.152,4.152 z m 6.864,-14.016 h 6.984 l 1.464,-1.464 v -9.408 l -1.464,-1.488 h -7.44 l -1.464,1.488 v 8.952 z m -0.552,1.728 -3.24,-3.216 v -10.176 l 2.592,-2.544 h 9.144 l 2.472,2.424 v 11.064 l -2.472,2.448 z"
         style="font-family:Tourney;-inkscape-font-specification:Tourney"
         id="path548" />
      <path
         d="m 258.53978,67.93093 v -19.152 h -5.976 v -6.768 h 5.976 v -6.576 h 6.792 v 6.576 h 5.952 v 6.768 h -5.952 v 12.36 h 5.784 v 6.792 z m 1.872,-1.848 h 8.88 v -3.072 h -5.808 v -16.128 h 6 v -3.072 h -6 v -6.552 h -3.072 v 6.552 h -6.024 v 3.072 h 6.024 z"
         style="font-family:Tourney;-inkscape-font-specification:Tourney"
         id="path550" />
      <path
         d="m 276.85172,67.93093 v -7.056 h 7.536 v 7.056 z m 1.944,-1.92 h 3.672 v -3.24 h -3.672 z"
         style="font-family:Tourney;-inkscape-font-specification:Tourney"
         id="path552" />
      <path
         d="m 294.89969,67.93093 -4.944,-4.944 v -16.032 l 4.944,-4.944 h 18.336 v 6.792 h -15.024 l -1.464,1.464 v 9.408 l 1.464,1.464 h 15.024 v 6.792 z m 1.08,-1.848 h 15.408 v -3.096 h -13.896 l -2.568,-2.544 v -11.088 l 2.472,-2.472 h 13.992 v -3.072 h -15.504 l -4.056,4.056 v 14.112 z"
         style="font-family:Tourney;-inkscape-font-specification:Tourney"
         id="path554" />
      <path
         d="m 349.04364,67.93093 v -20.976 l 4.944,-4.944 h 9.288 l 2.496,2.448 2.472,-2.448 h 9.288 l 4.944,4.944 v 20.976 h -6.792 v -17.664 l -1.464,-1.464 h -3.6 l -1.464,1.464 v 16.224 h -6.792 v -16.224 l -1.464,-1.464 h -3.6 l -1.464,1.464 v 17.664 z m 1.872,-1.848 h 3.072 v -16.752 l 2.496,-2.448 h 5.136 l 2.616,2.568 v 15.312 h 3.072 v -15.312 l 2.616,-2.568 h 5.136 l 2.496,2.448 v 16.752 h 3.072 v -18.24 l -4.056,-4.056 h -7.704 l -3.096,3.096 -3.096,-3.096 h -7.704 l -4.056,4.056 z"
         style="font-family:Tourney;-inkscape-font-specification:Tourney"
         id="path558" />
    </g>
    <g
       id="g579"
       transform="matrix(0.27777778,0,0,0.27777778,-29.294433,-52.88423)"
       style="stroke-width:3.6;filter:url(#filter583)">
      <circle
         style="fill:#ce7622;fill-opacity:0.863415;stroke:none;stroke-width:1.90501;stroke-miterlimit:4;stroke-dasharray:none;stroke-opacity:1"
         id="circle575"
         cx="123.22024"
         cy="125.19482"
         r="36"
         inkscape:export-xdpi="25.400002"
         inkscape:export-ydpi="25.400002"
         inkscape:export-filename="/home/ben/path815.png" />
      <ellipse
         style="fill:#e10606;fill-opacity:1;stroke:none;stroke-width:1.90844;stroke-miterlimit:4;stroke-dasharray:none;stroke-opacity:1"
         id="ellipse577"
         transform="matrix(-0.99728564,0.07362985,-0.01127423,0.99993644,0,0)"
         ry="8.4130869"
         rx="13.12913"
         cy="144.89876"
         cx="-138.19196" />
    </g>
    <g
       id="g732"
       transform="translate(9.401057,-18.971603)">
      <g
         id="g654"
         transform="matrix(0.09061444,0,0,0.09061444,70.743901,1.5868965)"
         style="stroke-width:11.0359">
        <circle
           style="fill:#ce7622;fill-opacity:0.863415;stroke:none;stroke-width:5.83981;stroke-miterlimit:4;stroke-dasharray:none;stroke-opacity:1"
           id="circle650"
           cx="123.22024"
           cy="125.19482"
           r="36"
           inkscape:export-xdpi="25.400002"
           inkscape:export-ydpi="25.400002"
           inkscape:export-filename="/home/ben/path815.png" />
        <ellipse
           style="fill:#e10606;fill-opacity:1;stroke:none;stroke-width:5.8503;stroke-miterlimit:4;stroke-dasharray:none;stroke-opacity:1"
           id="ellipse652"
           transform="matrix(-0.99728564,0.07362985,-0.01127423,0.99993644,0,0)"
           ry="8.4130869"
           rx="13.12913"
           cy="144.89876"
           cx="-138.19196" />
      </g>
      <g
         aria-label="rdspt.com"
         transform="matrix(0.26458333,0,0,0.26458333,-16.490398,-2.1388575)"
         id="text627"
         style="font-size:48px;line-height:1.25;font-family:Uroob;-inkscape-font-specification:Uroob;text-align:center;letter-spacing:0px;word-spacing:0px;white-space:pre;shape-inside:url(#rect629)">
        <path
           d="m 178.2701,45.506203 q 2.016,0 4.032,1.248 2.016,1.248 2.016,2.832 0,1.008 -0.72,1.728 -0.72,0.72 -1.68,0.72 -0.816,0 -1.872,-0.864 -1.056,-0.864 -1.872,-0.864 -1.152,0 -2.832,1.056 -1.632,1.008 -5.088,3.84 v 7.056 h 6.672 q 3.216,0 3.216,2.4 0,2.4 -3.216,2.4 h -14.256 q -3.168,0 -3.168,-2.4 0,-1.392 0.816,-1.872 0.816,-0.528 2.352,-0.528 h 2.784 v -11.376 h -1.68 q -3.168,0 -3.168,-2.4 0,-2.4 3.168,-2.4 h 6.48 v 3.12 q 2.88,-2.16 4.56,-2.928 1.68,-0.768 3.456,-0.768 z"
           style="font-weight:bold;font-family:FreeMono;-inkscape-font-specification:'FreeMono Bold'"
           id="path631" />
        <path
           d="m 211.96602,62.258203 q 3.168,0 3.168,2.4 0,2.4 -3.168,2.4 h -5.568 v -1.68 q -3.456,2.352 -7.248,2.352 -5.376,0 -8.64,-3.216 -3.216,-3.216 -3.216,-7.968 0,-4.752 3.216,-7.92 3.264,-3.216 8.688,-3.216 4.176,0 7.2,2.4 v -5.904 h -0.768 q -1.536,0 -2.352,-0.48 -0.816,-0.528 -0.816,-1.92 0,-1.344 0.816,-1.824 0.816,-0.528 2.352,-0.528 h 5.568 v 25.104 z m -5.568,-5.616 q 0,-2.88 -1.968,-4.656 -1.968,-1.776 -5.232,-1.776 -3.216,0 -5.184,1.872 -1.92,1.824 -1.92,4.464 0,2.736 1.968,4.56 2.016,1.824 5.184,1.824 3.168,0 5.136,-1.776 2.016,-1.824 2.016,-4.512 z"
           style="font-weight:bold;font-family:FreeMono;-inkscape-font-specification:'FreeMono Bold'"
           id="path633" />
        <path
           d="m 238.79795,50.402203 q 0,1.536 -0.528,2.352 -0.48,0.816 -1.872,0.816 -0.864,0 -1.44,-0.528 -0.576,-0.528 -0.96,-1.104 -0.336,-0.624 -1.632,-1.152 -1.248,-0.528 -3.408,-0.528 -1.824,0 -3.312,0.528 -1.44,0.48 -1.44,1.152 0,0.96 2.112,1.392 2.112,0.384 5.28,0.864 3.168,0.48 4.848,1.44 1.584,0.864 2.448,2.304 0.912,1.44 0.912,3.12 0,2.928 -3.024,4.848 -3.024,1.92 -7.68,1.92 -4.176,0 -7.104,-1.392 -0.72,0.576 -1.536,0.576 -2.448,0 -2.448,-3.168 v -1.584 q 0,-3.216 2.448,-3.216 1.824,0 2.448,2.112 2.064,1.872 6,1.872 2.304,0 3.936,-0.624 1.68,-0.624 1.68,-1.44 0,-1.872 -6.048,-2.496 -5.04,-0.528 -7.296,-2.064 -2.256,-1.536 -2.256,-4.368 0,-2.88 2.784,-4.704 2.784,-1.872 7.104,-1.872 3.504,0 6.192,1.248 0.528,-1.248 1.536,-1.248 2.256,0 2.256,3.168 z"
           style="font-weight:bold;font-family:FreeMono;-inkscape-font-specification:'FreeMono Bold'"
           id="path635" />
        <path
           d="m 243.30988,48.482203 q 0,-2.4 3.168,-2.4 h 5.568 v 2.16 q 3.264,-2.784 7.344,-2.784 5.04,0 8.352,3.12 3.36,3.072 3.36,7.728 0,4.416 -3.312,7.344 -3.312,2.928 -8.304,2.928 -3.936,0 -7.44,-2.688 v 7.968 h 2.784 q 1.584,0 2.352,0.48 0.816,0.528 0.816,1.92 0,2.4 -3.168,2.4 h -8.352 q -3.168,0 -3.168,-2.4 0,-2.4 3.168,-2.4 h 0.768 v -20.976 h -0.768 q -1.536,0 -2.352,-0.48 -0.816,-0.528 -0.816,-1.92 z m 20.976,11.664 q 2.016,-1.632 2.016,-4.128 0,-2.496 -1.968,-4.128 -1.968,-1.632 -5.136,-1.632 -3.216,0 -5.184,1.632 -1.968,1.632 -1.968,4.08 0,2.544 1.968,4.176 2.016,1.632 5.184,1.632 3.12,0 5.088,-1.632 z"
           style="font-weight:bold;font-family:FreeMono;-inkscape-font-specification:'FreeMono Bold'"
           id="path637" />
        <path
           d="m 282.3818,60.290203 q 0,1.488 0.816,2.112 0.816,0.624 3.312,0.624 1.872,0 3.408,-0.336 1.584,-0.336 2.352,-0.72 0.816,-0.432 1.584,-0.768 0.816,-0.336 1.344,-0.336 0.96,0 1.632,0.72 0.672,0.72 0.672,1.728 0,1.344 -2.064,2.448 -2.016,1.056 -4.512,1.536 -2.448,0.528 -4.464,0.528 -4.08,0 -6.48,-1.776 -2.4,-1.776 -2.4,-4.848 v -10.32 h -1.68 q -3.168,0 -3.168,-2.4 0,-1.392 0.816,-1.872 0.816,-0.528 2.352,-0.528 h 1.68 v -4.224 q 0,-3.168 2.4,-3.168 1.392,0 1.872,0.816 0.528,0.816 0.528,2.352 v 4.224 h 8.688 q 1.536,0 2.352,0.528 0.816,0.48 0.816,1.872 0,2.4 -3.168,2.4 h -8.688 z"
           style="font-weight:bold;font-family:FreeMono;-inkscape-font-specification:'FreeMono Bold'"
           id="path639" />
        <path
           d="m 315.74173,67.778203 h -0.864 q -1.296,0 -2.256,-0.912 -0.912,-0.96 -0.912,-2.256 0,-1.296 0.912,-2.208 0.96,-0.96 2.256,-0.96 h 0.864 q 1.344,0 2.256,0.912 0.912,0.912 0.912,2.256 0,1.344 -0.912,2.256 -0.912,0.912 -2.256,0.912 z"
           style="font-weight:bold;font-family:FreeMono;-inkscape-font-specification:'FreeMono Bold'"
           id="path641" />
        <path
           d="m 355.62966,52.322203 q 0,3.168 -2.4,3.168 -1.296,0 -1.824,-0.72 -0.48,-0.72 -0.768,-1.776 -0.288,-1.056 -0.96,-1.536 -1.968,-1.2 -5.088,-1.2 -3.408,0 -5.472,1.92 -2.016,1.872 -2.016,4.944 0,5.904 8.448,5.904 2.544,0 4.224,-0.432 1.68,-0.432 2.256,-0.912 0.624,-0.48 1.2,-0.912 0.624,-0.432 1.2,-0.432 0.96,0 1.68,0.72 0.72,0.72 0.72,1.728 0,2.064 -3.216,3.552 -3.168,1.488 -8.4,1.488 -2.976,0 -5.328,-0.672 -2.304,-0.672 -3.696,-1.728 -1.392,-1.104 -2.304,-2.544 -0.912,-1.44 -1.248,-2.832 -0.336,-1.44 -0.336,-2.928 0,-5.136 3.408,-8.4 3.456,-3.264 8.88,-3.264 4.128,0 6.912,1.44 0.432,-1.44 1.824,-1.44 2.304,0 2.304,3.168 z"
           style="font-weight:bold;font-family:FreeMono;-inkscape-font-specification:'FreeMono Bold'"
           id="path643" />
        <path
           d="m 389.61351,67.058203 q -3.216,0 -3.216,-2.4 0,-2.4 2.88,-2.4 v -11.376 q -2.88,-0.096 -2.88,-2.4 0,-2.4 3.216,-2.4 h 4.464 v 1.152 q 2.208,-1.776 4.08,-1.776 2.736,0 4.896,2.352 2.16,-2.352 4.992,-2.352 2.688,0 4.464,1.824 1.824,1.776 1.824,4.464 v 10.512 q 2.88,0 2.88,2.4 0,2.4 -3.168,2.4 h -4.512 v -14.928 q 0,-1.056 -0.384,-1.44 -0.336,-0.432 -1.296,-0.432 -0.96,0 -1.728,0.432 -0.72,0.432 -1.92,1.728 v 9.84 q 1.344,0 2.112,0.672 0.768,0.624 0.768,1.728 0,2.4 -3.168,2.4 h -4.512 v -14.928 q 0,-1.008 -0.384,-1.44 -0.384,-0.432 -1.296,-0.432 -1.728,0 -3.648,2.16 v 9.84 q 2.928,0 2.928,2.4 0,2.4 -3.168,2.4 z"
           style="font-weight:bold;font-family:FreeMono;-inkscape-font-specification:'FreeMono Bold'"
           id="path647" />
      </g>
    </g>
    <g
       aria-label="rdspt.com"
       transform="matrix(0.26458333,0,0,0.26458333,-6.941176,-28.247644)"
       id="g354"
       style="font-size:48px;line-height:1.25;font-family:Uroob;-inkscape-font-specification:Uroob;text-align:center;letter-spacing:0px;word-spacing:0px;white-space:pre;shape-inside:url(#rect540)">
      <path
         d="m 139.04392,67.93093 v -6.768 h 4.656 v -12.024 l -0.36,-0.36 h -4.248 v -6.768 h 6.072 l 1.632,1.92 1.848,-1.92 h 9.336 l 5.256,5.256 -5.232,5.088 -3.312,-3.552 h -2.736 l -1.464,1.464 v 10.92 h 4.656 v 6.744 z m 1.752,-1.848 h 12.624 v -3.072 h -4.776 v -13.8 l 2.232,-2.232 h 4.896 l 2.496,2.736 2.376,-2.328 -3.384,-3.48 h -7.896 l -2.448,2.496 -2.28,-2.496 h -3.816 v 3.072 h 3.12 l 1.608,1.752 v 14.28 h -4.752 z"
         style="font-family:Tourney;-inkscape-font-specification:Tourney"
         id="path338" />
      <path
         d="m 185.05189,67.93093 h -13.488 l -4.968,-4.944 v -16.032 l 4.968,-4.944 h 11.184 l 0.48,0.456 v -10.536 h 6.792 v 31.056 z m -2.52,-4.872 h -8.376 l -2.568,-2.568 v -11.328 l 2.328,-2.304 h 7.944 l 3.24,3.216 v 10.416 z m -0.768,-1.92 1.464,-1.464 v -8.952 l -1.92,-1.944 h -6.456 l -1.464,1.488 v 9.408 l 1.464,1.464 z m 2.256,4.992 4.176,-4.152 v -28.248 h -3.096 v 12.696 l -2.664,-2.664 h -10.008 l -3.936,3.912 v 14.304 l 4.176,4.152 z"
         style="font-family:Tourney;-inkscape-font-specification:Tourney"
         id="path340" />
      <path
         d="m 195.89985,67.93093 v -6.792 h 15.12 l 1.464,-1.464 v 0.12 l -1.416,-1.44 h -10.464 l -4.944,-4.944 v -6.456 l 4.944,-4.944 h 18.168 v 6.792 h -14.88 l -1.464,1.464 v -0.144 l 1.464,1.464 h 10.416 l 4.944,4.944 v 6.456 l -4.944,4.944 z m 1.824,-1.896 h 15.768 l 3.912,-3.936 v -4.848 l -3.936,-3.888 h -10.632 l -2.184,-2.184 v -1.944 l 2.304,-2.304 h 14.016 v -3.096 h -15.504 l -3.936,3.936 v 4.848 l 3.816,3.816 h 10.632 l 2.304,2.256 v 1.944 l -2.304,2.304 h -14.256 z"
         style="font-family:Tourney;-inkscape-font-specification:Tourney"
         id="path342" />
      <path
         d="m 224.89183,77.00293 v -30.048 l 4.944,-4.944 h 14.064 l 4.944,4.944 v 16.032 l -4.944,4.944 h -11.76 l -0.456,-0.48 v 9.552 z m 1.848,-1.848 h 3.072 v -11.88 l 2.664,2.664 h 10.584 l 4.032,-4.032 v -14.04 l -4.032,-4.032 h -12.168 l -4.152,4.152 z m 6.864,-14.016 h 6.984 l 1.464,-1.464 v -9.408 l -1.464,-1.488 h -7.44 l -1.464,1.488 v 8.952 z m -0.552,1.728 -3.24,-3.216 v -10.176 l 2.592,-2.544 h 9.144 l 2.472,2.424 v 11.064 l -2.472,2.448 z"
         style="font-family:Tourney;-inkscape-font-specification:Tourney"
         id="path344" />
      <path
         d="m 258.53978,67.93093 v -19.152 h -5.976 v -6.768 h 5.976 v -6.576 h 6.792 v 6.576 h 5.952 v 6.768 h -5.952 v 12.36 h 5.784 v 6.792 z m 1.872,-1.848 h 8.88 v -3.072 h -5.808 v -16.128 h 6 v -3.072 h -6 v -6.552 h -3.072 v 6.552 h -6.024 v 3.072 h 6.024 z"
         style="font-family:Tourney;-inkscape-font-specification:Tourney"
         id="path346" />
      <path
         d="m 276.85172,67.93093 v -7.056 h 7.536 v 7.056 z m 1.944,-1.92 h 3.672 v -3.24 h -3.672 z"
         style="font-family:Tourney;-inkscape-font-specification:Tourney"
         id="path348" />
      <path
         d="m 294.89969,67.93093 -4.944,-4.944 v -16.032 l 4.944,-4.944 h 18.336 v 6.792 h -15.024 l -1.464,1.464 v 9.408 l 1.464,1.464 h 15.024 v 6.792 z m 1.08,-1.848 h 15.408 v -3.096 h -13.896 l -2.568,-2.544 v -11.088 l 2.472,-2.472 h 13.992 v -3.072 h -15.504 l -4.056,4.056 v 14.112 z"
         style="font-family:Tourney;-inkscape-font-specification:Tourney"
         id="path350" />
      <path
         d="m 349.04364,67.93093 v -20.976 l 4.944,-4.944 h 9.288 l 2.496,2.448 2.472,-2.448 h 9.288 l 4.944,4.944 v 20.976 h -6.792 v -17.664 l -1.464,-1.464 h -3.6 l -1.464,1.464 v 16.224 h -6.792 v -16.224 l -1.464,-1.464 h -3.6 l -1.464,1.464 v 17.664 z m 1.872,-1.848 h 3.072 v -16.752 l 2.496,-2.448 h 5.136 l 2.616,2.568 v 15.312 h 3.072 v -15.312 l 2.616,-2.568 h 5.136 l 2.496,2.448 v 16.752 h 3.072 v -18.24 l -4.056,-4.056 h -7.704 l -3.096,3.096 -3.096,-3.096 h -7.704 l -4.056,4.056 z"
         style="font-family:Tourney;-inkscape-font-specification:Tourney"
         id="path352" />
    </g>
    <text
       xml:space="preserve"
       transform="matrix(0.26458333,0,0,0.26458333,-58.360517,31.294116)"
       id="text462"
       style="font-weight:300;font-size:29.3333px;line-height:1.25;font-family:Tourney;-inkscape-font-specification:'Tourney Light';text-align:center;letter-spacing:0px;word-spacing:0px;white-space:pre;shape-inside:url(#rect464);display:inline;fill:#ffffff;fill-opacity:1;stroke:#ffffff;stroke-width:0.680315;stroke-dasharray:none;stroke-opacity:1"><tspan
         x="170.20083"
         y="46.209604"
         id="tspan3820">RDSPT.COM</tspan></text>
    <text
       xml:space="preserve"
       transform="matrix(0.26458333,0,0,0.26458333,-108.22524,-22.509709)"
       id="text3271"
       style="font-style:normal;font-variant:normal;font-weight:normal;font-stretch:normal;font-size:29.3333px;line-height:1.25;font-family:Uroob;-inkscape-font-specification:Uroob;text-align:center;letter-spacing:-0.01px;word-spacing:0px;white-space:pre;shape-inside:url(#rect3273);display:inline;fill:#ffffff;fill-opacity:1;stroke:none"><tspan
         x="242.20713"
         y="49.791505"
         id="tspan3826"><tspan
           style="letter-spacing:-3px"
           id="tspan3822">rdspt.</tspan><tspan
           dx="-2.9899986"
           style="font-weight:bold;font-family:FreeMono;-inkscape-font-specification:'FreeMono Bold'"
           id="tspan3824">com</tspan></tspan></text>
    <g
       id="g477"
       transform="matrix(0.75,0,0,0.75,-28.647086,-10.832114)"
       style="stroke-width:1.33333">
      <circle
         style="fill:#ce7622;fill-opacity:0.863415;stroke:none;stroke-width:0.705558;stroke-miterlimit:4;stroke-dasharray:none;stroke-opacity:1"
         id="path815"
         cx="13.923504"
         cy="11.900514"
         r="10"
         inkscape:export-xdpi="25.400002"
         inkscape:export-ydpi="25.400002"
         inkscape:export-filename="/home/ben/path815.png" />
      <ellipse
         style="fill:#e10606;fill-opacity:1;stroke:none;stroke-width:0.706544;stroke-miterlimit:4;stroke-dasharray:none;stroke-opacity:1"
         id="path817"
         transform="matrix(-0.98366726,0.17999647,0.25318732,0.96741727,0,0)"
         ry="2.3300955"
         rx="2.5380094"
         cy="15.824032"
         cx="-6.3425984" />
    </g>
    <g
       id="g10076"
       transform="matrix(0.64541025,0,0,1.0632984,18.063754,9.8822736)"
       style="stroke-width:1.20713">
      <path
         d="m -2.266733,24.341226 h 2.23242187 q 0.67179559,0 0.99218749,-0.237711 0.33072914,-0.248047 0.33072914,-0.837159 0,-0.589111 -0.33072914,-0.826823 -0.3203919,-0.248047 -0.99218749,-0.248047 H -2.266733 Z m 0,0.992188 v 2.976562 q 0,0.206706 -0.1446927,0.3514 -0.1446953,0.144694 -0.351401,0.144694 -0.2067057,0 -0.3513984,-0.144694 -0.1446954,-0.144694 -0.1446954,-0.3514 v -3.462321 -3.152262 q 0,-0.206706 0.15503,-0.3514 0.1653646,-0.144694 0.3410638,-0.144694 h 2.72851557 q 0.95084634,0 1.63297653,0.516764 0.6821276,0.506429 0.6821276,1.550293 0,0.5271 -0.1963685,0.940511 -0.1963711,0.403076 -0.506431,0.640788 -0.2997226,0.227377 -0.71313406,0.3514 l 1.25056896,2.914551 q 0.010345,0.03101 0.020664,0.06201 0.010345,0.03101 0.010345,0.06201 0.010345,0.03101 0.010345,0.07235 0,0.144694 -0.082682,0.268717 -0.082682,0.124024 -0.2170403,0.186036 -0.093017,0.04134 -0.1963711,0.04134 -0.1446927,0 -0.2687162,-0.08268 -0.1240234,-0.08268 -0.1860364,-0.21704 l -1.36425784,-3.172933 z"
         style="font-weight:normal;font-size:40px;line-height:1.25;font-family:'Routed Gothic';-inkscape-font-specification:'Routed Gothic';text-align:center;letter-spacing:0px;word-spacing:0px;text-anchor:middle;white-space:pre;fill:#ffffff;stroke:#ffffff;stroke-width:0.217284"
         id="path8222" />
      <path
         d="m 4.0171211,28.309976 v -6.614583 q 0,-0.206706 0.15503,-0.3514 0.1653645,-0.144694 0.3410638,-0.144694 h 2.1497395 q 0.3100599,0 0.6511237,0.113688 0.3514011,0.113688 0.7441406,0.403076 0.3927422,0.279053 0.7027995,0.692465 0.3100599,0.413411 0.5064284,1.09554 0.2067057,0.671793 0.2067057,1.498616 0,0.826823 -0.2067057,1.508952 -0.1963685,0.671794 -0.5064284,1.085205 -0.3100573,0.413412 -0.7027995,0.7028 Q 7.6654792,28.578693 7.3140781,28.692382 6.9730143,28.80607 6.6629544,28.80607 H 4.5132149 q -0.2067058,0 -0.3513985,-0.155029 -0.1446953,-0.165365 -0.1446953,-0.341065 z m 0.9921875,-0.496094 h 1.6536458 q 0.1446953,0 0.3410664,-0.05168 0.1963685,-0.06201 0.4650873,-0.248047 0.2687161,-0.19637 0.4857591,-0.485759 0.2170403,-0.289388 0.3720703,-0.816487 0.1550273,-0.537435 0.1550273,-1.209229 0,-0.671793 -0.1550273,-1.198893 Q 8.1719075,23.266356 7.9548672,22.976968 7.7378242,22.68758 7.4691081,22.501545 7.2003893,22.305175 7.0040208,22.253498 6.8076497,22.191486 6.6629544,22.191486 H 5.0093086 Z"
         style="font-weight:normal;font-size:40px;line-height:1.25;font-family:'Routed Gothic';-inkscape-font-specification:'Routed Gothic';text-align:center;letter-spacing:0px;word-spacing:0px;text-anchor:middle;white-space:pre;fill:#ffffff;stroke:#ffffff;stroke-width:0.217284"
         id="path8224" />
      <path
         d="m 15.913036,23.328368 q -0.03101,0.01033 -0.07235,0.02067 -0.04134,0 -0.07234,0 -0.165365,0 -0.299726,-0.09302 -0.124023,-0.09302 -0.175699,-0.237711 -0.02066,-0.05168 -0.05168,-0.113688 -0.03101,-0.07235 -0.165364,-0.227377 -0.124024,-0.155029 -0.289388,-0.268717 -0.15503,-0.113688 -0.454753,-0.206706 -0.289388,-0.09302 -0.640789,-0.09302 -0.744141,0 -1.157552,0.299723 -0.413411,0.299723 -0.413411,0.775146 0,0.09302 0.01034,0.1757 0.02066,0.08268 0.07235,0.206706 0.06201,0.124023 0.186036,0.227376 0.124024,0.103353 0.310058,0.206706 0.196371,0.103353 0.506431,0.19637 0.320391,0.09302 0.723468,0.15503 0.661459,0.09302 1.147218,0.320394 0.496093,0.227376 0.775147,0.537434 0.289388,0.299724 0.423746,0.640788 0.144693,0.341065 0.144693,0.72347 0,0.992188 -0.76481,1.653646 -0.764813,0.661458 -1.963706,0.661458 -0.403074,0 -0.76481,-0.08268 -0.361735,-0.09302 -0.620117,-0.227376 -0.258381,-0.134359 -0.496094,-0.310059 -0.227377,-0.186035 -0.361735,-0.330729 -0.134358,-0.155029 -0.248047,-0.320394 -0.113689,-0.1757 -0.144693,-0.237711 -0.03101,-0.07235 -0.05168,-0.113688 -0.04134,-0.09302 -0.04134,-0.196371 0,-0.320394 0.299726,-0.454753 0.09302,-0.04134 0.186034,-0.04134 0.320394,0 0.454752,0.279053 0.03101,0.06201 0.07235,0.144694 0.05168,0.07235 0.196371,0.248047 0.155027,0.1757 0.341064,0.310059 0.186034,0.134358 0.496093,0.237711 0.320395,0.103353 0.682128,0.103353 0.847495,0 1.291913,-0.382406 0.444415,-0.39274 0.444415,-0.940511 0,-0.19637 -0.05168,-0.3514 -0.05168,-0.155029 -0.206705,-0.341064 -0.15503,-0.186035 -0.506429,-0.330729 -0.351401,-0.144694 -0.878498,-0.227376 -1.364258,-0.196371 -2.015382,-0.785482 -0.640789,-0.589112 -0.640789,-1.353923 0,-0.981852 0.754478,-1.519287 0.76481,-0.54777 1.808673,-0.54777 0.351401,0 0.661458,0.06201 0.320395,0.06201 0.558107,0.1757 0.237712,0.113688 0.434081,0.248047 0.196371,0.124023 0.341066,0.279052 0.144693,0.144694 0.23771,0.279053 0.103354,0.124024 0.165364,0.258382 0.07235,0.124024 0.103355,0.186035 0.03101,0.06201 0.04134,0.09302 0.02066,0.07235 0.02066,0.144694 0,0.05168 -0.01035,0.103353 -0.01035,0.05168 -0.03101,0.103353 -0.02066,0.04134 -0.05168,0.08268 -0.03101,0.04134 -0.07235,0.08268 -0.031,0.03101 -0.08268,0.06201 -0.04134,0.03101 -0.09302,0.05168 z"
         style="font-weight:normal;font-size:40px;line-height:1.25;font-family:'Routed Gothic';-inkscape-font-specification:'Routed Gothic';text-align:center;letter-spacing:0px;word-spacing:0px;text-anchor:middle;white-space:pre;fill:#ffffff;stroke:#ffffff;stroke-width:0.217284"
         id="path8226" />
      <path
         d="m 19.14798,24.671955 h 1.984375 q 0.620117,0 0.971519,-0.310058 0.351398,-0.310059 0.351398,-0.930176 0,-0.620117 -0.351398,-0.930176 -0.351402,-0.310059 -0.971519,-0.310059 H 19.14798 Z m 0,0.992188 v 2.645833 q 0,0.206706 -0.144692,0.3514 -0.144696,0.144694 -0.351401,0.144694 -0.206706,0 -0.351399,-0.144694 -0.144695,-0.144694 -0.144695,-0.3514 v -3.131592 -3.482991 q 0,-0.206706 0.15503,-0.3514 0.165364,-0.144694 0.341064,-0.144694 h 2.480468 q 0.950847,0 1.632977,0.599447 0.682127,0.589111 0.682127,1.632975 0,1.043864 -0.682127,1.643311 -0.68213,0.589111 -1.632977,0.589111 z"
         style="font-weight:normal;font-size:40px;line-height:1.25;font-family:'Routed Gothic';-inkscape-font-specification:'Routed Gothic';text-align:center;letter-spacing:0px;word-spacing:0px;text-anchor:middle;white-space:pre;fill:#ffffff;stroke:#ffffff;stroke-width:0.217284"
         id="path8228" />
      <path
         d="m 24.832389,22.046792 q -0.144695,-0.144694 -0.144695,-0.351399 0,-0.206706 0.144695,-0.3514 0.144693,-0.144694 0.351399,-0.144694 h 5.126302 q 0.206705,0 0.351401,0.144694 0.144692,0.144694 0.144692,0.3514 0,0.206705 -0.144692,0.351399 -0.144696,0.144694 -0.351401,0.144694 h -2.067058 v 6.11849 q 0,0.206706 -0.144692,0.3514 -0.144696,0.144694 -0.351401,0.144694 -0.206706,0 -0.351399,-0.144694 -0.144695,-0.144694 -0.144695,-0.3514 v -6.11849 h -2.067057 q -0.206706,0 -0.351399,-0.144694 z"
         style="font-weight:normal;font-size:40px;line-height:1.25;font-family:'Routed Gothic';-inkscape-font-specification:'Routed Gothic';text-align:center;letter-spacing:0px;word-spacing:0px;text-anchor:middle;white-space:pre;fill:#ffffff;stroke:#ffffff;stroke-width:0.217284"
         id="path8230" />
      <path
         d="m 32.211782,27.979247 q 0,0.341064 -0.248047,0.589111 -0.237709,0.237712 -0.578776,0.237712 -0.27905,0 -0.475422,-0.186035 -0.186036,-0.196371 -0.186036,-0.475424 0,-0.341064 0.237712,-0.578776 0.248047,-0.248046 0.589111,-0.248046 0.279053,0 0.46509,0.19637 0.196368,0.186035 0.196368,0.465088 z"
         style="font-weight:normal;font-size:40px;line-height:1.25;font-family:'Routed Gothic';-inkscape-font-specification:'Routed Gothic';text-align:center;letter-spacing:0px;word-spacing:0px;text-anchor:middle;white-space:pre;fill:#ffffff;stroke:#ffffff;stroke-width:0.217284"
         id="path8232" />
      <path
         d="m 38.785024,26.242919 q 0.206706,0 0.351401,0.144694 0.144693,0.144694 0.144693,0.351399 0,0.217042 -0.155027,0.558106 -0.15503,0.341065 -0.444418,0.713135 -0.289388,0.361735 -0.806154,0.620117 -0.506428,0.258382 -1.116211,0.258382 -1.312579,0 -2.191081,-1.157552 -0.868164,-1.167887 -0.868164,-2.728516 0,-1.012858 0.382408,-1.901692 0.382405,-0.888835 1.085204,-1.436605 0.713135,-0.54777 1.591633,-0.54777 0.485759,0 0.909505,0.165364 0.423749,0.165365 0.661459,0.372071 0.237712,0.19637 0.434083,0.465088 0.196371,0.268717 0.237712,0.382405 0.05168,0.103353 0.08268,0.186035 0.031,0.08268 0.031,0.165365 0,0.155029 -0.09302,0.289388 -0.08268,0.124023 -0.227375,0.1757 -0.04134,0.01033 -0.08268,0.02067 -0.04134,0.01033 -0.08268,0.01033 -0.15503,0 -0.289388,-0.08268 -0.124023,-0.08268 -0.175702,-0.217041 -0.04134,-0.09302 -0.103351,-0.19637 -0.06201,-0.113688 -0.227378,-0.299724 -0.155027,-0.19637 -0.444415,-0.320394 -0.279054,-0.124023 -0.630455,-0.124023 -0.806151,0 -1.436603,0.826823 -0.630454,0.826823 -0.630454,2.067057 0,1.240235 0.630454,2.067057 0.640787,0.826823 1.436603,0.826823 0.330729,0 0.620117,-0.144694 0.289388,-0.144694 0.475425,-0.351399 0.186034,-0.206706 0.289388,-0.382406 0.113689,-0.186035 0.144693,-0.310058 0.01035,-0.124024 0.07235,-0.227377 0.07235,-0.113688 0.175699,-0.1757 0.113689,-0.06201 0.248047,-0.06201 z"
         style="font-weight:normal;font-size:40px;line-height:1.25;font-family:'Routed Gothic';-inkscape-font-specification:'Routed Gothic';text-align:center;letter-spacing:0px;word-spacing:0px;text-anchor:middle;white-space:pre;fill:#ffffff;stroke:#ffffff;stroke-width:0.217284"
         id="path8234" />
      <path
         d="m 49.471712,28.661376 q -0.144696,0.144694 -0.351401,0.144694 -0.206706,0 -0.351399,-0.144694 -0.144695,-0.144694 -0.144695,-0.3514 v -6.614583 q 0,-0.206706 0.15503,-0.3514 0.165364,-0.144694 0.341064,-0.144694 h 0.196371 0.21704 q 0.15503,0 0.289388,0.103353 0.134361,0.09302 0.175702,0.227376 l 1.932697,5.322673 1.932699,-5.322673 q 0.05168,-0.155029 0.186036,-0.237711 0.144693,-0.09302 0.279051,-0.09302 h 0.206706 0.206705 q 0.206706,0 0.351401,0.165365 0.144693,0.155029 0.144693,0.330729 v 6.614583 q 0,0.206706 -0.144693,0.3514 -0.144695,0.144694 -0.351401,0.144694 -0.206705,0 -0.351398,-0.144694 -0.144695,-0.144694 -0.144695,-0.3514 v -4.929931 l -1.850015,5.095296 q -0.03101,0.09302 -0.103354,0.1757 -0.06201,0.07235 -0.15503,0.113688 -0.09302,0.04134 -0.206705,0.04134 -0.351399,0 -0.465088,-0.330729 l -1.850017,-5.095296 v 4.929931 q 0,0.206706 -0.144692,0.3514 z"
         style="font-weight:normal;font-size:40px;line-height:1.25;font-family:'Routed Gothic';-inkscape-font-specification:'Routed Gothic';text-align:center;letter-spacing:0px;word-spacing:0px;text-anchor:middle;white-space:pre;fill:#ffffff;stroke:#ffffff;stroke-width:0.217284"
         id="path8238" />
      <g
         id="g7828"
         transform="matrix(0.39574066,0,0,0.39574066,38.229468,20.12977)"
         style="stroke-width:3.0503">
        <circle
           style="fill:#ce7622;fill-opacity:0.863415;stroke:none;stroke-width:1.61412;stroke-miterlimit:4;stroke-dasharray:none;stroke-opacity:1"
           id="circle7824"
           cx="13.923504"
           cy="11.900514"
           r="10"
           inkscape:export-xdpi="25.400002"
           inkscape:export-ydpi="25.400002"
           inkscape:export-filename="/home/ben/path815.png" />
        <ellipse
           style="fill:#e10606;fill-opacity:1;stroke:none;stroke-width:1.61639;stroke-miterlimit:4;stroke-dasharray:none;stroke-opacity:1"
           id="ellipse7826"
           transform="matrix(-0.98366726,0.17999647,0.25318732,0.96741727,0,0)"
           ry="2.3300955"
           rx="2.5380094"
           cy="15.824032"
           cx="-6.3425984" />
      </g>
    </g>
    <g
       id="g11294"
       transform="matrix(1.2995533,0,0,1.2995533,-8.9127879,-5.8484535)"
       style="stroke-width:0.769493">
      <ellipse
         style="fill:#ce7622;fill-opacity:0.863415;stroke:none;stroke-width:0.407193;stroke-miterlimit:4;stroke-dasharray:none;stroke-opacity:1"
         id="circle11290"
         cx="12.383481"
         cy="12.598717"
         inkscape:export-xdpi="25.400002"
         inkscape:export-ydpi="25.400002"
         inkscape:export-filename="/home/ben/path815.png"
         rx="11.348365"
         ry="10.034829" />
      <ellipse
         style="fill:#e10606;fill-opacity:1;stroke:none;stroke-width:0.407762;stroke-miterlimit:4;stroke-dasharray:none;stroke-opacity:1"
         id="ellipse11292"
         transform="matrix(-0.98366726,0.17999646,0.25318732,0.96741727,0,0)"
         ry="2.0122201"
         rx="2.1917701"
         cy="19.017258"
         cx="-6.4991732" />
    </g>
    <text
       xml:space="preserve"
       transform="matrix(0.25542774,0,0,0.2551532,-43.645958,1.9030529)"
       id="text5186"
       style="font-weight:300;font-size:23.4918px;line-height:1.25;font-family:Tourney;-inkscape-font-specification:'Tourney Light';text-align:center;letter-spacing:0px;word-spacing:0px;white-space:pre;shape-inside:url(#rect5188);display:inline;fill:#ffffff;fill-opacity:1;stroke:#000000;stroke-width:0.705079;stroke-dasharray:none;stroke-opacity:1"><tspan
         x="175.19763"
         y="40.700008"
         id="tspan3830"><tspan
           style="font-weight:normal;font-family:'Routed Gothic';-inkscape-font-specification:'Routed Gothic';fill:#000000"
           id="tspan3828">RDSPT   COM</tspan></tspan></text>
    <text
       xml:space="preserve"
       transform="matrix(0.25542774,0,0,0.2551532,-36.623165,8.2623165)"
       id="text642"
       style="font-weight:300;font-size:22.1099px;line-height:1.25;font-family:Tourney;-inkscape-font-specification:'Tourney Light';text-align:center;letter-spacing:0px;word-spacing:0px;white-space:pre;shape-inside:url(#rect644);display:inline;fill:#ffffff;fill-opacity:1;stroke:#ffffff;stroke-width:0.705079;stroke-dasharray:none;stroke-opacity:1"><tspan
         x="222.97611"
         y="39.396624"
         id="tspan3834"><tspan
           style="font-weight:normal;font-family:'Routed Gothic';-inkscape-font-specification:'Routed Gothic'"
           id="tspan3832">.COM</tspan></tspan></text>
    <g
       id="g3398"
       transform="matrix(1.2995533,0,0,1.2995533,-37.026006,3.6872247)"
       style="stroke-width:0.769493">
      <circle
         style="fill:#ce7622;fill-opacity:0.863415;stroke:none;stroke-width:0.407193;stroke-miterlimit:4;stroke-dasharray:none;stroke-opacity:1"
         id="circle3394"
         cx="13.923504"
         cy="11.900514"
         r="10"
         inkscape:export-xdpi="25.400002"
         inkscape:export-ydpi="25.400002"
         inkscape:export-filename="/home/ben/path815.png" />
      <ellipse
         style="fill:#e10606;fill-opacity:1;stroke:none;stroke-width:0.407762;stroke-miterlimit:4;stroke-dasharray:none;stroke-opacity:1"
         id="ellipse3396"
         transform="matrix(-0.98366726,0.17999646,0.25318732,0.96741727,0,0)"
         ry="2.0122201"
         rx="2.1917701"
         cy="16.920122"
         cx="-6.1184645" />
    </g>
  </g>
</svg>
